STARTFONT 2.1
COMMENT
COMMENT Converted from OpenType font "NimbusSans-Regular.otf" by "otf2bdf 3.0".
COMMENT
FONT -FreeType-Nimbus Sans-Medium-R-Normal--75-540-100-100-P-390-ISO10646-1
SIZE 54 100 100
FONTBOUNDINGBOX 93 103 -16 -22
STARTPROPERTIES 19
FOUNDRY "FreeType"
FAMILY_NAME "Nimbus Sans"
WEIGHT_NAME "Medium"
SLANT "R"
SETWIDTH_NAME "Normal"
ADD_STYLE_NAME ""
PIXEL_SIZE 75
POINT_SIZE 540
RESOLUTION_X 100
RESOLUTION_Y 100
SPACING "P"
AVERAGE_WIDTH 390
CHARSET_REGISTRY "ISO10646"
CHARSET_ENCODING "1"
FONT_ASCENT 54
FONT_DESCENT 20
COPYRIGHT "(URW)++,Copyright 2014 by (URW)++ Design & Development"
_OTF_FONTFILE "NimbusSans-Regular.otf"
_OTF_PSNAME "NimbusSans-Regular"
ENDPROPERTIES
CHARS 854
STARTCHAR 0020
ENCODING 32
SWIDTH 280 0
DWIDTH 21 0
BBX 0 0 0 0
BITMAP
ENDCHAR
STARTCHAR 0021
ENCODING 33
SWIDTH 280 0
DWIDTH 21 0
BBX 7 55 9 0
BITMAP
FE
FE
FE
FE
FE
FE
FE
FE
FE
FE
FE
FE
FE
FE
FE
FE
FE
FE
FE
FE
FE
FE
FE
FE
FE
FE
FE
7C
7C
7C
7C
7C
7C
7C
7C
7C
7C
38
38
38
38
38
00
00
00
00
00
FE
FE
FE
FE
FE
FE
FE
FE
ENDCHAR
STARTCHAR 0022
ENCODING 34
SWIDTH 360 0
DWIDTH 27 0
BBX 19 18 4 35
BITMAP
FE0FE0
FE0FE0
FE0FE0
FE0FE0
FE0FE0
FE0FE0
FE0FE0
FE0FE0
FE0FE0
FE0FE0
FC0FC0
7C07C0
7C07C0
7C07C0
7C07C0
780780
380380
380380
ENDCHAR
STARTCHAR 0023
ENCODING 35
SWIDTH 560 0
DWIDTH 42 0
BBX 40 54 1 -1
BITMAP
0001F003E0
0003F007E0
0003F007E0
0003F007E0
0003F007E0
0003E007C0
0007E00FC0
0007E00FC0
0007E00FC0
0007E00FC0
0007C00F80
0007C00F80
000FC01F80
000FC01F80
000FC01F80
1FFFFFFFFF
1FFFFFFFFF
1FFFFFFFFF
1FFFFFFFFF
1FFFFFFFFF
001F803F00
001F003E00
003F003E00
003F007E00
003F007E00
003F007E00
003E007E00
003E007C00
007E00FC00
007E00FC00
007E00FC00
007E00FC00
007C00F800
FFFFFFFFF8
FFFFFFFFF8
FFFFFFFFF8
FFFFFFFFF8
FFFFFFFFF8
00F801F000
01F803F000
01F803F000
01F803F000
01F803F000
01F003E000
03F003E000
03F007E000
03F007E000
03F007E000
03E007E000
03E007C000
07E00FC000
07E00FC000
07E00FC000
07E00FC000
ENDCHAR
STARTCHAR 0024
ENCODING 36
SWIDTH 560 0
DWIDTH 42 0
BBX 36 67 3 -9
BITMAP
0000F00000
0000F00000
0000F00000
0000F00000
0001FC0000
001FFFC000
00FFFFF000
01FFFFFC00
07FFFFFE00
0FFFFFFF00
0FF0F0FF00
1FE0F07F80
3F80F03F80
3F80F01FC0
3F00F00FC0
7F00F00FC0
7E00F00FE0
7E00F007E0
7E00F007E0
7E00F00000
7E00F00000
7F00F00000
7F00F00000
3F80F00000
3FC0F00000
3FE0F00000
1FF8F00000
1FFEF00000
0FFFF80000
07FFFF0000
01FFFFE000
00FFFFF800
001FFFFE00
0003FFFF00
0000FFFF80
0000F3FFC0
0000F07FE0
0000F01FE0
0000F00FF0
0000F007F0
0000F007F0
0000F003F0
FC00F003F0
FC00F003F0
FC00F003F0
FC00F003F0
FC00F003F0
FE00F003F0
7E00F007F0
7E00F007E0
7F00F00FE0
3F80F01FE0
3FC0F03FC0
1FF0F07F80
1FFEF7FF80
0FFFFFFF00
03FFFFFC00
01FFFFF800
007FFFE000
0003FC0000
0000F00000
0000F00000
0000F00000
0000F00000
0000F00000
0000F00000
0000F00000
ENDCHAR
STARTCHAR 0025
ENCODING 37
SWIDTH 893 0
DWIDTH 67 0
BBX 62 55 2 -1
BITMAP
00000000000F0000
00000000001F0000
003F8000003E0000
01FFE000003E0000
07FFF800007C0000
0FFFFC00007C0000
1FFFFE0000F80000
1FE1FF0000F80000
3F807F0001F00000
7F003F8001F00000
7E001F8003E00000
7C000F8003C00000
FC000FC007C00000
FC000FC00F800000
F80007C00F800000
F80007C01F000000
FC000FC01F000000
FC000FC03E000000
7C000F803E000000
7E001F807C000000
7F003F807C000000
3F807F00F8000000
3FE1FE00F8000000
1FFFFE01F0000000
0FFFFC01E0000000
07FFF003E0000000
01FFE007C0000000
007F0007C0000000
0000000F80000000
0000000F8003F800
0000001F000FFF00
0000001F003FFF80
0000003E007FFFC0
0000003E00FFFFE0
0000007C01FF1FF0
0000007C01F803F8
000000F803F001F8
000000F003E000FC
000001F007E000FC
000003E007C0007C
000003E007C0007C
000007C007C0007C
000007C007C0007C
00000F8007C0007C
00000F8007C0007C
00001F0007E000FC
00001F0003F000FC
00003E0003F001F8
00003C0001FC03F8
00007C0001FF0FF0
0000F80000FFFFE0
0000F800007FFFC0
0001F000003FFF80
0001F000000FFF00
0003E0000003F800
ENDCHAR
STARTCHAR 0026
ENCODING 38
SWIDTH 666 0
DWIDTH 50 0
BBX 43 55 4 -2
BITMAP
0001FE000000
0007FF800000
001FFFE00000
003FFFF00000
007FFFF80000
00FF8FF80000
01FC01FC0000
01F800FC0000
01F800FE0000
03F0007E0000
03F0007E0000
03F0007E0000
03F0007E0000
03F0007E0000
03F800FE0000
01F800FE0000
01FC01FC0000
01FE03FC0000
00FE07F80000
007F1FF00000
007FBFE00000
003FFFC00000
001FFF000000
000FFE000000
001FF8000000
003FF8000000
00FFFC000000
01FFFE000000
07FEFF007E00
0FF87F007E00
1FF07F807E00
3FC03FC07E00
3F801FE0FE00
7F000FF0FC00
7F0007F8FC00
FE0007F9FC00
FE0003FDF800
FC0001FFF800
FC0000FFF000
FC00007FF000
FC00007FE000
FC00003FE000
FE00001FE000
FE00001FF000
FF00003FF800
7F00007FFC00
7F8000FFFE00
3FE003FFFE00
3FF80FFCFF00
1FFFFFF87F80
0FFFFFF07FC0
07FFFFC03FE0
03FFFF801FE0
00FFFE000000
001FF0000000
ENDCHAR
STARTCHAR 0027
ENCODING 39
SWIDTH 186 0
DWIDTH 14 0
BBX 7 18 4 35
BITMAP
FE
FE
FE
FE
FE
FE
FE
FE
FE
FC
FC
FC
FC
7C
78
78
78
78
ENDCHAR
STARTCHAR 0028
ENCODING 40
SWIDTH 333 0
DWIDTH 25 0
BBX 17 71 5 -16
BITMAP
000F80
000F00
001E00
003E00
003C00
007C00
007800
00F800
01F000
01F000
03F000
03E000
03E000
07C000
07C000
0FC000
0F8000
0F8000
1F8000
1F8000
1F0000
3F0000
3F0000
3F0000
3F0000
7E0000
7E0000
7E0000
7E0000
7E0000
7E0000
7E0000
7E0000
7E0000
FE0000
FE0000
7E0000
7E0000
7E0000
7E0000
7E0000
7E0000
7E0000
7E0000
7E0000
3E0000
3F0000
3F0000
3F0000
3F0000
1F8000
1F8000
1F8000
0F8000
0FC000
0FC000
07C000
07E000
03E000
03E000
01F000
01F000
00F800
00F800
007C00
007C00
003E00
001E00
001F00
000F00
000780
ENDCHAR
STARTCHAR 0029
ENCODING 41
SWIDTH 333 0
DWIDTH 25 0
BBX 16 71 3 -16
BITMAP
F000
7800
7C00
3C00
3E00
1F00
1F00
0F80
0F80
07C0
07C0
03E0
03E0
03F0
01F0
01F0
01F8
00F8
00F8
00FC
00FC
007C
007E
007E
007E
007E
007E
003F
003F
003F
003F
003F
003F
003F
003F
003F
003F
003F
003F
003F
003F
003F
003F
003F
007E
007E
007E
007E
007C
007C
00FC
00FC
00F8
01F8
01F8
01F0
01F0
03E0
03E0
07E0
07C0
07C0
0F80
0F80
1F00
1E00
3E00
3C00
7800
7800
F000
ENDCHAR
STARTCHAR 002A
ENCODING 42
SWIDTH 386 0
DWIDTH 29 0
BBX 23 21 3 33
BITMAP
007C00
007C00
007C00
007C00
007C00
007800
70781C
7E78FC
FFFFFC
FFFFFE
3FFFF8
07FF80
00FE00
01FF00
03FF00
03EF80
07C7C0
0F87E0
1F83F0
0F01E0
0601C0
ENDCHAR
STARTCHAR 002B
ENCODING 43
SWIDTH 586 0
DWIDTH 44 0
BBX 36 37 4 -1
BITMAP
0001F80000
0001F80000
0001F80000
0001F80000
0001F80000
0001F80000
0001F80000
0001F80000
0001F80000
0001F80000
0001F80000
0001F80000
0001F80000
0001F80000
0001F80000
0001F80000
FFFFFFFFF0
FFFFFFFFF0
FFFFFFFFF0
FFFFFFFFF0
FFFFFFFFF0
0001F80000
0001F80000
0001F80000
0001F80000
0001F80000
0001F80000
0001F80000
0001F80000
0001F80000
0001F80000
0001F80000
0001F80000
0001F80000
0001F80000
0001F80000
0001F80000
ENDCHAR
STARTCHAR 002C
ENCODING 44
SWIDTH 280 0
DWIDTH 21 0
BBX 7 19 7 -11
BITMAP
FE
FE
FE
FE
FE
FE
FE
FE
0E
0E
0E
0E
0E
0E
1E
3C
F8
F0
E0
ENDCHAR
STARTCHAR 002D
ENCODING 45
SWIDTH 333 0
DWIDTH 25 0
BBX 18 5 3 18
BITMAP
FFFFC0
FFFFC0
FFFFC0
FFFFC0
FFFFC0
ENDCHAR
STARTCHAR 002E
ENCODING 46
SWIDTH 280 0
DWIDTH 21 0
BBX 7 8 7 0
BITMAP
FE
FE
FE
FE
FE
FE
FE
FE
ENDCHAR
STARTCHAR 002F
ENCODING 47
SWIDTH 280 0
DWIDTH 21 0
BBX 21 56 0 -1
BITMAP
000078
000078
0000F8
0000F0
0000F0
0001F0
0001E0
0001E0
0003E0
0003C0
0003C0
0003C0
000780
000780
000780
000F00
000F00
000F00
001E00
001E00
001E00
003C00
003C00
003C00
007C00
007800
007800
00F800
00F000
00F000
01F000
01E000
01E000
01E000
03C000
03C000
03C000
078000
078000
078000
0F0000
0F0000
0F0000
1E0000
1E0000
1E0000
3E0000
3C0000
3C0000
7C0000
780000
780000
780000
F00000
F00000
F00000
ENDCHAR
STARTCHAR 0030
ENCODING 48
SWIDTH 560 0
DWIDTH 42 0
BBX 35 56 3 -2
BITMAP
0003FC0000
001FFF0000
007FFFC000
00FFFFF000
01FFFFF800
03FFFFFC00
07FC07FC00
0FF801FE00
0FF000FE00
1FE0007F00
1FC0007F00
1FC0003F80
3F80003F80
3F80001F80
3F00001FC0
7F00001FC0
7F00001FC0
7F00001FC0
7F00000FC0
7F00000FE0
7E00000FE0
7E00000FE0
FE00000FE0
FE00000FE0
FE00000FE0
FE00000FE0
FE00000FE0
FE00000FE0
FE00000FE0
FE00000FE0
FE00000FE0
FE00000FE0
FE00000FE0
FE00000FE0
FE00000FE0
7E00000FE0
7F00000FE0
7F00000FC0
7F00000FC0
7F00001FC0
7F00001FC0
3F00001FC0
3F80001F80
3F80003F80
1F80003F80
1FC0007F00
1FE0007F00
0FE000FE00
0FF001FE00
07FC03FC00
03FFBFF800
01FFFFF800
00FFFFF000
007FFFC000
001FFF8000
0007FC0000
ENDCHAR
STARTCHAR 0031
ENCODING 49
SWIDTH 560 0
DWIDTH 42 0
BBX 18 54 8 0
BITMAP
0007C0
0007C0
0007C0
0007C0
000FC0
000FC0
001FC0
003FC0
007FC0
03FFC0
FFFFC0
FFFFC0
FFFFC0
FFFFC0
FFFFC0
001FC0
001FC0
001FC0
001FC0
001FC0
001FC0
001FC0
001FC0
001FC0
001FC0
001FC0
001FC0
001FC0
001FC0
001FC0
001FC0
001FC0
001FC0
001FC0
001FC0
001FC0
001FC0
001FC0
001FC0
001FC0
001FC0
001FC0
001FC0
001FC0
001FC0
001FC0
001FC0
001FC0
001FC0
001FC0
001FC0
001FC0
001FC0
001FC0
ENDCHAR
STARTCHAR 0032
ENCODING 50
SWIDTH 560 0
DWIDTH 42 0
BBX 35 54 3 0
BITMAP
0007FE0000
003FFFC000
00FFFFF000
01FFFFFC00
03FFFFFE00
07FFFFFF00
0FFC03FF00
1FF000FF80
1FE0007FC0
3FC0003FC0
3F80001FC0
3F80000FE0
7F00000FE0
7F00000FE0
7F00000FE0
7F000007E0
7F000007E0
7E00000FE0
7E00000FE0
0000000FE0
0000000FE0
0000001FC0
0000003FC0
0000003F80
0000007F80
000001FF00
000003FE00
00000FFC00
00003FF800
00007FF000
0001FFE000
0007FF8000
000FFE0000
003FFC0000
007FF00000
01FFC00000
03FF000000
07FE000000
0FF8000000
0FF0000000
1FE0000000
3FC0000000
3F80000000
3F00000000
7F00000000
7E00000000
7E00000000
FE00000000
FFFFFFFFE0
FFFFFFFFE0
FFFFFFFFE0
FFFFFFFFE0
FFFFFFFFE0
FFFFFFFFE0
ENDCHAR
STARTCHAR 0033
ENCODING 51
SWIDTH 560 0
DWIDTH 42 0
BBX 36 56 2 -2
BITMAP
0007FE0000
003FFFC000
00FFFFF000
01FFFFFC00
03FFFFFE00
07FFFFFF00
0FFC03FF00
0FF000FF80
1FE0007F80
1FC0003FC0
1F80001FC0
3F80001FC0
3F80001FC0
3F00000FC0
3F00000FC0
3F00000FC0
3F00000FC0
3F00001FC0
0000001FC0
0000001FC0
0000003F80
0000007F80
000000FF00
00001FFE00
0001FFFC00
0001FFF000
0001FFF000
0001FFFC00
0001FFFF00
000007FF80
000000FFC0
0000003FC0
0000001FE0
0000000FE0
0000000FE0
00000007F0
00000007F0
00000007F0
00000007F0
FE000007F0
7E000007F0
7E000007F0
7F000007F0
7F000007E0
7F00000FE0
3F80000FE0
3F80001FE0
3FC0003FC0
1FF0007F80
0FFC01FF80
0FFFFFFF00
07FFFFFE00
03FFFFFC00
00FFFFF000
003FFFC000
0007FE0000
ENDCHAR
STARTCHAR 0034
ENCODING 52
SWIDTH 560 0
DWIDTH 42 0
BBX 37 54 2 0
BITMAP
000000F800
000001F800
000003F800
000003F800
000007F800
00000FF800
00000FF800
00001FF800
00003FF800
00007FF800
00007FF800
0000FDF800
0001FDF800
0001F9F800
0003F1F800
0007E1F800
000FE1F800
000FC1F800
001F81F800
003F81F800
003F01F800
007E01F800
00FE01F800
01FC01F800
01F801F800
03F001F800
07F001F800
07E001F800
0FC001F800
1FC001F800
1F8001F800
3F0001F800
7F0001F800
FE0001F800
FC0001F800
FFFFFFFFF8
FFFFFFFFF8
FFFFFFFFF8
FFFFFFFFF8
FFFFFFFFF8
FFFFFFFFF8
000001F800
000001F800
000001F800
000001F800
000001F800
000001F800
000001F800
000001F800
000001F800
000001F800
000001F800
000001F800
000001F800
ENDCHAR
STARTCHAR 0035
ENCODING 53
SWIDTH 560 0
DWIDTH 42 0
BBX 35 55 3 -2
BITMAP
07FFFFFF80
07FFFFFF80
07FFFFFF80
07FFFFFF80
07FFFFFF80
0FFFFFFF80
0FFFFFFF80
0FC0000000
0FC0000000
0FC0000000
0FC0000000
0FC0000000
0FC0000000
1FC0000000
1F80000000
1F80000000
1F80000000
1F80000000
1F81FC0000
1F8FFFC000
3FBFFFF000
3FFFFFF800
3FFFFFFC00
3FFFFFFE00
3FF807FF00
3FE001FF80
3FC0007F80
7F80003FC0
7F00003FC0
0000001FE0
0000000FE0
0000000FE0
0000000FE0
0000000FE0
00000007E0
00000007E0
00000007E0
00000007E0
00000007E0
00000007E0
FC00000FE0
FE00000FE0
FE00000FE0
FF00001FC0
7F00001FC0
7F80003F80
7FC0007F80
3FE000FF00
1FF807FE00
0FFFFFFE00
07FFFFFC00
03FFFFF000
01FFFFE000
007FFF8000
000FFC0000
ENDCHAR
STARTCHAR 0036
ENCODING 54
SWIDTH 560 0
DWIDTH 42 0
BBX 35 56 3 -2
BITMAP
0001FE0000
000FFFC000
003FFFF000
007FFFF800
00FFFFFC00
01FFFFFE00
03FE03FF00
07F800FF00
07F0007F80
0FE0003F80
0FE0003FC0
1FC0001FC0
1F80001FC0
3F80000FC0
3F80000000
3F00000000
3F00000000
7F00000000
7F00000000
7F00000000
7E00000000
7E01FE0000
7E0FFFC000
FE1FFFF000
FE7FFFFC00
FEFFFFFE00
FFFFFFFF00
FFFC03FF00
FFF000FF80
FFE0007FC0
FFC0003FC0
FF80001FC0
FF80000FE0
FF00000FE0
FF00000FE0
FF00000FE0
7E000007E0
7E000007E0
7E000007E0
7E000007E0
7F000007E0
7F00000FE0
3F00000FE0
3F00000FE0
3F80001FC0
1FC0001FC0
1FC0003FC0
0FE0007F80
0FF800FF00
07FE03FF00
03FFFFFE00
03FFFFFC00
00FFFFF800
007FFFE000
001FFF8000
0003FC0000
ENDCHAR
STARTCHAR 0037
ENCODING 55
SWIDTH 560 0
DWIDTH 42 0
BBX 36 53 3 0
BITMAP
FFFFFFFFF0
FFFFFFFFF0
FFFFFFFFF0
FFFFFFFFF0
FFFFFFFFF0
FFFFFFFFF0
FFFFFFFFE0
00000007E0
0000000FC0
0000001F80
0000003F00
0000003F00
0000007E00
000000FC00
000000FC00
000001F800
000001F000
000003F000
000007E000
000007E000
00000FC000
00000FC000
00001F8000
00003F0000
00003F0000
00007E0000
00007E0000
0000FC0000
0000FC0000
0001FC0000
0001F80000
0003F80000
0003F00000
0007F00000
0007E00000
0007E00000
000FE00000
000FC00000
000FC00000
001FC00000
001F800000
001F800000
003F800000
003F800000
003F000000
007F000000
007F000000
007F000000
00FE000000
00FE000000
00FE000000
00FE000000
01FE000000
ENDCHAR
STARTCHAR 0038
ENCODING 56
SWIDTH 560 0
DWIDTH 42 0
BBX 35 56 3 -2
BITMAP
0007FC0000
003FFF8000
00FFFFE000
01FFFFF800
03FFFFFC00
07FFFFFE00
0FFC07FE00
1FF001FF00
1FE0007F00
1FC0007F80
3F80003F80
3F80003F80
3F80001FC0
3F00001FC0
3F00001FC0
3F00001FC0
3F80001F80
3F80003F80
3F80003F80
1FC0007F80
1FE0007F00
0FF001FE00
07FC07FC00
03FFFFF800
01FFFFF000
007FFFC000
01FFFFF000
03FFFFFC00
07FFFFFE00
1FF803FF00
1FE000FF80
3FC0003F80
7F80003FC0
7F00001FC0
FF00000FE0
FE00000FE0
FE00000FE0
FE000007E0
FE000007E0
FE000007E0
FE000007E0
FE000007E0
FE00000FE0
FE00000FE0
7F00000FE0
7F00001FC0
7F80003FC0
3FC0007F80
3FE000FF80
1FFC03FF00
0FFFFFFE00
07FFFFFC00
03FFFFF800
00FFFFE000
003FFF8000
0007FC0000
ENDCHAR
STARTCHAR 0039
ENCODING 57
SWIDTH 560 0
DWIDTH 42 0
BBX 35 56 3 -2
BITMAP
0007FC0000
003FFF8000
00FFFFE000
01FFFFF000
07FFFFF800
0FFFFFFC00
0FF807FE00
1FE001FE00
3FC000FF00
3F80007F00
7F80003F80
7F00003F80
7F00001F80
FE00001FC0
FE00000FC0
FE00000FC0
FE00000FC0
FE00000FE0
FE00000FE0
FE00000FE0
FE00000FE0
FE00000FE0
FE00001FE0
7F00001FE0
7F00003FE0
7F80007FE0
3FC000FFE0
3FE001FFE0
1FF807FFE0
0FFFFFFFE0
07FFFFEFE0
03FFFFCFE0
01FFFF8FE0
007FFE0FE0
000FF00FE0
0000000FE0
0000000FE0
0000000FC0
0000001FC0
0000001FC0
0000001FC0
0000001F80
7F00003F80
7F00003F80
3F00007F00
3F80007F00
3FC000FE00
1FC001FE00
1FE003FC00
0FF80FF800
0FFFFFF800
07FFFFF000
03FFFFC000
01FFFF8000
007FFE0000
000FF00000
ENDCHAR
STARTCHAR 003A
ENCODING 58
SWIDTH 280 0
DWIDTH 21 0
BBX 8 39 8 0
BITMAP
FF
FF
FF
FF
FF
FF
FF
FF
00
00
00
00
00
00
00
00
00
00
00
00
00
00
00
00
00
00
00
00
00
00
00
FF
FF
FF
FF
FF
FF
FF
FF
ENDCHAR
STARTCHAR 003B
ENCODING 59
SWIDTH 280 0
DWIDTH 21 0
BBX 8 50 8 -11
BITMAP
FF
FF
FF
FF
FF
FF
FF
FF
00
00
00
00
00
00
00
00
00
00
00
00
00
00
00
00
00
00
00
00
00
00
00
FF
FF
FF
FF
FF
FF
FF
FF
07
07
07
07
07
0F
0E
1E
FC
F8
E0
ENDCHAR
STARTCHAR 003C
ENCODING 60
SWIDTH 586 0
DWIDTH 44 0
BBX 37 36 3 -1
BITMAP
0000000018
0000000078
00000001F8
0000000FF8
0000003FF8
000000FFF8
000007FFE0
00001FFF80
0000FFFC00
0003FFF000
000FFF8000
007FFE0000
01FFF00000
07FFC00000
3FFF000000
FFF8000000
FFE0000000
FF00000000
FF80000000
FFF0000000
FFFC000000
1FFF000000
07FFE00000
01FFF80000
003FFF0000
000FFFC000
0001FFF000
00007FFE00
00001FFF80
000003FFF0
000000FFF8
0000003FF8
00000007F8
00000001F8
0000000078
0000000008
ENDCHAR
STARTCHAR 003D
ENCODING 61
SWIDTH 586 0
DWIDTH 44 0
BBX 36 18 4 8
BITMAP
FFFFFFFFF0
FFFFFFFFF0
FFFFFFFFF0
FFFFFFFFF0
FFFFFFFFF0
0000000000
0000000000
0000000000
0000000000
0000000000
0000000000
0000000000
0000000000
FFFFFFFFF0
FFFFFFFFF0
FFFFFFFFF0
FFFFFFFFF0
FFFFFFFFF0
ENDCHAR
STARTCHAR 003E
ENCODING 62
SWIDTH 586 0
DWIDTH 44 0
BBX 36 36 4 -1
BITMAP
8000000000
F000000000
FC00000000
FF80000000
FFE0000000
FFF8000000
3FFF000000
0FFFC00000
03FFF00000
007FFE0000
001FFF8000
0003FFE000
0000FFFC00
00003FFF00
000007FFE0
000001FFF0
0000003FF0
0000000FF0
0000000FF0
0000003FF0
000001FFF0
000007FFC0
00003FFF00
0000FFF800
0007FFE000
001FFF8000
007FFC0000
03FFF00000
0FFF800000
7FFE000000
FFF8000000
FFC0000000
FF00000000
FC00000000
E000000000
8000000000
ENDCHAR
STARTCHAR 003F
ENCODING 63
SWIDTH 560 0
DWIDTH 42 0
BBX 32 56 6 0
BITMAP
001FF800
00FFFF00
03FFFFC0
07FFFFE0
0FFFFFF0
1FFFFFF8
3FF00FFC
3FC003FE
7F8001FE
7F0000FE
7E00007F
FE00007F
FE00007F
FC00007F
FC00007F
FC00007F
FC00007F
FC00007F
0000007F
000000FE
000000FE
000001FC
000003FC
000007F8
00000FF0
00001FE0
00003FC0
00007F80
0000FF00
0001FE00
0003FC00
0007F800
0007F000
000FF000
000FE000
000FE000
000FE000
000FE000
000FE000
000FE000
000FE000
00000000
00000000
00000000
00000000
00000000
00000000
00000000
000FE000
000FE000
000FE000
000FE000
000FE000
000FE000
000FE000
000FE000
ENDCHAR
STARTCHAR 0040
ENCODING 64
SWIDTH 1013 0
DWIDTH 76 0
BBX 68 67 3 -11
BITMAP
00000001FFC0000000
0000003FFFFE000000
000001FFFFFFC00000
000007FFFFFFF00000
00001FFFFFFFFC0000
00007FFFFFFFFE0000
0001FFF8003FFF8000
0003FFC00007FFC000
0007FE000000FFE000
000FF80000003FF000
003FF00000001FF800
007FC000000007FC00
007F8000000003FE00
00FF0000000001FF00
01FE0000000000FF00
03FC00000000007F80
03F800003C00003FC0
07F00003FF80003FC0
0FE0000FFFC1F81FC0
0FE0003FFFE3F81FE0
1FC0007FFFF3F00FE0
1F8000FF83FBF00FF0
3F8001FE00FFF007F0
3F8003F8007FE007F0
3F0007F0003FE007F0
7F000FF0003FE003F0
7E000FE0001FC003F0
7E001FC0001FC003F0
7E001FC0001FC003F0
FE003F80001F8003F0
FC003F80001F8003F0
FC003F00003F8003F0
FC007F00003F8003F0
FC007F00003F0007F0
FC007F00003F0007E0
FC007F00007F0007E0
FC007F00007E000FE0
FC007F00007E000FC0
FC007F0000FE000FC0
FC007F0000FC001FC0
FC007F0001FC003F80
FE007F0001FC003F80
FE003F8003FC007F00
FE003FC007F800FE00
7F001FE00FFC01FC00
7F001FF03FFC03FC00
7F800FFFFEFF1FF800
3F8007FFFCFFFFF000
3FC003FFF07FFFE000
1FC001FFE07FFF8000
1FE0003F003FFE0000
0FF00000000FF00000
07F800000000000000
07FC00000000000000
03FE00000000000000
01FF00000000000000
00FFC0000000000000
007FF0000000000000
003FFC000000000000
001FFF000007800000
0007FFF000FF800000
0003FFFFFFFFC00000
0000FFFFFFFFC00000
00003FFFFFFFE00000
00000FFFFFFF000000
000000FFFFF0000000
00000007FC00000000
ENDCHAR
STARTCHAR 0041
ENCODING 65
SWIDTH 666 0
DWIDTH 50 0
BBX 48 55 1 0
BITMAP
00000FF80000
00001FF80000
00001FFC0000
00001FFC0000
00003FFC0000
00003FFE0000
00007FFE0000
00007FFE0000
00007FFF0000
0000FF7F0000
0000FE7F0000
0000FE7F8000
0001FC3F8000
0001FC3F8000
0001FC3FC000
0003F81FC000
0003F81FE000
0003F81FE000
0007F00FE000
0007F00FF000
0007F00FF000
000FE007F000
000FE007F800
001FE007F800
001FC003F800
001FC003FC00
003F8003FC00
003F8001FC00
003F8001FE00
007F0001FE00
007F0000FE00
007F0000FF00
00FE0000FF00
00FFFFFFFF00
00FFFFFFFF80
01FFFFFFFF80
01FFFFFFFFC0
03FFFFFFFFC0
03FFFFFFFFC0
03F800001FE0
07F800001FE0
07F800001FE0
07F000000FF0
0FF000000FF0
0FE000000FF0
0FE0000007F8
1FE0000007F8
1FC0000003F8
1FC0000003FC
3FC0000003FC
3F80000001FC
3F80000001FE
7F80000001FE
7F00000000FE
FF00000000FF
ENDCHAR
STARTCHAR 0042
ENCODING 66
SWIDTH 666 0
DWIDTH 50 0
BBX 41 55 6 0
BITMAP
FFFFFFE00000
FFFFFFFC0000
FFFFFFFF0000
FFFFFFFFC000
FFFFFFFFE000
FFFFFFFFF000
FE0000FFF000
FE00001FF800
FE000007F800
FE000003FC00
FE000003FC00
FE000001FC00
FE000001FC00
FE000001FC00
FE000001FC00
FE000001FC00
FE000001FC00
FE000001FC00
FE000001FC00
FE000003F800
FE000003F800
FE000007F000
FE00001FF000
FE0000FFE000
FFFFFFFF8000
FFFFFFFF0000
FFFFFFFF0000
FFFFFFFFC000
FFFFFFFFE000
FFFFFFFFF800
FE00001FFC00
FE000003FE00
FE000001FE00
FE000000FF00
FE0000007F00
FE0000007F00
FE0000007F80
FE0000003F80
FE0000003F80
FE0000003F80
FE0000003F80
FE0000003F80
FE0000007F00
FE0000007F00
FE0000007F00
FE000000FF00
FE000001FE00
FE000003FE00
FE00001FFC00
FFFFFFFFF800
FFFFFFFFF000
FFFFFFFFE000
FFFFFFFFC000
FFFFFFFF0000
FFFFFFF80000
ENDCHAR
STARTCHAR 0043
ENCODING 67
SWIDTH 720 0
DWIDTH 54 0
BBX 47 58 4 -2
BITMAP
00001FFC0000
0001FFFFC000
0007FFFFF000
001FFFFFFC00
003FFFFFFE00
007FFFFFFF00
00FFF01FFF80
01FF8001FFC0
03FE00007FC0
07FC00003FE0
07F800001FE0
0FF000000FF0
1FE0000007F0
1FC0000007F8
3FC0000003F8
3F80000003F8
3F80000003F8
7F00000003FC
7F0000000000
7F0000000000
7F0000000000
FE0000000000
FE0000000000
FE0000000000
FE0000000000
FE0000000000
FE0000000000
FE0000000000
FE0000000000
FE0000000000
FE0000000000
FE0000000000
FE0000000000
FE0000000000
FE0000000000
FE0000000000
FE00000000FE
FF00000001FE
7F00000001FC
7F00000001FC
7F80000001FC
3F80000003FC
3F80000003FC
3FC0000003F8
1FE0000007F8
1FE0000007F8
0FF000000FF0
0FF800001FF0
07FC00003FE0
03FF00007FC0
03FFC001FFC0
01FFF80FFF80
00FFFFFFFF00
003FFFFFFE00
001FFFFFF800
0007FFFFF000
0001FFFFC000
00001FFC0000
ENDCHAR
STARTCHAR 0044
ENCODING 68
SWIDTH 720 0
DWIDTH 54 0
BBX 43 55 7 0
BITMAP
FFFFFFC00000
FFFFFFF80000
FFFFFFFE0000
FFFFFFFF8000
FFFFFFFFC000
FFFFFFFFE000
FE0001FFF000
FE00001FF800
FE00000FFC00
FE000003FE00
FE000001FE00
FE000000FF00
FE000000FF00
FE0000007F80
FE0000003F80
FE0000003F80
FE0000003FC0
FE0000001FC0
FE0000001FC0
FE0000001FC0
FE0000001FE0
FE0000000FE0
FE0000000FE0
FE0000000FE0
FE0000000FE0
FE0000000FE0
FE0000000FE0
FE0000000FE0
FE0000000FE0
FE0000000FE0
FE0000000FE0
FE0000000FE0
FE0000000FE0
FE0000000FE0
FE0000000FE0
FE0000001FC0
FE0000001FC0
FE0000001FC0
FE0000001FC0
FE0000003F80
FE0000003F80
FE0000007F80
FE0000007F00
FE000000FF00
FE000001FE00
FE000003FE00
FE000007FC00
FE00001FF800
FE0000FFF000
FFFFFFFFE000
FFFFFFFFC000
FFFFFFFF8000
FFFFFFFE0000
FFFFFFF80000
FFFFFFC00000
ENDCHAR
STARTCHAR 0045
ENCODING 69
SWIDTH 666 0
DWIDTH 50 0
BBX 39 55 7 0
BITMAP
FFFFFFFFFC
FFFFFFFFFC
FFFFFFFFFC
FFFFFFFFFC
FFFFFFFFFC
FFFFFFFFFC
FE00000000
FE00000000
FE00000000
FE00000000
FE00000000
FE00000000
FE00000000
FE00000000
FE00000000
FE00000000
FE00000000
FE00000000
FE00000000
FE00000000
FE00000000
FE00000000
FE00000000
FE00000000
FFFFFFFFF0
FFFFFFFFF0
FFFFFFFFF0
FFFFFFFFF0
FFFFFFFFF0
FFFFFFFFF0
FE00000000
FE00000000
FE00000000
FE00000000
FE00000000
FE00000000
FE00000000
FE00000000
FE00000000
FE00000000
FE00000000
FE00000000
FE00000000
FE00000000
FE00000000
FE00000000
FE00000000
FE00000000
FE00000000
FFFFFFFFFE
FFFFFFFFFE
FFFFFFFFFE
FFFFFFFFFE
FFFFFFFFFE
FFFFFFFFFE
ENDCHAR
STARTCHAR 0046
ENCODING 70
SWIDTH 613 0
DWIDTH 46 0
BBX 36 55 7 0
BITMAP
FFFFFFFFF0
FFFFFFFFF0
FFFFFFFFF0
FFFFFFFFF0
FFFFFFFFF0
FFFFFFFFF0
FE00000000
FE00000000
FE00000000
FE00000000
FE00000000
FE00000000
FE00000000
FE00000000
FE00000000
FE00000000
FE00000000
FE00000000
FE00000000
FE00000000
FE00000000
FE00000000
FE00000000
FE00000000
FFFFFFFF80
FFFFFFFF80
FFFFFFFF80
FFFFFFFF80
FFFFFFFF80
FFFFFFFF80
FE00000000
FE00000000
FE00000000
FE00000000
FE00000000
FE00000000
FE00000000
FE00000000
FE00000000
FE00000000
FE00000000
FE00000000
FE00000000
FE00000000
FE00000000
FE00000000
FE00000000
FE00000000
FE00000000
FE00000000
FE00000000
FE00000000
FE00000000
FE00000000
FE00000000
ENDCHAR
STARTCHAR 0047
ENCODING 71
SWIDTH 773 0
DWIDTH 58 0
BBX 50 58 3 -2
BITMAP
000007FF000000
00007FFFF00000
0001FFFFFE0000
0007FFFFFF0000
001FFFFFFFC000
003FFFFFFFE000
007FFE03FFF000
00FFE0003FF800
01FF80000FFC00
03FF000007FC00
03FC000003FE00
07F8000001FF00
0FF0000000FF00
0FF00000007F00
1FE00000007F80
1FC00000003F80
3FC00000003F80
3F800000003F80
3F800000000000
3F800000000000
7F000000000000
7F000000000000
7F000000000000
7F000000000000
7F000000000000
FE000000000000
FE000000000000
FE00001FFFFFC0
FE00001FFFFFC0
FE00001FFFFFC0
FE00001FFFFFC0
FE00001FFFFFC0
FF00001FFFFFC0
7F000000000FC0
7F000000000FC0
7F000000000FC0
7F000000000FC0
7F800000000FC0
7F800000000FC0
3F800000001FC0
3FC00000001FC0
3FC00000001FC0
1FE00000003FC0
1FE00000003FC0
0FF00000007FC0
0FF80000007FC0
07F8000000FFC0
07FC000001FFC0
03FF000003FFC0
01FF80000FFFC0
00FFE0003FEFC0
007FFE01FFC7C0
003FFFFFFF87C0
001FFFFFFE07C0
0007FFFFFC07C0
0003FFFFF007C0
00007FFFC003C0
00000FFC000000
ENDCHAR
STARTCHAR 0048
ENCODING 72
SWIDTH 720 0
DWIDTH 54 0
BBX 42 55 6 0
BITMAP
FE0000001FC0
FE0000001FC0
FE0000001FC0
FE0000001FC0
FE0000001FC0
FE0000001FC0
FE0000001FC0
FE0000001FC0
FE0000001FC0
FE0000001FC0
FE0000001FC0
FE0000001FC0
FE0000001FC0
FE0000001FC0
FE0000001FC0
FE0000001FC0
FE0000001FC0
FE0000001FC0
FE0000001FC0
FE0000001FC0
FE0000001FC0
FE0000001FC0
FE0000001FC0
FE0000001FC0
FFFFFFFFFFC0
FFFFFFFFFFC0
FFFFFFFFFFC0
FFFFFFFFFFC0
FFFFFFFFFFC0
FFFFFFFFFFC0
FE0000001FC0
FE0000001FC0
FE0000001FC0
FE0000001FC0
FE0000001FC0
FE0000001FC0
FE0000001FC0
FE0000001FC0
FE0000001FC0
FE0000001FC0
FE0000001FC0
FE0000001FC0
FE0000001FC0
FE0000001FC0
FE0000001FC0
FE0000001FC0
FE0000001FC0
FE0000001FC0
FE0000001FC0
FE0000001FC0
FE0000001FC0
FE0000001FC0
FE0000001FC0
FE0000001FC0
FE0000001FC0
ENDCHAR
STARTCHAR 0049
ENCODING 73
SWIDTH 280 0
DWIDTH 21 0
BBX 8 55 7 0
BITMAP
FF
FF
FF
FF
FF
FF
FF
FF
FF
FF
FF
FF
FF
FF
FF
FF
FF
FF
FF
FF
FF
FF
FF
FF
FF
FF
FF
FF
FF
FF
FF
FF
FF
FF
FF
FF
FF
FF
FF
FF
FF
FF
FF
FF
FF
FF
FF
FF
FF
FF
FF
FF
FF
FF
FF
ENDCHAR
STARTCHAR 004A
ENCODING 74
SWIDTH 506 0
DWIDTH 38 0
BBX 31 57 1 -2
BITMAP
000000FE
000000FE
000000FE
000000FE
000000FE
000000FE
000000FE
000000FE
000000FE
000000FE
000000FE
000000FE
000000FE
000000FE
000000FE
000000FE
000000FE
000000FE
000000FE
000000FE
000000FE
000000FE
000000FE
000000FE
000000FE
000000FE
000000FE
000000FE
000000FE
000000FE
000000FE
000000FE
000000FE
000000FE
000000FE
000000FE
000000FE
000000FE
FE0000FE
FE0000FE
FE0000FE
FE0000FE
FE0000FE
FF0000FE
FF0000FE
7F0001FE
7F0001FC
7F8003FC
7F8003FC
3FE007F8
3FF01FF8
1FFFFFF0
0FFFFFE0
07FFFFC0
03FFFF80
00FFFE00
001FF000
ENDCHAR
STARTCHAR 004B
ENCODING 75
SWIDTH 666 0
DWIDTH 50 0
BBX 43 55 6 0
BITMAP
FE0000003FE0
FE0000007FC0
FE000000FF80
FE000001FF00
FE000003FE00
FE000007FC00
FE00000FF800
FE00001FF000
FE00003FE000
FE00007FC000
FE0000FF8000
FE0001FF0000
FE0003FE0000
FE0007FC0000
FE000FF80000
FE001FF00000
FE003FE00000
FE007FC00000
FE00FF800000
FE01FF000000
FE03FE000000
FE07FC000000
FE0FF8000000
FE1FFC000000
FE3FFC000000
FE7FFE000000
FEFFFF000000
FFFEFF000000
FFFC7F800000
FFF83FC00000
FFF03FC00000
FFE01FE00000
FFC00FF00000
FF800FF80000
FF0007F80000
FE0003FC0000
FE0003FE0000
FE0001FE0000
FE0000FF0000
FE0000FF8000
FE00007F8000
FE00003FC000
FE00001FE000
FE00001FE000
FE00000FF000
FE000007F800
FE000007F800
FE000003FC00
FE000001FE00
FE000001FF00
FE000000FF00
FE0000007F80
FE0000007FC0
FE0000003FC0
FE0000001FE0
ENDCHAR
STARTCHAR 004C
ENCODING 76
SWIDTH 560 0
DWIDTH 42 0
BBX 34 55 6 0
BITMAP
FE00000000
FE00000000
FE00000000
FE00000000
FE00000000
FE00000000
FE00000000
FE00000000
FE00000000
FE00000000
FE00000000
FE00000000
FE00000000
FE00000000
FE00000000
FE00000000
FE00000000
FE00000000
FE00000000
FE00000000
FE00000000
FE00000000
FE00000000
FE00000000
FE00000000
FE00000000
FE00000000
FE00000000
FE00000000
FE00000000
FE00000000
FE00000000
FE00000000
FE00000000
FE00000000
FE00000000
FE00000000
FE00000000
FE00000000
FE00000000
FE00000000
FE00000000
FE00000000
FE00000000
FE00000000
FE00000000
FE00000000
FE00000000
FE00000000
FFFFFFFFC0
FFFFFFFFC0
FFFFFFFFC0
FFFFFFFFC0
FFFFFFFFC0
FFFFFFFFC0
ENDCHAR
STARTCHAR 004D
ENCODING 77
SWIDTH 826 0
DWIDTH 62 0
BBX 51 55 6 0
BITMAP
FF800000007FE0
FFC00000007FE0
FFC00000007FE0
FFC0000000FFE0
FFE0000000FFE0
FFE0000000FFE0
FFF0000001FFE0
FFF0000001FFE0
FFF0000001FFE0
FFF8000003FFE0
FDF8000003FFE0
FDF8000003FFE0
FDFC000007EFE0
FCFC000007EFE0
FCFC000007EFE0
FCFE00000FCFE0
FC7E00000FCFE0
FC7E00000FCFE0
FC7F00001F8FE0
FC3F00001F8FE0
FC3F00001F8FE0
FC3F80003F0FE0
FC1F80003F0FE0
FC1F80003F0FE0
FC1FC0007E0FE0
FC0FC0007E0FE0
FC0FC0007E0FE0
FC0FE000FC0FE0
FC07E000FC0FE0
FC07E000FC0FE0
FC07F001F80FE0
FC03F001F80FE0
FC03F001F80FE0
FC03F803F00FE0
FC01F803F00FE0
FC01F803F00FE0
FC01FC07E00FE0
FC00FC07E00FE0
FC00FC07E00FE0
FC007E0FC00FE0
FC007E0FC00FE0
FC007E0FC00FE0
FC003F1F800FE0
FC003F1F800FE0
FC003F1F800FE0
FC001FBF000FE0
FC001FBF000FE0
FC001FBF000FE0
FC000FFE000FE0
FC000FFE000FE0
FC000FFE000FE0
FC0007FC000FE0
FC0007FC000FE0
FC0007FC000FE0
FC0003F8000FE0
ENDCHAR
STARTCHAR 004E
ENCODING 78
SWIDTH 720 0
DWIDTH 54 0
BBX 42 55 6 0
BITMAP
FF0000000FC0
FF0000000FC0
FF8000000FC0
FF8000000FC0
FFC000000FC0
FFE000000FC0
FFE000000FC0
FFF000000FC0
FFF800000FC0
FFF800000FC0
FFFC00000FC0
FDFE00000FC0
FCFE00000FC0
FCFF00000FC0
FC7F00000FC0
FC7F80000FC0
FC3FC0000FC0
FC1FC0000FC0
FC1FE0000FC0
FC0FF0000FC0
FC07F0000FC0
FC07F8000FC0
FC03FC000FC0
FC01FC000FC0
FC01FE000FC0
FC00FE000FC0
FC00FF000FC0
FC007F800FC0
FC003F800FC0
FC003FC00FC0
FC001FE00FC0
FC000FE00FC0
FC000FF00FC0
FC0007F80FC0
FC0003F80FC0
FC0003FC0FC0
FC0001FC0FC0
FC0001FE0FC0
FC0000FF0FC0
FC00007F0FC0
FC00007F8FC0
FC00003FCFC0
FC00001FCFC0
FC00001FEFC0
FC00000FFFC0
FC000007FFC0
FC000007FFC0
FC000003FFC0
FC000003FFC0
FC000001FFC0
FC000000FFC0
FC000000FFC0
FC0000007FC0
FC0000003FC0
FC0000003FC0
ENDCHAR
STARTCHAR 004F
ENCODING 79
SWIDTH 773 0
DWIDTH 58 0
BBX 53 58 3 -2
BITMAP
000007FF000000
00007FFFF00000
0001FFFFFC0000
0007FFFFFF0000
001FFFFFFFC000
003FFFFFFFE000
007FFE03FFF000
00FFE0007FF800
01FF80000FFC00
03FE000007FE00
07FC000003FE00
07F8000001FF00
0FF0000000FF80
1FE00000007F80
1FE00000003FC0
3FC00000003FC0
3FC00000001FE0
3F800000001FE0
7F800000000FE0
7F000000000FE0
7F0000000007F0
7F0000000007F0
FF0000000007F0
FE0000000007F0
FE0000000007F0
FE0000000007F8
FE0000000003F8
FE0000000003F8
FE0000000003F8
FE0000000003F8
FE0000000003F8
FE0000000003F8
FE0000000003F8
FE0000000007F0
FE0000000007F0
FF0000000007F0
7F0000000007F0
7F0000000007F0
7F000000000FE0
7F800000000FE0
3F800000000FE0
3FC00000001FC0
3FC00000001FC0
1FE00000003FC0
1FE00000007F80
0FF0000000FF80
0FF8000000FF00
07FC000001FE00
03FE000007FE00
01FF80000FFC00
00FFE0003FF800
007FFE03FFF000
003FFFFFFFE000
001FFFFFFFC000
0007FFFFFF0000
0003FFFFFC0000
00007FFFF00000
000007FF000000
ENDCHAR
STARTCHAR 0050
ENCODING 80
SWIDTH 666 0
DWIDTH 50 0
BBX 39 55 7 0
BITMAP
FFFFFFF000
FFFFFFFE00
FFFFFFFF80
FFFFFFFFC0
FFFFFFFFE0
FFFFFFFFF0
FE00007FF8
FE00001FF8
FE000007FC
FE000003FC
FE000001FE
FE000001FE
FE000001FE
FE000000FE
FE000000FE
FE000000FE
FE000000FE
FE000000FE
FE000000FE
FE000000FE
FE000001FE
FE000001FE
FE000003FC
FE000007FC
FE00001FF8
FE00007FF8
FFFFFFFFF0
FFFFFFFFE0
FFFFFFFFC0
FFFFFFFF80
FFFFFFFE00
FFFFFFF000
FE00000000
FE00000000
FE00000000
FE00000000
FE00000000
FE00000000
FE00000000
FE00000000
FE00000000
FE00000000
FE00000000
FE00000000
FE00000000
FE00000000
FE00000000
FE00000000
FE00000000
FE00000000
FE00000000
FE00000000
FE00000000
FE00000000
FE00000000
ENDCHAR
STARTCHAR 0051
ENCODING 81
SWIDTH 773 0
DWIDTH 58 0
BBX 53 61 3 -5
BITMAP
000007FF000000
00007FFFF00000
0001FFFFFC0000
0007FFFFFF0000
001FFFFFFF8000
003FFFFFFFE000
007FFE03FFF000
00FFE0007FF800
01FF80001FFC00
03FE000007FE00
07FC000003FE00
07F8000001FF00
0FF0000000FF80
1FE00000007F80
1FE00000003FC0
3FC00000003FC0
3FC00000001FE0
3F800000001FE0
7F800000000FE0
7F000000000FF0
7F0000000007F0
7F0000000007F0
FF0000000007F0
FE0000000007F0
FE0000000007F0
FE0000000003F8
FE0000000003F8
FE0000000003F8
FE0000000003F8
FE0000000003F8
FE0000000003F8
FE0000000003F8
FE0000000003F8
FE0000000007F0
FE0000000007F0
FF0000000007F0
7F0000000007F0
7F0000000007F0
7F000000000FE0
7F800000000FE0
3F800000000FE0
3FC00000C01FE0
3FC00000E03FC0
1FE00001F03FC0
1FE00003FC7F80
0FF00003FEFF80
0FF80001FFFF00
07FC00007FFE00
03FE00003FFE00
01FF80001FFC00
00FFE0007FF800
007FFE03FFFC00
003FFFFFFFFE00
001FFFFFFFFF80
0007FFFFFF7FC0
0003FFFFFC3FE0
00007FFFF01FF0
000007FF0007E0
000000000003C0
00000000000180
00000000000080
ENDCHAR
STARTCHAR 0052
ENCODING 82
SWIDTH 720 0
DWIDTH 54 0
BBX 44 55 7 0
BITMAP
FFFFFFFE0000
FFFFFFFFC000
FFFFFFFFF000
FFFFFFFFF800
FFFFFFFFFC00
FFFFFFFFFE00
FE00000FFF00
FE000001FF00
FE000000FF80
FE0000007F80
FE0000007F80
FE0000003FC0
FE0000003FC0
FE0000003FC0
FE0000001FC0
FE0000001FC0
FE0000001FC0
FE0000003FC0
FE0000003F80
FE0000003F80
FE0000003F80
FE0000007F00
FE000000FF00
FE000001FE00
FE00000FFC00
FFFFFFFFF800
FFFFFFFFE000
FFFFFFFFC000
FFFFFFFFE000
FFFFFFFFF800
FFFFFFFFFC00
FE00000FFE00
FE000001FE00
FE000000FF00
FE000000FF00
FE0000007F00
FE0000007F00
FE0000003F00
FE0000003F80
FE0000003F80
FE0000003F80
FE0000003F80
FE0000003F80
FE0000003F80
FE0000003F80
FE0000003F80
FE0000003F80
FE0000003F80
FE0000003F80
FE0000003F80
FE0000003FC0
FE0000003FC0
FE0000001FE0
FE0000001FF0
FE0000001FF0
ENDCHAR
STARTCHAR 0053
ENCODING 83
SWIDTH 666 0
DWIDTH 50 0
BBX 43 58 4 -2
BITMAP
0001FFC00000
000FFFFC0000
007FFFFF0000
00FFFFFFC000
03FFFFFFE000
07FFFFFFF000
0FFF003FF800
0FF80007FC00
1FE00003FE00
1FC00001FE00
3FC00000FF00
3F8000007F00
3F8000007F00
7F0000003F80
7F0000003F80
7F0000003F80
7F0000003F80
7F8000000000
7F8000000000
3FC000000000
3FE000000000
3FF000000000
1FFC00000000
1FFF80000000
0FFFF8000000
07FFFF800000
03FFFFF00000
00FFFFFF0000
003FFFFFE000
0007FFFFF000
00007FFFFC00
000007FFFE00
000000FFFF00
0000000FFF00
00000003FF80
00000000FFC0
000000007FC0
000000003FC0
000000001FC0
FC0000001FE0
FC0000001FE0
FC0000000FE0
FE0000000FE0
FE0000001FC0
FE0000001FC0
7F0000001FC0
7F8000003FC0
7F8000003F80
3FC000007F80
3FF00000FF00
1FFC0003FF00
0FFF803FFE00
07FFFFFFFC00
03FFFFFFF800
01FFFFFFF000
007FFFFFC000
001FFFFE0000
0001FFE00000
ENDCHAR
STARTCHAR 0054
ENCODING 84
SWIDTH 613 0
DWIDTH 46 0
BBX 42 55 2 0
BITMAP
FFFFFFFFFFC0
FFFFFFFFFFC0
FFFFFFFFFFC0
FFFFFFFFFFC0
FFFFFFFFFFC0
FFFFFFFFFFC0
00003F800000
00003F800000
00003F800000
00003F800000
00003F800000
00003F800000
00003F800000
00003F800000
00003F800000
00003F800000
00003F800000
00003F800000
00003F800000
00003F800000
00003F800000
00003F800000
00003F800000
00003F800000
00003F800000
00003F800000
00003F800000
00003F800000
00003F800000
00003F800000
00003F800000
00003F800000
00003F800000
00003F800000
00003F800000
00003F800000
00003F800000
00003F800000
00003F800000
00003F800000
00003F800000
00003F800000
00003F800000
00003F800000
00003F800000
00003F800000
00003F800000
00003F800000
00003F800000
00003F800000
00003F800000
00003F800000
00003F800000
00003F800000
00003F800000
ENDCHAR
STARTCHAR 0055
ENCODING 85
SWIDTH 720 0
DWIDTH 54 0
BBX 42 57 6 -2
BITMAP
FE0000001FC0
FE0000001FC0
FE0000001FC0
FE0000001FC0
FE0000001FC0
FE0000001FC0
FE0000001FC0
FE0000001FC0
FE0000001FC0
FE0000001FC0
FE0000001FC0
FE0000001FC0
FE0000001FC0
FE0000001FC0
FE0000001FC0
FE0000001FC0
FE0000001FC0
FE0000001FC0
FE0000001FC0
FE0000001FC0
FE0000001FC0
FE0000001FC0
FE0000001FC0
FE0000001FC0
FE0000001FC0
FE0000001FC0
FE0000001FC0
FE0000001FC0
FE0000001FC0
FE0000001FC0
FE0000001FC0
FE0000001FC0
FE0000001FC0
FE0000001FC0
FE0000001FC0
FE0000001FC0
FE0000001FC0
FE0000001FC0
FE0000001FC0
FE0000001FC0
FE0000001FC0
7F0000001FC0
7F0000001FC0
7F0000001FC0
7F8000003FC0
7F8000003F80
3FC000007F80
3FE00000FF00
1FF00001FF00
0FFC0007FE00
0FFF807FFC00
07FFFFFFF800
03FFFFFFF000
00FFFFFFE000
007FFFFF8000
000FFFFE0000
0000FFE00000
ENDCHAR
STARTCHAR 0056
ENCODING 86
SWIDTH 666 0
DWIDTH 50 0
BBX 46 55 2 0
BITMAP
FF00000001FC
7F00000003FC
7F80000003F8
7F80000003F8
3F80000007F8
3FC0000007F0
1FC0000007F0
1FC0000007F0
1FE000000FE0
0FE000000FE0
0FE000000FE0
0FF000001FC0
07F000001FC0
07F000001FC0
07F800003F80
03F800003F80
03F800003F80
03FC00007F00
01FC00007F00
01FC00007F00
00FE0000FE00
00FE0000FE00
00FF0000FE00
007F0001FC00
007F0001FC00
007F8001FC00
003F8003F800
003F8003F800
003FC003F800
001FC007F000
001FC007F000
001FE007E000
000FE00FE000
000FE00FE000
0007F00FC000
0007F01FC000
0007F01FC000
0003F81F8000
0003F83F8000
0003F83F8000
0001FC3F0000
0001FC7F0000
0001FC7F0000
0000FE7E0000
0000FEFE0000
0000FEFE0000
00007FFC0000
00007FFC0000
00003FFC0000
00003FF80000
00003FF80000
00001FF80000
00001FF00000
00001FF00000
00000FF00000
ENDCHAR
STARTCHAR 0057
ENCODING 87
SWIDTH 946 0
DWIDTH 71 0
BBX 68 55 2 0
BITMAP
FF000003FC00000FF0
FF000007FC00000FE0
FF000007FC00001FE0
7F000007FC00001FE0
7F000007FE00001FE0
7F80000FFE00001FC0
7F80000FFE00003FC0
3F80000FFE00003FC0
3F80000FFF00003FC0
3FC0001FFF00003F80
3FC0001FBF00003F80
1FC0001FBF80007F80
1FC0003FBF80007F80
1FE0003F9F80007F00
1FE0003F1F80007F00
0FE0003F1FC000FF00
0FE0007F1FC000FF00
0FE0007E0FC000FE00
0FF0007E0FE000FE00
07F0007E0FE001FE00
07F000FE07E001FC00
07F000FC07E001FC00
07F800FC07F001FC00
03F801FC07F001FC00
03F801FC03F003F800
03F801F803F003F800
03FC01F803F803F800
01FC03F803F803F800
01FC03F001F807F000
01FC03F001FC07F000
01FC03F001FC07F000
00FE07F000FC07F000
00FE07E000FC07E000
00FE07E000FE0FE000
00FE0FE000FE0FE000
007F0FE0007E0FE000
007F0FC0007F0FC000
007F0FC0007F1FC000
007F1FC0003F1FC000
003F9FC0003F1FC000
003F9F80003F9F8000
003F9F80003F9F8000
003FBF80001FBF8000
001FBF00001FFF8000
001FFF00001FFF0000
001FFF00001FFF0000
001FFF00000FFF0000
000FFE00000FFF0000
000FFE00000FFE0000
000FFE000007FE0000
0007FE000007FE0000
0007FC000007FE0000
0007FC000007FC0000
0007FC000003FC0000
0003F8000003FC0000
ENDCHAR
STARTCHAR 0058
ENCODING 88
SWIDTH 666 0
DWIDTH 50 0
BBX 46 55 2 0
BITMAP
7FC0000007F8
3FC000000FF8
1FE000000FF0
1FF000001FE0
0FF000003FE0
07F800003FC0
07FC00007F80
03FC00007F80
01FE0000FF00
01FF0001FE00
00FF0001FE00
007F8003FC00
007F8007F800
003FC007F000
001FE00FF000
001FE01FE000
000FF01FC000
0007F83FC000
0007F87F8000
0003FC7F0000
0001FEFF0000
0001FFFE0000
0000FFFC0000
00007FFC0000
00007FF80000
00003FF00000
00001FF00000
00003FF00000
00003FF00000
00007FF80000
0000FFFC0000
0000FFFE0000
0001FFFE0000
0003FCFF0000
0003FC7F8000
0007F87F8000
000FF03FC000
000FF01FE000
001FE01FE000
003FC00FF000
003FC007F800
007F8007F800
00FF0003FC00
00FF0001FE00
01FE0001FE00
03FC0000FF00
07FC0000FF80
07F800007FC0
0FF000003FC0
1FF000003FE0
1FE000001FF0
3FC000000FF0
7FC000000FF8
7F80000007FC
FF00000003FC
ENDCHAR
STARTCHAR 0059
ENCODING 89
SWIDTH 666 0
DWIDTH 50 0
BBX 48 55 1 0
BITMAP
FF80000000FF
7FC0000001FF
3FC0000001FE
3FE0000003FC
1FE0000003FC
1FF0000007F8
0FF800000FF8
07F800000FF0
07FC00001FE0
03FC00001FE0
01FE00003FC0
01FF00003F80
00FF00007F80
00FF8000FF00
007F8000FF00
003FC001FE00
003FC001FC00
001FE003FC00
000FF007F800
000FF007F800
0007F80FF000
0003F80FE000
0003FC1FE000
0001FE1FC000
0001FE3FC000
0000FF7F8000
00007F7F0000
00007FFF0000
00003FFE0000
00001FFC0000
00001FFC0000
00000FF80000
00000FF80000
000007F00000
000007F00000
000007F00000
000007F00000
000007F00000
000007F00000
000007F00000
000007F00000
000007F00000
000007F00000
000007F00000
000007F00000
000007F00000
000007F00000
000007F00000
000007F00000
000007F00000
000007F00000
000007F00000
000007F00000
000007F00000
000007F00000
ENDCHAR
STARTCHAR 005A
ENCODING 90
SWIDTH 613 0
DWIDTH 46 0
BBX 42 55 2 0
BITMAP
3FFFFFFFFFC0
3FFFFFFFFFC0
3FFFFFFFFFC0
3FFFFFFFFFC0
3FFFFFFFFFC0
3FFFFFFFFFC0
000000007F80
00000000FF80
00000001FF00
00000003FE00
00000003FC00
00000007FC00
0000000FF800
0000001FF000
0000001FE000
0000003FE000
0000007FC000
000000FF8000
000001FF0000
000001FE0000
000003FE0000
000007FC0000
00000FF80000
00000FF00000
00001FF00000
00003FE00000
00007FC00000
00007F800000
0000FF800000
0001FF000000
0003FE000000
0007FC000000
0007F8000000
000FF8000000
001FF0000000
003FE0000000
003FC0000000
007FC0000000
00FF80000000
01FF00000000
01FE00000000
03FE00000000
07FC00000000
0FF800000000
1FF000000000
1FE000000000
3FE000000000
7FC000000000
FF8000000000
FFFFFFFFFFC0
FFFFFFFFFFC0
FFFFFFFFFFC0
FFFFFFFFFFC0
FFFFFFFFFFC0
FFFFFFFFFFC0
ENDCHAR
STARTCHAR 005B
ENCODING 91
SWIDTH 280 0
DWIDTH 21 0
BBX 14 71 5 -16
BITMAP
FFFC
FFFC
FFFC
FFFC
FFFC
FC00
FC00
FC00
FC00
FC00
FC00
FC00
FC00
FC00
FC00
FC00
FC00
FC00
FC00
FC00
FC00
FC00
FC00
FC00
FC00
FC00
FC00
FC00
FC00
FC00
FC00
FC00
FC00
FC00
FC00
FC00
FC00
FC00
FC00
FC00
FC00
FC00
FC00
FC00
FC00
FC00
FC00
FC00
FC00
FC00
FC00
FC00
FC00
FC00
FC00
FC00
FC00
FC00
FC00
FC00
FC00
FC00
FC00
FC00
FC00
FC00
FFFC
FFFC
FFFC
FFFC
FFFC
ENDCHAR
STARTCHAR 005C
ENCODING 92
SWIDTH 280 0
DWIDTH 21 0
BBX 21 56 0 -1
BITMAP
F00000
F00000
F00000
F80000
780000
780000
7C0000
3C0000
3C0000
3E0000
1E0000
1E0000
1F0000
0F0000
0F0000
0F0000
078000
078000
078000
03C000
03C000
03C000
01E000
01E000
01E000
01F000
00F000
00F000
00F800
007800
007800
007C00
003C00
003C00
003C00
001E00
001E00
001E00
000F00
000F00
000F00
000780
000780
000780
0003C0
0003C0
0003C0
0003E0
0001E0
0001E0
0001F0
0000F0
0000F0
0000F8
000078
000078
ENDCHAR
STARTCHAR 005D
ENCODING 93
SWIDTH 280 0
DWIDTH 21 0
BBX 14 71 2 -16
BITMAP
FFFC
FFFC
FFFC
FFFC
FFFC
01FC
01FC
01FC
01FC
01FC
01FC
01FC
01FC
01FC
01FC
01FC
01FC
01FC
01FC
01FC
01FC
01FC
01FC
01FC
01FC
01FC
01FC
01FC
01FC
01FC
01FC
01FC
01FC
01FC
01FC
01FC
01FC
01FC
01FC
01FC
01FC
01FC
01FC
01FC
01FC
01FC
01FC
01FC
01FC
01FC
01FC
01FC
01FC
01FC
01FC
01FC
01FC
01FC
01FC
01FC
01FC
01FC
01FC
01FC
01FC
01FC
FFFC
FFFC
FFFC
FFFC
FFFC
ENDCHAR
STARTCHAR 005E
ENCODING 94
SWIDTH 466 0
DWIDTH 35 0
BBX 28 28 4 25
BITMAP
003F8000
003F8000
003F8000
007FC000
007FC000
00FFE000
00FBE000
00FBE000
01F1F000
01F1F000
03F1F800
03E0F800
03E0F800
07C07C00
07C07C00
0FC07E00
0F803E00
0F803E00
1F001F00
1F001F00
3F001F80
3E000F80
3E000F80
7C0007C0
7C0007C0
FC0003E0
F80003E0
F80003F0
ENDCHAR
STARTCHAR 005F
ENCODING 95
SWIDTH 560 0
DWIDTH 42 0
BBX 45 4 -2 -13
BITMAP
FFFFFFFFFFF8
FFFFFFFFFFF8
FFFFFFFFFFF8
FFFFFFFFFFF8
ENDCHAR
STARTCHAR 0060
ENCODING 96
SWIDTH 333 0
DWIDTH 25 0
BBX 15 11 2 45
BITMAP
FF00
7F80
3FC0
1FC0
0FE0
07F0
03F0
01F8
00FC
007C
003E
ENDCHAR
STARTCHAR 0061
ENCODING 97
SWIDTH 560 0
DWIDTH 42 0
BBX 37 42 3 -2
BITMAP
0007FE0000
007FFFE000
01FFFFF000
03FFFFFC00
07FFFFFE00
0FFFFFFE00
1FF803FF00
1FE000FF00
3FC0007F00
3F80003F00
3F80003F00
3F00003F00
3F00003F00
0000003F00
0000003F00
0000003F00
000000FF00
00000FFF00
0007FFFF00
00FFFFFF00
03FFFFFF00
0FFFFFBF00
1FFFF03F00
3FFC003F00
3FE0003F00
7F80003F00
7F00003F00
FE00003F00
FE00003F00
FE00003F00
FE00003F00
FE00007F00
FE0000FF00
FF0001FF00
7F0003FF80
7FC00FFF80
3FFDFFFFC0
3FFFFF9FF8
1FFFFF1FF8
0FFFFC1FF8
03FFF00FF8
007F8003F0
ENDCHAR
STARTCHAR 0062
ENCODING 98
SWIDTH 560 0
DWIDTH 42 0
BBX 35 57 4 -2
BITMAP
FC00000000
FC00000000
FC00000000
FC00000000
FC00000000
FC00000000
FC00000000
FC00000000
FC00000000
FC00000000
FC00000000
FC00000000
FC00000000
FC00000000
FC00000000
FC03FE0000
FC0FFFC000
FC3FFFE000
FC7FFFF800
FCFFFFFC00
FDFFFFFE00
FFFC07FF00
FFF001FF00
FFE000FF80
FFC0007F80
FF80003FC0
FF00001FC0
FF00001FC0
FE00001FE0
FE00000FE0
FE00000FE0
FE00000FE0
FE00000FE0
FC000007E0
FC000007E0
FC000007E0
FC000007E0
FC000007E0
FC000007E0
FE00000FE0
FE00000FE0
FE00000FE0
FE00000FE0
FE00000FC0
FF00001FC0
FF00001FC0
FF80003F80
FFC0007F80
FFE000FF00
FFF001FF00
FFFC07FE00
FDFFFFFC00
FCFFFFF800
FC7FFFF000
FC3FFFE000
001FFF8000
0003FC0000
ENDCHAR
STARTCHAR 0063
ENCODING 99
SWIDTH 506 0
DWIDTH 38 0
BBX 34 42 2 -2
BITMAP
0003FC0000
001FFF8000
007FFFE000
01FFFFF000
03FFFFFC00
07FFFFFC00
07FC03FE00
0FF001FF00
1FE0007F00
1FC0007F80
3F80003F80
3F80003F80
3F00001F80
7F00001F80
7F00000000
7E00000000
7E00000000
7E00000000
FE00000000
FE00000000
FE00000000
FE00000000
FE00000000
FE00000000
FE00000000
7E00000000
7E00000000
7F00001FC0
7F00001FC0
7F00001F80
3F80001F80
3F80003F80
1FC0007F80
1FE0007F00
0FF000FF00
0FFC03FE00
07FFFFFC00
03FFFFF800
01FFFFF000
007FFFE000
003FFF8000
0007FC0000
ENDCHAR
STARTCHAR 0064
ENCODING 100
SWIDTH 560 0
DWIDTH 42 0
BBX 35 57 2 -2
BITMAP
00000007E0
00000007E0
00000007E0
00000007E0
00000007E0
00000007E0
00000007E0
00000007E0
00000007E0
00000007E0
00000007E0
00000007E0
00000007E0
00000007E0
00000007E0
0007F807E0
003FFF07E0
00FFFFC7E0
01FFFFE7E0
03FFFFF7E0
07FFFFFFE0
0FFC07FFE0
1FF001FFE0
1FE0007FE0
3FC0003FE0
3F80003FE0
7F80001FE0
7F00001FE0
7F00000FE0
7E00000FE0
FE00000FE0
FE000007E0
FE000007E0
FE000007E0
FE000007E0
FE000007E0
FE000007E0
FE000007E0
FE000007E0
FE000007E0
FE000007E0
FE00000FE0
7E00000FE0
7F00000FE0
7F00001FE0
7F80001FE0
3F80003FE0
3FC0003FE0
1FE0007FE0
1FF001FFE0
0FFC03FBE0
07FFFFFBE0
03FFFFF3E0
01FFFFE3E0
00FFFF83E0
003FFF0000
0007F80000
ENDCHAR
STARTCHAR 0065
ENCODING 101
SWIDTH 560 0
DWIDTH 42 0
BBX 35 42 3 -2
BITMAP
0003FC0000
001FFF8000
007FFFE000
01FFFFF800
03FFFFFC00
07FFFFFE00
0FFC03FF00
0FF000FF00
1FE0007F80
1FC0003FC0
3F80001FC0
3F00001FC0
7F00000FE0
7F00000FE0
7E00000FE0
7E000007E0
FE000007E0
FE000007E0
FFFFFFFFE0
FFFFFFFFE0
FFFFFFFFE0
FFFFFFFFE0
FFFFFFFFE0
FE00000000
FE00000000
FE00000000
FE00000000
7E00000000
7E00000000
7F00000FC0
7F00000FC0
3F80001FC0
3FC0003F80
1FE0007F80
1FF000FF00
0FFC03FF00
07FFFFFE00
03FFFFFC00
01FFFFF800
00FFFFE000
003FFFC000
0007FC0000
ENDCHAR
STARTCHAR 0066
ENCODING 102
SWIDTH 280 0
DWIDTH 21 0
BBX 18 55 1 0
BITMAP
001FC0
007FC0
00FFC0
01FFC0
01FFC0
03FF40
03F800
03F000
03F000
03F000
03F000
03F000
03F000
03F000
03F000
03F000
FFFFC0
FFFFC0
FFFFC0
FFFFC0
FFFFC0
03F000
03F000
03F000
03F000
03F000
03F000
03F000
03F000
03F000
03F000
03F000
03F000
03F000
03F000
03F000
03F000
03F000
03F000
03F000
03F000
03F000
03F000
03F000
03F000
03F000
03F000
03F000
03F000
03F000
03F000
03F000
03F000
03F000
03F000
ENDCHAR
STARTCHAR 0067
ENCODING 103
SWIDTH 560 0
DWIDTH 42 0
BBX 33 56 3 -16
BITMAP
000FF00000
007FFC1F80
00FFFF1F80
03FFFF9F80
07FFFFDF80
07FFFFFF80
0FF80FFF80
1FE003FF80
1FC001FF80
3F8000FF80
3F0000FF80
7F00007F80
7E00007F80
7E00003F80
FE00003F80
FE00003F80
FC00003F80
FC00003F80
FC00001F80
FC00001F80
FC00001F80
FC00001F80
FC00001F80
FC00001F80
FC00001F80
FE00003F80
FE00003F80
FE00003F80
FE00003F80
7F00007F80
7F00007F80
7F00007F80
3F8000FF80
3FC001FF80
1FE003FF80
0FF80FDF80
0FFFFFDF80
07FFFF9F80
03FFFF1F80
00FFFE1F80
007FF81F80
000FE03F80
0000003F80
0000003F00
0000003F00
7E00003F00
7F00007F00
7F00007E00
3F8000FE00
3FC001FC00
1FF00FFC00
0FFFFFF800
07FFFFF000
03FFFFC000
00FFFF8000
003FFC0000
ENDCHAR
STARTCHAR 0068
ENCODING 104
SWIDTH 560 0
DWIDTH 42 0
BBX 31 55 5 0
BITMAP
FC000000
FC000000
FC000000
FC000000
FC000000
FC000000
FC000000
FC000000
FC000000
FC000000
FC000000
FC000000
FC000000
FC000000
FC000000
FC01FE00
FC0FFFC0
FC3FFFF0
FC7FFFF8
FCFFFFFC
FDFFFFFC
FFF807FE
FFE001FE
FFC000FE
FF80007E
FF00007E
FF00007E
FE00007E
FE00007E
FE00007E
FE00007E
FE00007E
FE00007E
FC00007E
FC00007E
FC00007E
FC00007E
FC00007E
FC00007E
FC00007E
FC00007E
FC00007E
FC00007E
FC00007E
FC00007E
FC00007E
FC00007E
FC00007E
FC00007E
FC00007E
FC00007E
FC00007E
FC00007E
FC00007E
FC00007E
ENDCHAR
STARTCHAR 0069
ENCODING 105
SWIDTH 226 0
DWIDTH 17 0
BBX 6 55 5 0
BITMAP
FC
FC
FC
FC
FC
FC
FC
FC
00
00
00
00
00
00
00
00
FC
FC
FC
FC
FC
FC
FC
FC
FC
FC
FC
FC
FC
FC
FC
FC
FC
FC
FC
FC
FC
FC
FC
FC
FC
FC
FC
FC
FC
FC
FC
FC
FC
FC
FC
FC
FC
FC
FC
ENDCHAR
STARTCHAR 006A
ENCODING 106
SWIDTH 226 0
DWIDTH 17 0
BBX 12 71 -1 -16
BITMAP
03F0
03F0
03F0
03F0
03F0
03F0
03F0
03F0
0000
0000
0000
0000
0000
0000
0000
0000
03F0
03F0
03F0
03F0
03F0
03F0
03F0
03F0
03F0
03F0
03F0
03F0
03F0
03F0
03F0
03F0
03F0
03F0
03F0
03F0
03F0
03F0
03F0
03F0
03F0
03F0
03F0
03F0
03F0
03F0
03F0
03F0
03F0
03F0
03F0
03F0
03F0
03F0
03F0
03F0
03F0
03F0
03F0
03F0
03F0
03F0
03F0
03F0
03F0
0FF0
FFF0
FFE0
FFE0
FFC0
FF00
ENDCHAR
STARTCHAR 006B
ENCODING 107
SWIDTH 506 0
DWIDTH 38 0
BBX 33 55 4 0
BITMAP
FE00000000
FE00000000
FE00000000
FE00000000
FE00000000
FE00000000
FE00000000
FE00000000
FE00000000
FE00000000
FE00000000
FE00000000
FE00000000
FE00000000
FE00000000
FE00000000
FE0001FE00
FE0003FC00
FE0007F800
FE000FF000
FE001FE000
FE003FC000
FE007F8000
FE00FF0000
FE01FE0000
FE03FC0000
FE07F80000
FE0FF00000
FE1FE00000
FE3FC00000
FE7FC00000
FEFFE00000
FFFFF00000
FFFFF00000
FFF7F80000
FFE3F80000
FFC3FC0000
FF81FE0000
FF00FE0000
FE00FF0000
FE007F8000
FE007F8000
FE003FC000
FE001FC000
FE001FE000
FE000FF000
FE0007F000
FE0007F800
FE0003FC00
FE0003FC00
FE0001FE00
FE0000FE00
FE0000FF00
FE00007F80
FE00003F80
ENDCHAR
STARTCHAR 006C
ENCODING 108
SWIDTH 226 0
DWIDTH 17 0
BBX 6 55 5 0
BITMAP
FC
FC
FC
FC
FC
FC
FC
FC
FC
FC
FC
FC
FC
FC
FC
FC
FC
FC
FC
FC
FC
FC
FC
FC
FC
FC
FC
FC
FC
FC
FC
FC
FC
FC
FC
FC
FC
FC
FC
FC
FC
FC
FC
FC
FC
FC
FC
FC
FC
FC
FC
FC
FC
FC
FC
ENDCHAR
STARTCHAR 006D
ENCODING 109
SWIDTH 826 0
DWIDTH 62 0
BBX 52 40 5 0
BITMAP
0003FC0007F800
FC1FFF803FFE00
FC3FFFC0FFFF80
FC7FFFE1FFFFC0
FCFFFFF3FFFFE0
FDFFFFF7FDFFE0
FFF00FFFE01FF0
FFC007FF800FF0
FF8003FF0007F0
FF0003FE0007F0
FF0001FE0003F0
FE0001FC0003F0
FE0001FC0003F0
FE0001FC0003F0
FE0001F80003F0
FE0001F80003F0
FE0001F80003F0
FE0001F80003F0
FE0001F80003F0
FE0001F80003F0
FE0001F80003F0
FE0001F80003F0
FE0001F80003F0
FE0001F80003F0
FE0001F80003F0
FE0001F80003F0
FE0001F80003F0
FE0001F80003F0
FE0001F80003F0
FE0001F80003F0
FE0001F80003F0
FE0001F80003F0
FE0001F80003F0
FE0001F80003F0
FE0001F80003F0
FE0001F80003F0
FE0001F80003F0
FE0001F80003F0
FE0001F80003F0
FE0001F80003F0
ENDCHAR
STARTCHAR 006E
ENCODING 110
SWIDTH 560 0
DWIDTH 42 0
BBX 32 40 5 0
BITMAP
0001FE00
FC0FFFC0
FC1FFFF0
FC7FFFF8
FCFFFFFC
FCFFFFFC
FDF803FE
FFE001FE
FFC000FE
FF80007E
FF00007F
FF00007F
FF00007F
FE00007F
FE00007F
FE00007F
FE00007F
FE00007F
FE00007F
FE00007F
FE00007F
FE00007F
FE00007F
FE00007F
FE00007F
FE00007F
FE00007F
FE00007F
FE00007F
FE00007F
FE00007F
FE00007F
FE00007F
FE00007F
FE00007F
FE00007F
FE00007F
FE00007F
FE00007F
FE00007F
ENDCHAR
STARTCHAR 006F
ENCODING 111
SWIDTH 560 0
DWIDTH 42 0
BBX 35 42 3 -2
BITMAP
0007FC0000
003FFF8000
00FFFFE000
01FFFFF800
07FFFFFC00
0FFFFFFE00
0FFC07FE00
1FF001FF00
3FC0007F80
3FC0007F80
3F80003FC0
7F00001FC0
7F00001FC0
7E00000FC0
FE00000FE0
FE00000FE0
FE00000FE0
FC00000FE0
FC000007E0
FC000007E0
FC000007E0
FC000007E0
FC000007E0
FC000007E0
FC000007E0
FE00000FE0
FE00000FE0
FE00000FE0
7E00000FC0
7F00001FC0
7F00001FC0
7F80003F80
3FC0007F80
3FC0007F80
1FF001FF00
0FFC07FE00
0FFFFFFC00
07FFFFFC00
03FFFFF000
00FFFFE000
003FFF8000
0007FC0000
ENDCHAR
STARTCHAR 0070
ENCODING 112
SWIDTH 560 0
DWIDTH 42 0
BBX 35 57 4 -17
BITMAP
0003FE0000
FC0FFF8000
FC3FFFE000
FC7FFFF800
FCFFFFFC00
FDFFFFFE00
FFFC07FE00
FFF001FF00
FFE000FF80
FFC0007F80
FF80003F80
FF00001FC0
FF00001FC0
FF00001FC0
FE00000FE0
FE00000FE0
FE00000FE0
FE00000FE0
FC000007E0
FC000007E0
FC000007E0
FC000007E0
FC000007E0
FE000007E0
FE00000FE0
FE00000FE0
FE00000FE0
FE00000FE0
FF00000FC0
FF00001FC0
FF00001FC0
FF80003F80
FFC0007F80
FFE000FF80
FFF001FF00
FFFC07FE00
FDFFFFFE00
FCFFFFFC00
FC7FFFF800
FC3FFFE000
FC1FFF8000
FC03FC0000
FC00000000
FC00000000
FC00000000
FC00000000
FC00000000
FC00000000
FC00000000
FC00000000
FC00000000
FC00000000
FC00000000
FC00000000
FC00000000
FC00000000
FC00000000
ENDCHAR
STARTCHAR 0071
ENCODING 113
SWIDTH 560 0
DWIDTH 42 0
BBX 35 57 2 -17
BITMAP
0007F80000
003FFF03E0
00FFFFC3E0
01FFFFE3E0
03FFFFF3E0
07FFFFFBE0
0FFC07FFE0
0FF001FFE0
1FE0007FE0
3FC0003FE0
3F80003FE0
3F80001FE0
7F00001FE0
7F00000FE0
7E00000FE0
7E00000FE0
FE00000FE0
FE000007E0
FE000007E0
FE000007E0
FE000007E0
FE000007E0
FE000007E0
FE000007E0
FE000007E0
FE000007E0
FE00000FE0
7E00000FE0
7F00000FE0
7F00001FE0
7F80001FE0
3F80003FE0
3FC0003FE0
3FE0007FE0
1FF001FFE0
0FFC03FFE0
0FFFFFF7E0
07FFFFF7E0
03FFFFE7E0
00FFFF87E0
003FFF07E0
000FF807E0
00000007E0
00000007E0
00000007E0
00000007E0
00000007E0
00000007E0
00000007E0
00000007E0
00000007E0
00000007E0
00000007E0
00000007E0
00000007E0
00000007E0
00000007E0
ENDCHAR
STARTCHAR 0072
ENCODING 114
SWIDTH 333 0
DWIDTH 25 0
BBX 19 40 5 0
BITMAP
0003E0
FC0FE0
FC1FE0
FC7FE0
FC7FE0
FCFFE0
FDFF80
FFF000
FFE000
FFC000
FF8000
FF0000
FF0000
FE0000
FE0000
FE0000
FE0000
FE0000
FE0000
FC0000
FC0000
FC0000
FC0000
FC0000
FC0000
FC0000
FC0000
FC0000
FC0000
FC0000
FC0000
FC0000
FC0000
FC0000
FC0000
FC0000
FC0000
FC0000
FC0000
FC0000
ENDCHAR
STARTCHAR 0073
ENCODING 115
SWIDTH 506 0
DWIDTH 38 0
BBX 31 42 3 -2
BITMAP
001FF800
00FFFF00
03FFFF80
0FFFFFE0
1FFFFFE0
1FFFFFF0
3FE00FF8
7F8007F8
7F0003F8
7F0001FC
7E0001FC
7E0001FC
7E000000
7E000000
7F000000
7FC00000
7FF00000
3FFE0000
1FFFF000
0FFFFE00
07FFFFC0
01FFFFE0
003FFFF8
0003FFFC
00003FFC
000007FE
000001FE
000000FE
0000007E
FC00007E
FC00007E
FE00007E
FE0000FE
FF0000FE
7F8003FC
7FE007FC
3FFFFFF8
3FFFFFF0
1FFFFFE0
07FFFFC0
01FFFF00
003FF000
ENDCHAR
STARTCHAR 0074
ENCODING 116
SWIDTH 280 0
DWIDTH 21 0
BBX 18 52 1 -2
BITMAP
07F000
07F000
07F000
07F000
07F000
07F000
07F000
07F000
07F000
07F000
07F000
FFFFC0
FFFFC0
FFFFC0
FFFFC0
FFFFC0
07F000
07F000
07F000
07F000
07F000
07F000
07F000
07F000
07F000
07F000
07F000
07F000
07F000
07F000
07F000
07F000
07F000
07F000
07F000
07F000
07F000
07F000
07F000
07F000
07F000
07F000
07F000
07F000
07F000
07F000
07FFC0
03FFC0
03FFC0
03FFC0
01FFC0
007FC0
ENDCHAR
STARTCHAR 0075
ENCODING 117
SWIDTH 560 0
DWIDTH 42 0
BBX 31 41 5 -2
BITMAP
FC00007E
FC00007E
FC00007E
FC00007E
FC00007E
FC00007E
FC00007E
FC00007E
FC00007E
FC00007E
FC00007E
FC00007E
FC00007E
FC00007E
FC00007E
FC00007E
FC00007E
FC00007E
FC00007E
FC00007E
FC00007E
FC00007E
FC00007E
FC00007E
FC00007E
FC00007E
FC00007E
FC0000FE
FC0000FE
FC0000FE
FE0001FE
FE0003FE
FF0003FE
FF000FFE
7FC01FBE
7FFDFF3E
3FFFFE3E
1FFFFC3E
0FFFF83E
07FFE000
00FF0000
ENDCHAR
STARTCHAR 0076
ENCODING 118
SWIDTH 506 0
DWIDTH 38 0
BBX 35 39 1 0
BITMAP
FE00000FE0
FE00000FE0
7F00000FC0
7F00001FC0
7F00001FC0
3F80003F80
3F80003F80
3F80003F80
1FC0007F00
1FC0007F00
1FC0007E00
0FE000FE00
0FE000FE00
0FE000FC00
07F001FC00
07F001F800
03F001F800
03F803F800
03F803F000
01F803F000
01FC07F000
01FC07E000
00FC07E000
00FE0FC000
00FE0FC000
007E1FC000
007F1F8000
007F1F8000
003F3F0000
003FBF0000
001FBF0000
001FFE0000
001FFE0000
000FFC0000
000FFC0000
000FFC0000
0007F80000
0007F80000
0007F80000
ENDCHAR
STARTCHAR 0077
ENCODING 119
SWIDTH 720 0
DWIDTH 54 0
BBX 52 39 1 0
BITMAP
FC0003FC0007F0
FE0007FC0007F0
FE0007FC000FE0
FE0007FC000FE0
7F0007FE000FE0
7F000FFE000FC0
7F000FFE001FC0
3F000FFE001FC0
3F800FFF001FC0
3F800FBF001F80
3F801FBF003F80
1F801FBF003F80
1FC01F1F803F00
1FC01F1F803F00
0FC03F1F807F00
0FC03F1F807E00
0FE03E0FC07E00
07E03E0FC07E00
07E07E0FC0FE00
07F07E0FC0FC00
07F07C07E0FC00
03F07C07E0FC00
03F0FC07E1F800
03F8FC07F1F800
01F8F803F1F800
01F8F803F3F800
01F9F803F3F000
01FDF803FBF000
00FDF001FBF000
00FDF001FFE000
00FFF001FFE000
007FF001FFE000
007FF000FFC000
007FE000FFC000
003FE000FFC000
003FE000FFC000
003FE0007F8000
003FC0007F8000
001FC0007F8000
ENDCHAR
STARTCHAR 0078
ENCODING 120
SWIDTH 506 0
DWIDTH 38 0
BBX 33 39 2 0
BITMAP
FE00003F80
7F00007F00
3F8000FE00
3F8000FE00
1FC001FC00
0FE003F800
0FE003F800
07F007F000
03F80FE000
01FC0FC000
01FC1FC000
00FE3F8000
007F3F0000
007F7F0000
003FFE0000
001FFC0000
001FFC0000
000FF80000
0007F00000
0007F00000
000FF80000
001FFC0000
001FFC0000
003FFE0000
007F7F0000
007E7F0000
00FE3F8000
01FC1FC000
01F81FC000
03F80FE000
07F007F000
07E007F000
0FE003F800
1FC001FC00
3F8001FC00
3F8000FE00
7F00007F00
FE00007F00
FE00003F80
ENDCHAR
STARTCHAR 0079
ENCODING 121
SWIDTH 506 0
DWIDTH 38 0
BBX 34 55 2 -16
BITMAP
FC00001FC0
FE00001F80
FE00003F80
7E00003F80
7F00007F00
7F00007F00
3F00007E00
3F8000FE00
3F8000FE00
1F8000FC00
1FC001FC00
1FC001FC00
0FC001F800
0FE003F800
0FE003F000
07E003F000
07F007F000
07F007E000
03F00FE000
03F80FE000
03F80FC000
01F81FC000
01FC1F8000
01FC1F8000
00FC3F8000
00FE3F0000
00FE3F0000
007E7F0000
007F7E0000
003F7E0000
003FFE0000
003FFC0000
001FFC0000
001FF80000
001FF80000
000FF80000
000FF00000
000FF00000
0007F00000
0007E00000
000FE00000
000FC00000
001FC00000
001FC00000
001F800000
003F800000
003F800000
007F000000
00FF000000
3FFE000000
3FFE000000
3FFC000000
3FF8000000
3FF0000000
1FC0000000
ENDCHAR
STARTCHAR 007A
ENCODING 122
SWIDTH 506 0
DWIDTH 38 0
BBX 32 39 2 0
BITMAP
3FFFFFFE
3FFFFFFE
3FFFFFFE
3FFFFFFE
3FFFFFFE
000000FE
000001FC
000003FC
000007F8
00000FF0
00000FE0
00001FC0
00003F80
00007F80
0000FF00
0001FE00
0001FC00
0003F800
0007F000
000FF000
001FE000
003FC000
007F8000
007F0000
00FE0000
01FE0000
03FC0000
07F80000
0FF00000
0FE00000
1FC00000
3FC00000
7F800000
FF000000
FFFFFFFF
FFFFFFFF
FFFFFFFF
FFFFFFFF
FFFFFFFF
ENDCHAR
STARTCHAR 007B
ENCODING 123
SWIDTH 333 0
DWIDTH 25 0
BBX 18 71 3 -16
BITMAP
001FC0
003FC0
00FFC0
00FFC0
01FFC0
01F800
03F000
03F000
03F000
03F000
03F000
03F000
03F000
03F000
03F000
03F000
03F000
03F000
03F000
03F000
03F000
03F000
03F000
03F000
03F000
03F000
03F000
03F000
07E000
07E000
0FE000
1FC000
7FC000
FF8000
FE0000
FC0000
FF0000
FF8000
3FC000
0FC000
07E000
07E000
07E000
03F000
03F000
03F000
03F000
03F000
03F000
03F000
03F000
03F000
03F000
03F000
03F000
03F000
03F000
03F000
03F000
03F000
03F000
03F000
03F000
03F000
03F800
01FE00
01FFC0
00FFC0
007FC0
003FC0
0007C0
ENDCHAR
STARTCHAR 007C
ENCODING 124
SWIDTH 266 0
DWIDTH 20 0
BBX 5 71 7 -16
BITMAP
F8
F8
F8
F8
F8
F8
F8
F8
F8
F8
F8
F8
F8
F8
F8
F8
F8
F8
F8
F8
F8
F8
F8
F8
F8
F8
F8
F8
F8
F8
F8
F8
F8
F8
F8
F8
F8
F8
F8
F8
F8
F8
F8
F8
F8
F8
F8
F8
F8
F8
F8
F8
F8
F8
F8
F8
F8
F8
F8
F8
F8
F8
F8
F8
F8
F8
F8
F8
F8
F8
F8
ENDCHAR
STARTCHAR 007D
ENCODING 125
SWIDTH 333 0
DWIDTH 25 0
BBX 18 71 2 -16
BITMAP
FE0000
FF8000
FFC000
FFC000
FFE000
07E000
03F000
03F000
03F000
03F000
03F000
03F000
03F000
03F000
03F000
03F000
03F000
03F000
03F000
03F000
03F000
03F000
03F000
03F000
03F000
03F000
03F000
01F000
01F800
01F800
01FC00
00FE00
007F80
007FC0
001FC0
000FC0
003FC0
007FC0
00FF00
00FC00
01F800
01F800
01F800
01F000
03F000
03F000
03F000
03F000
03F000
03F000
03F000
03F000
03F000
03F000
03F000
03F000
03F000
03F000
03F000
03F000
03F000
03F000
03F000
03F000
07F000
1FE000
FFE000
FFC000
FF8000
FF0000
F00000
ENDCHAR
STARTCHAR 007E
ENCODING 126
SWIDTH 586 0
DWIDTH 44 0
BBX 32 13 6 20
BITMAP
07C00000
1FF00000
3FFC000F
3FFF000F
7FFF800F
7C7FE00F
F81FF81F
F007FC3F
F003FFFE
F000FFFE
F0007FFC
00001FF8
000007E0
ENDCHAR
STARTCHAR 00A0
ENCODING 160
SWIDTH 280 0
DWIDTH 21 0
BBX 0 0 0 0
BITMAP
ENDCHAR
STARTCHAR 00A1
ENCODING 161
SWIDTH 333 0
DWIDTH 25 0
BBX 6 55 9 -16
BITMAP
FC
FC
FC
FC
FC
FC
FC
FC
00
00
00
00
00
38
38
38
78
78
78
78
7C
7C
7C
7C
7C
7C
FC
FC
FC
FC
FC
FC
FC
FC
FC
FC
FC
FC
FC
FC
FC
FC
FC
FC
FC
FC
FC
FC
FC
FC
FC
FC
FC
FC
FC
ENDCHAR
STARTCHAR 00A2
ENCODING 162
SWIDTH 560 0
DWIDTH 42 0
BBX 34 56 4 -9
BITMAP
0000E00000
0000E00000
0000E00000
0000E00000
0000E00000
0000E00000
0000E00000
000FFF0000
003FFFE000
00FFFFF000
01FFFFFC00
03FFFFFC00
07FFEFFE00
0FF8E1FF00
1FE0E07F00
1FC0E07F80
3F80E03F80
3F80E01F80
7F00E01FC0
7F00E01FC0
7E00E01FC0
7E00E00000
FE00E00000
FE00E00000
FE00E00000
FE00E00000
FC00E00000
FC00E00000
FC00E00000
FC00E00000
FE00E00000
FE00E00000
FE00E00000
FE00E00000
7E00E00FC0
7F00E00FC0
7F00E01FC0
3F80E01FC0
3F80E03F80
3FC0E03F80
1FE0E07F80
0FF0E0FF00
0FFEE3FE00
07FFFFFE00
03FFFFFC00
01FFFFF800
007FFFE000
001FFF8000
0001F80000
0000E00000
0000E00000
0000E00000
0000E00000
0000E00000
0000E00000
0000E00000
ENDCHAR
STARTCHAR 00A3
ENCODING 163
SWIDTH 560 0
DWIDTH 42 0
BBX 38 57 2 -2
BITMAP
0000FF0000
000FFFF000
003FFFF800
007FFFFE00
01FFFFFF00
03FFFFFF80
03FE00FFC0
07F8003FC0
0FF0001FE0
0FE0000FE0
1FC0000FF0
1FC00007F0
1F800007F0
3F800007F0
3F800003F0
3F800003F0
3F800003F0
3F800003F0
3F80000000
3FC0000000
1FC0000000
1FE0000000
0FE0000000
0FF0000000
07F0000000
07F8000000
03F8000000
FFFFFF8000
FFFFFF8000
FFFFFF8000
FFFFFF8000
00FE000000
007F000000
007F000000
003F000000
003F000000
003F000000
003F000000
003F000000
003F000000
003F000000
007E000000
007E000000
00FC000000
00F8000000
01F0000000
03F0000000
07E0000000
0FC7F80020
1FBFFF80F0
3FFFFFFFF8
7FFFFFFFF8
7FFFFFFFFC
3FFFFFFFF8
1F007FFFF0
1C000FFFE0
000000FF00
ENDCHAR
STARTCHAR 00A4
ENCODING 164
SWIDTH 560 0
DWIDTH 42 0
BBX 32 31 5 10
BITMAP
08000010
3C000038
7E0FE07C
FF7FFCFE
7FFFFFFF
3FFFFFFE
1FFFFFFC
0FFFFFF8
0FF01FF0
1FE007F0
1FC003F8
3F8003F8
3F0001F8
3F0001F8
3F0001F8
3F0000F8
3F0000F8
3F0001F8
3F0001F8
3F8003F8
1FC003F0
1FE007F0
0FF01FE0
0FFFFFF0
1FFFFFF8
3FFFFFFC
7FFFFFFE
7F7FFCFC
3E0FE078
1C000030
08000000
ENDCHAR
STARTCHAR 00A5
ENCODING 165
SWIDTH 560 0
DWIDTH 42 0
BBX 39 53 1 0
BITMAP
FE0000007E
7E000000FE
7F000000FC
3F000001FC
1F800001F8
1FC00003F8
0FC00003F0
0FE00007E0
07E00007E0
03F0000FC0
03F0001FC0
01F8001F80
01FC003F80
00FC003F00
00FE007E00
007E007E00
003F00FC00
003F80FC00
001F81F800
001FC3F800
000FC3F000
000FE7E000
0007E7E000
0003FFC000
0003FFC000
0001FF8000
0FFFFFFFF0
0FFFFFFFF0
0FFFFFFFF0
0FFFFFFFF0
00007E0000
00007E0000
00007E0000
00007E0000
00007E0000
00007E0000
0FFFFFFFF0
0FFFFFFFF0
0FFFFFFFF0
0FFFFFFFF0
00007E0000
00007E0000
00007E0000
00007E0000
00007E0000
00007E0000
00007E0000
00007E0000
00007E0000
00007E0000
00007E0000
00007E0000
00007E0000
ENDCHAR
STARTCHAR 00A6
ENCODING 166
SWIDTH 266 0
DWIDTH 20 0
BBX 5 71 7 -16
BITMAP
F8
F8
F8
F8
F8
F8
F8
F8
F8
F8
F8
F8
F8
F8
F8
F8
F8
F8
F8
F8
F8
F8
F8
F8
F8
F8
F8
F8
F8
F8
00
00
00
00
00
00
00
00
00
00
F8
F8
F8
F8
F8
F8
F8
F8
F8
F8
F8
F8
F8
F8
F8
F8
F8
F8
F8
F8
F8
F8
F8
F8
F8
F8
F8
F8
F8
F8
F8
ENDCHAR
STARTCHAR 00A7
ENCODING 167
SWIDTH 560 0
DWIDTH 42 0
BBX 35 71 3 -16
BITMAP
0001FE0000
000FFF8000
003FFFE000
007FFFF000
00FFFFF800
01FFFFFC00
01FE03FC00
03FC01FE00
03F800FE00
07F0007E00
07F0007F00
07F0007F00
07F0007F00
07F0003F00
07F0003F00
07F8003F00
03F8000000
03FE000000
01FF000000
01FF800000
00FFE00000
01FFF80000
07FFFC0000
0FEFFF0000
1FC3FF8000
3F01FFE000
3F007FF000
7E003FFC00
7E001FFE00
7C0007FF00
FC0003FF80
FC0000FF80
FC00007FC0
FE00003FC0
7E00001FE0
7F00000FE0
7F80000FE0
3FE00007E0
3FF00007E0
1FF80007E0
0FFE0007E0
07FF0007E0
03FF800FC0
01FFE00FC0
007FF01F80
003FF83F80
000FFE7F00
0007FFFE00
0003FFF800
0000FFE000
00007FF000
00001FF000
00000FF800
000007FC00
000003FC00
000001FC00
1F8000FE00
1F8000FE00
1F8000FE00
1FC000FE00
1FC000FE00
1FC001FC00
0FE001FC00
0FF003FC00
07F80FF800
07FFFFF800
03FFFFF000
01FFFFE000
00FFFF8000
003FFF0000
0007F80000
ENDCHAR
STARTCHAR 00A8
ENCODING 168
SWIDTH 333 0
DWIDTH 25 0
BBX 20 8 2 46
BITMAP
FF0FF0
FF0FF0
FF0FF0
FF0FF0
FF0FF0
FF0FF0
FF0FF0
FF0FF0
ENDCHAR
STARTCHAR 00A9
ENCODING 169
SWIDTH 733 0
DWIDTH 55 0
BBX 57 58 -1 -2
BITMAP
000000FFC0000000
00000FFFFC000000
00007FFFFF000000
0001FFFFFFC00000
0007FFFFFFF00000
000FFC001FFC0000
001FF00003FE0000
007FC00000FF0000
00FF0000007F8000
01FE0000001FC000
01F80000000FE000
03F0000F0007F000
07E000FFE003F000
07C003FFF801F800
0FC00FFFFC00FC00
1F801FFFFE00FC00
1F003FC0FE007E00
3F003F003F007E00
3E007E003F003E00
3E007C001F803F00
7E00FC000F801F00
7C00F8000F801F00
7C01F8000FC01F80
7C01F00000000F80
FC01F00000000F80
F801F00000000F80
F801F00000000F80
F801F00000000F80
F801F00000000F80
F801F00000000F80
F801F00000000F80
F801F00000000F80
F801F00000000F80
FC01F00007C00F80
7C01F00007C00F80
7C01F8000FC01F80
7C00F8000F801F00
7E00FC000F801F00
3E007C001F803F00
3F007E003F003E00
3F003F807F007E00
1F803FE0FE007E00
1F801FFFFC00FC00
0FC00FFFFC00F800
07E003FFF001F800
07F001FFE003F000
03F0000E0007F000
01FC0000000FE000
00FE0000001FC000
007F0000007F8000
003FC00000FF0000
001FF00003FE0000
000FFE001FF80000
0007FFFFFFF00000
0001FFFFFFC00000
00007FFFFF000000
00001FFFFC000000
000001FFC0000000
ENDCHAR
STARTCHAR 00AA
ENCODING 170
SWIDTH 373 0
DWIDTH 28 0
BBX 22 33 3 23
BITMAP
03FE00
0FFF80
1FFFC0
3FFFE0
7E07E0
7C01E0
7C01E0
7801E0
0001E0
0001E0
0007E0
03FFE0
1FFFE0
3FFDE0
7F81E0
FC01E0
F801E0
F001E0
F001E0
F003E0
F807E0
FC1FF0
7FFFFC
7FFCFC
1FF8FC
07C07C
000000
000000
000000
FFFFF8
FFFFF8
FFFFF8
FFFFF8
ENDCHAR
STARTCHAR 00AB
ENCODING 171
SWIDTH 560 0
DWIDTH 42 0
BBX 27 25 7 8
BITMAP
00100000
00300060
007000E0
00F001E0
03F003E0
07F00FE0
0FF01FE0
1FC03FC0
7F807F00
FF00FE00
FC00FC00
F800F800
F000E000
F800F000
FC00FC00
FE00FE00
7F80FF00
3FC03F80
1FE01FE0
07F00FE0
03F007E0
01F001E0
00F000E0
00300060
00100020
ENDCHAR
STARTCHAR 00AC
ENCODING 172
SWIDTH 586 0
DWIDTH 44 0
BBX 38 22 3 6
BITMAP
FFFFFFFFFC
FFFFFFFFFC
FFFFFFFFFC
FFFFFFFFFC
FFFFFFFFFC
000000007C
000000007C
000000007C
000000007C
000000007C
000000007C
000000007C
000000007C
000000007C
000000007C
000000007C
000000007C
000000007C
000000007C
000000007C
000000007C
000000007C
ENDCHAR
STARTCHAR 00AD
ENCODING 173
SWIDTH 333 0
DWIDTH 25 0
BBX 18 5 3 18
BITMAP
FFFFC0
FFFFC0
FFFFC0
FFFFC0
FFFFC0
ENDCHAR
STARTCHAR 00AE
ENCODING 174
SWIDTH 733 0
DWIDTH 55 0
BBX 57 58 -1 -2
BITMAP
000000FFC0000000
00000FFFFC000000
00007FFFFF000000
0001FFFFFFC00000
0007FFFFFFF00000
000FFC001FFC0000
001FF00003FE0000
003FC00000FF0000
00FF0000007F8000
00FE0000001FC000
01F80000000FE000
03F000000007F000
07E0FFFFF003F000
07E0FFFFFC01F800
0FC0FFFFFF00FC00
1F80FFFFFF80FC00
1F80FFFFFF807E00
3F00F8001FC07E00
3E00F8000FC03E00
3E00F8000FC03F00
7E00F80007C01F00
7C00F80007C01F00
7C00F80007C01F80
7C00F80007C00F80
FC00F8000FC00F80
F800F8000F800F80
F800F8003F800F80
F800FFFFFF000F80
F800FFFFFE000F80
F800FFFFFE000F80
F800FFFFFF000F80
F800FFFFFF800F80
F800F8001F800F80
FC00F8001F800F80
7C00F8000F800F80
7C00F8000F801F80
7C00F8000F801F00
7E00F8000F801F00
3E00F8000FC03F00
3E00F8000FC03E00
3F00F8000FC03E00
1F80F8000FC07E00
1F80F8000FC0FC00
0FC0F80007E0FC00
0FE0F80007E1F800
07E0F80007E3F000
03F000000007F000
01F80000000FE000
01FE0000001FC000
00FF0000007F8000
007FC00000FF0000
001FF00003FE0000
000FFE001FF80000
0007FFFFFFF00000
0001FFFFFFC00000
00007FFFFF000000
00001FFFFC000000
000001FFC0000000
ENDCHAR
STARTCHAR 00AF
ENCODING 175
SWIDTH 333 0
DWIDTH 25 0
BBX 21 5 2 47
BITMAP
FFFFF8
FFFFF8
FFFFF8
FFFFF8
FFFFF8
ENDCHAR
STARTCHAR 00B0
ENCODING 176
SWIDTH 400 0
DWIDTH 30 0
BBX 22 22 4 29
BITMAP
01FE00
07FF80
0FFFC0
1FFFE0
3F03F0
7E01F8
7C00F8
F8007C
F0003C
F0003C
F0003C
F0003C
F0003C
F0003C
F8007C
7C00F8
7E01F8
3F03F0
1FFFE0
0FFFC0
07FF80
01FE00
ENDCHAR
STARTCHAR 00B1
ENCODING 177
SWIDTH 586 0
DWIDTH 44 0
BBX 36 48 4 -1
BITMAP
0001F80000
0001F80000
0001F80000
0001F80000
0001F80000
0001F80000
0001F80000
0001F80000
0001F80000
0001F80000
0001F80000
0001F80000
0001F80000
0001F80000
0001F80000
0001F80000
FFFFFFFFF0
FFFFFFFFF0
FFFFFFFFF0
FFFFFFFFF0
FFFFFFFFF0
0001F80000
0001F80000
0001F80000
0001F80000
0001F80000
0001F80000
0001F80000
0001F80000
0001F80000
0001F80000
0001F80000
0001F80000
0001F80000
0001F80000
0001F80000
0001F80000
0000000000
0000000000
0000000000
0000000000
0000000000
0000000000
FFFFFFFFF0
FFFFFFFFF0
FFFFFFFFF0
FFFFFFFFF0
FFFFFFFFF0
ENDCHAR
STARTCHAR 00B2
ENCODING 178
SWIDTH 333 0
DWIDTH 25 0
BBX 23 32 1 21
BITMAP
00FF00
07FFC0
0FFFF0
1FFFF8
3F83F8
3E00FC
7C007C
7C003E
7C003E
78003E
78003E
00003E
00007C
0000FC
0001F8
0003F0
000FF0
003FC0
00FF80
01FE00
07F800
0FE000
1F8000
3F0000
7E0000
7C0000
7C0000
F80000
FFFFFE
FFFFFE
FFFFFE
FFFFFE
ENDCHAR
STARTCHAR 00B3
ENCODING 179
SWIDTH 333 0
DWIDTH 25 0
BBX 22 33 1 20
BITMAP
01FE00
07FF80
1FFFE0
3FFFF0
3F03F0
7C01F8
7C00F8
7800F8
F80078
F80078
F80078
0000F8
0001F8
000FF0
00FFE0
00FF80
00FFE0
00FFF8
0001F8
00007C
00007C
00003C
F0003C
F0003C
F8003C
F8007C
F8007C
7C00F8
7F03F8
3FFFF0
1FFFE0
0FFF80
01FE00
ENDCHAR
STARTCHAR 00B4
ENCODING 180
SWIDTH 333 0
DWIDTH 25 0
BBX 15 11 7 45
BITMAP
01FE
03FC
07F8
07F0
0FE0
0FC0
1F80
3F00
3E00
7C00
F800
ENDCHAR
STARTCHAR 00B5
ENCODING 181
SWIDTH 560 0
DWIDTH 42 0
BBX 36 56 5 -17
BITMAP
FC00007E00
FC00007E00
FC00007E00
FC00007E00
FC00007E00
FC00007E00
FC00007E00
FC00007E00
FC00007E00
FC00007E00
FC00007E00
FC00007E00
FC00007E00
FC00007E00
FC00007E00
FC00007E00
FC00007E00
FC00007E00
FC00007E00
FC00007E00
FC00007E00
FC00007E00
FC00007E00
FC00007E00
FC00007E00
FC00007E00
FC0000FE00
FC0000FE00
FC0000FE00
FC0001FE00
FE0001FE00
FE0003FE00
FF0007FE00
FF000FFE00
FFC01FFF00
FFFFFFFF80
FFFFFF7FF0
FFFFFE3FF0
FFFFF83FF0
FDFFF01FF0
FC7F800FE0
FC00000000
FC00000000
FC00000000
FC00000000
FC00000000
FC00000000
FC00000000
FC00000000
FC00000000
FC00000000
FC00000000
FC00000000
FC00000000
FC00000000
FC00000000
ENDCHAR
STARTCHAR 00B6
ENCODING 182
SWIDTH 533 0
DWIDTH 40 0
BBX 35 68 4 -13
BITMAP
0007FFFFE0
003FFFFFE0
00FFFFFFE0
03FFFFFFE0
07FFFFFFE0
0FFFF03E00
1FFFF03E00
1FFFF03E00
3FFFF03E00
3FFFF03E00
7FFFF03E00
7FFFF03E00
FFFFF03E00
FFFFF03E00
FFFFF03E00
FFFFF03E00
FFFFF03E00
FFFFF03E00
FFFFF03E00
FFFFF03E00
FFFFF03E00
FFFFF03E00
FFFFF03E00
FFFFF03E00
7FFFF03E00
7FFFF03E00
3FFFF03E00
3FFFF03E00
1FFFF03E00
1FFFF03E00
0FFFF03E00
07FFF03E00
03FFF03E00
00FFF03E00
003FF03E00
0001F03E00
0001F03E00
0001F03E00
0001F03E00
0001F03E00
0001F03E00
0001F03E00
0001F03E00
0001F03E00
0001F03E00
0001F03E00
0001F03E00
0001F03E00
0001F03E00
0001F03E00
0001F03E00
0001F03E00
0001F03E00
0001F03E00
0001F03E00
0001F03E00
0001F03E00
0001F03E00
0001F03E00
0001F03E00
0001F03E00
0001F03E00
0001F03E00
0001F03E00
0001F03E00
0001F03E00
0001F03E00
0001F03E00
ENDCHAR
STARTCHAR 00B7
ENCODING 183
SWIDTH 280 0
DWIDTH 21 0
BBX 8 8 8 17
BITMAP
FF
FF
FF
FF
FF
FF
FF
FF
ENDCHAR
STARTCHAR 00B8
ENCODING 184
SWIDTH 333 0
DWIDTH 25 0
BBX 19 16 3 -16
BITMAP
007000
007000
00E000
00E000
01FE00
01FF80
03FFC0
000FC0
0007E0
0007E0
0007C0
700FC0
FC1FC0
FFFF80
3FFF00
07F800
ENDCHAR
STARTCHAR 00B9
ENCODING 185
SWIDTH 333 0
DWIDTH 25 0
BBX 12 32 4 21
BITMAP
0070
00F0
00F0
01F0
03F0
0FF0
FFF0
FFF0
FFF0
FFF0
01F0
01F0
01F0
01F0
01F0
01F0
01F0
01F0
01F0
01F0
01F0
01F0
01F0
01F0
01F0
01F0
01F0
01F0
01F0
01F0
01F0
01F0
ENDCHAR
STARTCHAR 00BA
ENCODING 186
SWIDTH 360 0
DWIDTH 27 0
BBX 21 33 3 23
BITMAP
01FC00
07FF80
0FFFC0
1FFFE0
3F07E0
7E01F0
7C01F0
7800F8
F800F8
F80078
F80078
F00078
F00078
F00078
F00078
F80078
F80078
F800F8
7800F8
7C01F0
7E01F0
3F07E0
1FFFE0
0FFFC0
07FF00
01FC00
000000
000000
000000
7FFFF8
7FFFF8
7FFFF8
7FFFF8
ENDCHAR
STARTCHAR 00BB
ENCODING 187
SWIDTH 560 0
DWIDTH 42 0
BBX 27 25 7 8
BITMAP
80010000
C0018000
E001C000
F801F000
FC01F800
FE01FC00
FF01FE00
3FC07F80
1FE03FC0
0FF01FE0
03F007E0
01F003E0
00F001E0
01F003E0
03F007E0
07F00FE0
1FE03FC0
3FC07F80
7F80FF00
FE01FC00
FC01F800
F801F000
F001C000
C0018000
80010000
ENDCHAR
STARTCHAR 00BC
ENCODING 188
SWIDTH 840 0
DWIDTH 63 0
BBX 59 55 2 -1
BITMAP
00700000001F0000
00700000001E0000
00F00000003E0000
00F00000003C0000
01F0000000780000
03F0000000F80000
7FF0000000F00000
FFF0000001E00000
FFF0000001E00000
FFF0000003C00000
01F0000007C00000
01F0000007800000
01F000000F000000
01F000001F000000
01F000001E000000
01F000003E000000
01F000003C000000
01F0000078000000
01F00000F8000000
01F00000F0000000
01F00001E0000000
01F00003E0000000
01F00003C0003C00
01F00007C0007C00
01F000078000FC00
01F0000F0000FC00
01F0001F0001FC00
01F0001E0003FC00
01F0003C0007FC00
01F0007C0007FC00
01F00078000F7C00
01F000F8001F7C00
000000F0003E7C00
000001E0007C7C00
000003E000787C00
000003C000F87C00
000007C001F07C00
0000078003E07C00
00000F0003C07C00
00001F0007C07C00
00001E000F807C00
00003C001F007C00
00007C001FFFFFE0
000078001FFFFFE0
0000F8001FFFFFE0
0000F0001FFFFFE0
0001E00000007C00
0003E00000007C00
0003C00000007C00
0007800000007C00
000F800000007C00
000F000000007C00
001F000000007C00
001E000000007C00
003C000000000000
ENDCHAR
STARTCHAR 00BD
ENCODING 189
SWIDTH 840 0
DWIDTH 63 0
BBX 59 54 2 -1
BITMAP
00700000007C0000
00F0000000780000
00F0000000F00000
01F0000001F00000
03F0000001E00000
1FF0000003C00000
FFF0000007C00000
FFF0000007800000
FFF000000F800000
01F000000F000000
01F000001E000000
01F000003E000000
01F000003C000000
01F0000078000000
01F00000F8000000
01F00000F0000000
01F00001F0000000
01F00001E0000000
01F00003C0000000
01F00007C0000000
01F0000780000000
01F0000F000FF000
01F0001F007FFC00
01F0001E00FFFE00
01F0003E01FFFF00
01F0003C03F83F80
01F0007803E00FC0
01F000F807C007C0
01F000F007C007C0
01F001E0078003E0
01F003E00F8003E0
01F003C00F8003E0
000007C0000007C0
00000780000007C0
00000F0000000FC0
00001F0000001F80
00001E0000007F00
00003C000001FE00
00007C000007FC00
00007800000FF000
0000F800003FC000
0000F000007F0000
0001E00001FC0000
0003E00003F80000
0003C00003E00000
0007800007E00000
000F800007C00000
000F00000F800000
001F00000FFFFFC0
001E00000FFFFFC0
003C00000FFFFFC0
007C00000FFFFFC0
007800000FFFFFC0
00F0000000000000
ENDCHAR
STARTCHAR 00BE
ENCODING 190
SWIDTH 840 0
DWIDTH 63 0
BBX 59 54 2 -1
BITMAP
01FE00000007C000
07FFC00000078000
0FFFE000000F0000
1FFFF000001F0000
3F03F800001E0000
3E00F800003E0000
7C00FC00003C0000
7C007C0000780000
78007C0000F80000
78007C0000F00000
78007C0001E00000
0000780003E00000
0000F80003C00000
000FF00007C00000
007FE00007800000
007FC0000F000000
007FF0001F000000
007FF8001E000000
0000FC003C000000
00007C007C000000
00003E0078000000
00003E00F8003C00
F8003E00F0003C00
F8003E01E0007C00
F8003E03E000FC00
F8003E03C001FC00
FC007C078003FC00
7C00FC0F8003FC00
7F03F80F0007FC00
3FFFF01F000FFC00
1FFFE01E001F7C00
07FFC03C003E7C00
01FE007C003C7C00
00000078007C7C00
000000F000F87C00
000001F001F07C00
000001E003E07C00
000003C003C07C00
000003C007C07C00
000007800F807C00
00000F801F007C00
00000F001FFFFFE0
00001E001FFFFFE0
00003E001FFFFFE0
00003C001FFFFFE0
0000780000007C00
0000780000007C00
0000F00000007C00
0001F00000007C00
0001E00000007C00
0003C00000007C00
0007C00000007C00
0007800000007C00
000F000000000000
ENDCHAR
STARTCHAR 00BF
ENCODING 191
SWIDTH 613 0
DWIDTH 46 0
BBX 33 55 7 -16
BITMAP
0003F00000
0003F00000
0003F00000
0003F00000
0003F00000
0003F00000
0003F00000
0003F00000
0000000000
0000000000
0000000000
0000000000
0000000000
0000000000
0000000000
0003F00000
0003F00000
0003F00000
0003F00000
0003F00000
0007F00000
0007F00000
000FF00000
000FE00000
001FE00000
003FC00000
007F800000
00FF000000
01FE000000
03FC000000
07F8000000
0FF0000000
1FE0000000
3FC0000000
3F80000000
7F00000000
7F00000000
FE00000000
FE00003F80
FE00003F80
FE00003F00
FE00003F00
FE00003F00
FE00003F00
7F00007F00
7F00007E00
7F8000FE00
3FC001FE00
3FF807FC00
1FFFFFF800
0FFFFFF800
07FFFFE000
03FFFFC000
00FFFF0000
001FF80000
ENDCHAR
STARTCHAR 00C0
ENCODING 192
SWIDTH 666 0
DWIDTH 50 0
BBX 48 71 1 0
BITMAP
0003FC000000
0001FE000000
0000FE000000
00007F000000
00003F800000
00001F800000
00000FC00000
000007C00000
000003E00000
000001F00000
000000F00000
000000000000
000000000000
000000000000
000000000000
000000000000
00000FF80000
00001FF80000
00001FFC0000
00001FFC0000
00003FFC0000
00003FFE0000
00007FFE0000
00007FFE0000
00007FFF0000
0000FF7F0000
0000FE7F0000
0000FE7F8000
0001FC3F8000
0001FC3F8000
0001FC3FC000
0003F81FC000
0003F81FE000
0003F81FE000
0007F00FE000
0007F00FF000
0007F00FF000
000FE007F000
000FE007F800
001FE007F800
001FC003F800
001FC003FC00
003F8003FC00
003F8001FC00
003F8001FE00
007F0001FE00
007F0000FE00
007F0000FF00
00FE0000FF00
00FFFFFFFF00
00FFFFFFFF80
01FFFFFFFF80
01FFFFFFFFC0
03FFFFFFFFC0
03FFFFFFFFC0
03F800001FE0
07F800001FE0
07F800001FE0
07F000000FF0
0FF000000FF0
0FE000000FF0
0FE0000007F8
1FE0000007F8
1FC0000003F8
1FC0000003FC
3FC0000003FC
3F80000001FC
3F80000001FE
7F80000001FE
7F00000000FE
FF00000000FF
ENDCHAR
STARTCHAR 00C1
ENCODING 193
SWIDTH 666 0
DWIDTH 50 0
BBX 48 71 1 0
BITMAP
0000001FE000
0000003FC000
0000007F8000
0000007F0000
000000FE0000
000001FC0000
000001F80000
000003F00000
000007E00000
000007C00000
00000F800000
000000000000
000000000000
000000000000
000000000000
000000000000
00000FF80000
00001FF80000
00001FFC0000
00001FFC0000
00003FFC0000
00003FFE0000
00007FFE0000
00007FFE0000
00007FFF0000
0000FF7F0000
0000FE7F0000
0000FE7F8000
0001FC3F8000
0001FC3F8000
0001FC3FC000
0003F81FC000
0003F81FE000
0003F81FE000
0007F00FE000
0007F00FF000
0007F00FF000
000FE007F000
000FE007F800
001FE007F800
001FC003F800
001FC003FC00
003F8003FC00
003F8001FC00
003F8001FE00
007F0001FE00
007F0000FE00
007F0000FF00
00FE0000FF00
00FFFFFFFF00
00FFFFFFFF80
01FFFFFFFF80
01FFFFFFFFC0
03FFFFFFFFC0
03FFFFFFFFC0
03F800001FE0
07F800001FE0
07F800001FE0
07F000000FF0
0FF000000FF0
0FE000000FF0
0FE0000007F8
1FE0000007F8
1FC0000003F8
1FC0000003FC
3FC0000003FC
3F80000001FC
3F80000001FE
7F80000001FE
7F00000000FE
FF00000000FF
ENDCHAR
STARTCHAR 00C2
ENCODING 194
SWIDTH 666 0
DWIDTH 50 0
BBX 48 71 1 0
BITMAP
00000FF00000
00000FF80000
00001FF80000
00003FFC0000
00003FFC0000
00007E7E0000
00007C3F0000
0000F81F0000
0001F80F8000
0001F00FC000
0003E007C000
000000000000
000000000000
000000000000
000000000000
000000000000
00000FF80000
00001FF80000
00001FFC0000
00001FFC0000
00003FFC0000
00003FFE0000
00007FFE0000
00007FFE0000
00007FFF0000
0000FF7F0000
0000FE7F0000
0000FE7F8000
0001FC3F8000
0001FC3F8000
0001FC3FC000
0003F81FC000
0003F81FE000
0003F81FE000
0007F00FE000
0007F00FF000
0007F00FF000
000FE007F000
000FE007F800
001FE007F800
001FC003F800
001FC003FC00
003F8003FC00
003F8001FC00
003F8001FE00
007F0001FE00
007F0000FE00
007F0000FF00
00FE0000FF00
00FFFFFFFF00
00FFFFFFFF80
01FFFFFFFF80
01FFFFFFFFC0
03FFFFFFFFC0
03FFFFFFFFC0
03F800001FE0
07F800001FE0
07F800001FE0
07F000000FF0
0FF000000FF0
0FE000000FF0
0FE0000007F8
1FE0000007F8
1FC0000003F8
1FC0000003FC
3FC0000003FC
3F80000001FC
3F80000001FE
7F80000001FE
7F00000000FE
FF00000000FF
ENDCHAR
STARTCHAR 00C3
ENCODING 195
SWIDTH 666 0
DWIDTH 50 0
BBX 48 69 1 0
BITMAP
00007C01F000
0001FF01F000
0003FFE3E000
0003FFFFE000
0007FFFFE000
0007C7FFC000
000780FF8000
000F801E0000
000000000000
000000000000
000000000000
000000000000
000000000000
000000000000
00000FF80000
00001FF80000
00001FFC0000
00001FFC0000
00003FFC0000
00003FFE0000
00007FFE0000
00007FFE0000
00007FFF0000
0000FF7F0000
0000FE7F0000
0000FE7F8000
0001FC3F8000
0001FC3F8000
0001FC3FC000
0003F81FC000
0003F81FE000
0003F81FE000
0007F00FE000
0007F00FF000
0007F00FF000
000FE007F000
000FE007F800
001FE007F800
001FC003F800
001FC003FC00
003F8003FC00
003F8001FC00
003F8001FE00
007F0001FE00
007F0000FE00
007F0000FF00
00FE0000FF00
00FFFFFFFF00
00FFFFFFFF80
01FFFFFFFF80
01FFFFFFFFC0
03FFFFFFFFC0
03FFFFFFFFC0
03F800001FE0
07F800001FE0
07F800001FE0
07F000000FF0
0FF000000FF0
0FE000000FF0
0FE0000007F8
1FE0000007F8
1FC0000003F8
1FC0000003FC
3FC0000003FC
3F80000001FC
3F80000001FE
7F80000001FE
7F00000000FE
FF00000000FF
ENDCHAR
STARTCHAR 00C4
ENCODING 196
SWIDTH 666 0
DWIDTH 50 0
BBX 48 69 1 0
BITMAP
0003FC3FC000
0003FC3FC000
0003FC3FC000
0003FC3FC000
0003FC3FC000
0003FC3FC000
0003FC3FC000
0003FC3FC000
000000000000
000000000000
000000000000
000000000000
000000000000
000000000000
00000FF80000
00001FF80000
00001FFC0000
00001FFC0000
00003FFC0000
00003FFE0000
00007FFE0000
00007FFE0000
00007FFF0000
0000FF7F0000
0000FE7F0000
0000FE7F8000
0001FC3F8000
0001FC3F8000
0001FC3FC000
0003F81FC000
0003F81FE000
0003F81FE000
0007F00FE000
0007F00FF000
0007F00FF000
000FE007F000
000FE007F800
001FE007F800
001FC003F800
001FC003FC00
003F8003FC00
003F8001FC00
003F8001FE00
007F0001FE00
007F0000FE00
007F0000FF00
00FE0000FF00
00FFFFFFFF00
00FFFFFFFF80
01FFFFFFFF80
01FFFFFFFFC0
03FFFFFFFFC0
03FFFFFFFFC0
03F800001FE0
07F800001FE0
07F800001FE0
07F000000FF0
0FF000000FF0
0FE000000FF0
0FE0000007F8
1FE0000007F8
1FC0000003F8
1FC0000003FC
3FC0000003FC
3F80000001FC
3F80000001FE
7F80000001FE
7F00000000FE
FF00000000FF
ENDCHAR
STARTCHAR 00C5
ENCODING 197
SWIDTH 666 0
DWIDTH 50 0
BBX 48 72 1 0
BITMAP
000003E00000
00000FF00000
00001FF80000
00003E7C0000
00003C1C0000
0000381E0000
0000381E0000
0000381E0000
0000381C0000
00003C3C0000
00001FFC0000
00000FF80000
000007E00000
000000000000
000000000000
000000000000
000000000000
00000FF80000
00001FF80000
00001FFC0000
00001FFC0000
00003FFC0000
00003FFE0000
00007FFE0000
00007FFE0000
00007FFF0000
0000FF7F0000
0000FE7F0000
0000FE7F8000
0001FC3F8000
0001FC3F8000
0001FC3FC000
0003F81FC000
0003F81FE000
0003F81FE000
0007F00FE000
0007F00FF000
0007F00FF000
000FE007F000
000FE007F800
001FE007F800
001FC003F800
001FC003FC00
003F8003FC00
003F8001FC00
003F8001FE00
007F0001FE00
007F0000FE00
007F0000FF00
00FE0000FF00
00FFFFFFFF00
00FFFFFFFF80
01FFFFFFFF80
01FFFFFFFFC0
03FFFFFFFFC0
03FFFFFFFFC0
03F800001FE0
07F800001FE0
07F800001FE0
07F000000FF0
0FF000000FF0
0FE000000FF0
0FE0000007F8
1FE0000007F8
1FC0000003F8
1FC0000003FC
3FC0000003FC
3F80000001FC
3F80000001FE
7F80000001FE
7F00000000FE
FF00000000FF
ENDCHAR
STARTCHAR 00C6
ENCODING 198
SWIDTH 1000 0
DWIDTH 75 0
BBX 70 55 1 0
BITMAP
000003FFFFFFFFFFF8
000003FFFFFFFFFFF8
000007FFFFFFFFFFF8
000007FFFFFFFFFFF8
00000FFFFFFFFFFFF8
00000FFFFFFFFFFFF8
00000FC03F80000000
00001FC03F80000000
00001FC03F80000000
00003F803F80000000
00003F803F80000000
00003F803F80000000
00007F003F80000000
00007F003F80000000
0000FE003F80000000
0000FE003F80000000
0000FE003F80000000
0001FC003F80000000
0001FC003F80000000
0003F8003F80000000
0003F8003F80000000
0007F8003F80000000
0007F0003F80000000
0007F0003F80000000
000FE0003FFFFFFFE0
000FE0003FFFFFFFE0
001FE0003FFFFFFFE0
001FC0003FFFFFFFE0
001FC0003FFFFFFFE0
003FC0003FFFFFFFE0
003F80003F80000000
007F80003F80000000
007F00003F80000000
007FFFFFFF80000000
00FFFFFFFF80000000
00FFFFFFFF80000000
01FFFFFFFF80000000
01FFFFFFFF80000000
01FFFFFFFF80000000
03FC00003F80000000
03F800003F80000000
07F800003F80000000
07F800003F80000000
07F000003F80000000
0FF000003F80000000
0FE000003F80000000
1FE000003F80000000
1FE000003F80000000
3FC000003F80000000
3FC000003FFFFFFFFC
3F8000003FFFFFFFFC
7F8000003FFFFFFFFC
7F8000003FFFFFFFFC
FF0000003FFFFFFFFC
FF0000003FFFFFFFFC
ENDCHAR
STARTCHAR 00C7
ENCODING 199
SWIDTH 720 0
DWIDTH 54 0
BBX 47 72 4 -16
BITMAP
00001FFC0000
0001FFFFC000
0007FFFFF000
001FFFFFFC00
003FFFFFFE00
007FFFFFFF00
00FFF01FFF80
01FF8001FFC0
03FE00007FC0
07FC00003FE0
07F800001FE0
0FF000000FF0
1FE0000007F0
1FC0000007F8
3FC0000003F8
3F80000003F8
3F80000003F8
7F00000003FC
7F0000000000
7F0000000000
7F0000000000
FE0000000000
FE0000000000
FE0000000000
FE0000000000
FE0000000000
FE0000000000
FE0000000000
FE0000000000
FE0000000000
FE0000000000
FE0000000000
FE0000000000
FE0000000000
FE0000000000
FE0000000000
FE00000000FE
FF00000001FE
7F00000001FC
7F00000001FC
7F80000001FC
3F80000003FC
3F80000003FC
3FC0000003F8
1FE0000007F8
1FE0000007F0
0FF000000FF0
0FF800001FF0
07FC00003FE0
03FF00007FC0
01FFC001FFC0
01FFF81FFF80
007FFFFFFF00
003FFFFFFE00
001FFFFFF800
0007FFFFF000
0001FFFF8000
00001FF80000
000007000000
000007000000
00000FF00000
00000FFC0000
00001FFE0000
0000007E0000
0000003E0000
0000003E0000
0000003E0000
0003007E0000
0007E0FE0000
0007FFFC0000
0001FFF80000
00003FC00000
ENDCHAR
STARTCHAR 00C8
ENCODING 200
SWIDTH 666 0
DWIDTH 50 0
BBX 39 71 7 0
BITMAP
007F800000
003FC00000
001FC00000
000FE00000
0007F00000
0003F00000
0001F80000
0000FC0000
00007C0000
00003E0000
00001F0000
0000000000
0000000000
0000000000
0000000000
0000000000
FFFFFFFFFC
FFFFFFFFFC
FFFFFFFFFC
FFFFFFFFFC
FFFFFFFFFC
FFFFFFFFFC
FE00000000
FE00000000
FE00000000
FE00000000
FE00000000
FE00000000
FE00000000
FE00000000
FE00000000
FE00000000
FE00000000
FE00000000
FE00000000
FE00000000
FE00000000
FE00000000
FE00000000
FE00000000
FFFFFFFFF0
FFFFFFFFF0
FFFFFFFFF0
FFFFFFFFF0
FFFFFFFFF0
FFFFFFFFF0
FE00000000
FE00000000
FE00000000
FE00000000
FE00000000
FE00000000
FE00000000
FE00000000
FE00000000
FE00000000
FE00000000
FE00000000
FE00000000
FE00000000
FE00000000
FE00000000
FE00000000
FE00000000
FE00000000
FFFFFFFFFE
FFFFFFFFFE
FFFFFFFFFE
FFFFFFFFFE
FFFFFFFFFE
FFFFFFFFFE
ENDCHAR
STARTCHAR 00C9
ENCODING 201
SWIDTH 666 0
DWIDTH 50 0
BBX 39 71 7 0
BITMAP
00000FF800
00000FF000
00001FE000
00003FC000
00003F8000
00007F0000
0000FE0000
0000FC0000
0001F80000
0003F00000
0003E00000
0000000000
0000000000
0000000000
0000000000
0000000000
FFFFFFFFFC
FFFFFFFFFC
FFFFFFFFFC
FFFFFFFFFC
FFFFFFFFFC
FFFFFFFFFC
FE00000000
FE00000000
FE00000000
FE00000000
FE00000000
FE00000000
FE00000000
FE00000000
FE00000000
FE00000000
FE00000000
FE00000000
FE00000000
FE00000000
FE00000000
FE00000000
FE00000000
FE00000000
FFFFFFFFF0
FFFFFFFFF0
FFFFFFFFF0
FFFFFFFFF0
FFFFFFFFF0
FFFFFFFFF0
FE00000000
FE00000000
FE00000000
FE00000000
FE00000000
FE00000000
FE00000000
FE00000000
FE00000000
FE00000000
FE00000000
FE00000000
FE00000000
FE00000000
FE00000000
FE00000000
FE00000000
FE00000000
FE00000000
FFFFFFFFFE
FFFFFFFFFE
FFFFFFFFFE
FFFFFFFFFE
FFFFFFFFFE
FFFFFFFFFE
ENDCHAR
STARTCHAR 00CA
ENCODING 202
SWIDTH 666 0
DWIDTH 50 0
BBX 39 71 7 0
BITMAP
0001FE0000
0003FE0000
0003FF0000
0007FF8000
0007FF8000
000FCFC000
001F87C000
001F03E000
003E03F000
007E01F000
007C00F800
0000000000
0000000000
0000000000
0000000000
0000000000
FFFFFFFFFC
FFFFFFFFFC
FFFFFFFFFC
FFFFFFFFFC
FFFFFFFFFC
FFFFFFFFFC
FE00000000
FE00000000
FE00000000
FE00000000
FE00000000
FE00000000
FE00000000
FE00000000
FE00000000
FE00000000
FE00000000
FE00000000
FE00000000
FE00000000
FE00000000
FE00000000
FE00000000
FE00000000
FFFFFFFFF0
FFFFFFFFF0
FFFFFFFFF0
FFFFFFFFF0
FFFFFFFFF0
FFFFFFFFF0
FE00000000
FE00000000
FE00000000
FE00000000
FE00000000
FE00000000
FE00000000
FE00000000
FE00000000
FE00000000
FE00000000
FE00000000
FE00000000
FE00000000
FE00000000
FE00000000
FE00000000
FE00000000
FE00000000
FFFFFFFFFE
FFFFFFFFFE
FFFFFFFFFE
FFFFFFFFFE
FFFFFFFFFE
FFFFFFFFFE
ENDCHAR
STARTCHAR 00CB
ENCODING 203
SWIDTH 666 0
DWIDTH 50 0
BBX 39 69 7 0
BITMAP
007F87F800
007F87F800
007F87F800
007F87F800
007F87F800
007F87F800
007F87F800
007F87F800
0000000000
0000000000
0000000000
0000000000
0000000000
0000000000
FFFFFFFFFC
FFFFFFFFFC
FFFFFFFFFC
FFFFFFFFFC
FFFFFFFFFC
FFFFFFFFFC
FE00000000
FE00000000
FE00000000
FE00000000
FE00000000
FE00000000
FE00000000
FE00000000
FE00000000
FE00000000
FE00000000
FE00000000
FE00000000
FE00000000
FE00000000
FE00000000
FE00000000
FE00000000
FFFFFFFFF0
FFFFFFFFF0
FFFFFFFFF0
FFFFFFFFF0
FFFFFFFFF0
FFFFFFFFF0
FE00000000
FE00000000
FE00000000
FE00000000
FE00000000
FE00000000
FE00000000
FE00000000
FE00000000
FE00000000
FE00000000
FE00000000
FE00000000
FE00000000
FE00000000
FE00000000
FE00000000
FE00000000
FE00000000
FFFFFFFFFE
FFFFFFFFFE
FFFFFFFFFE
FFFFFFFFFE
FFFFFFFFFE
FFFFFFFFFE
ENDCHAR
STARTCHAR 00CC
ENCODING 204
SWIDTH 280 0
DWIDTH 21 0
BBX 15 71 0 0
BITMAP
FF80
7F80
3FC0
1FE0
0FE0
07F0
03F8
01F8
00FC
007E
003E
0000
0000
0000
0000
0000
01FC
01FC
01FC
01FC
01FC
01FC
01FC
01FC
01FC
01FC
01FC
01FC
01FC
01FC
01FC
01FC
01FC
01FC
01FC
01FC
01FC
01FC
01FC
01FC
01FC
01FC
01FC
01FC
01FC
01FC
01FC
01FC
01FC
01FC
01FC
01FC
01FC
01FC
01FC
01FC
01FC
01FC
01FC
01FC
01FC
01FC
01FC
01FC
01FC
01FC
01FC
01FC
01FC
01FC
01FC
ENDCHAR
STARTCHAR 00CD
ENCODING 205
SWIDTH 280 0
DWIDTH 21 0
BBX 15 71 6 0
BITMAP
03FE
03FC
07F8
0FF0
0FE0
1FC0
3F80
3F00
7E00
7C00
F800
0000
0000
0000
0000
0000
7F00
7F00
7F00
7F00
7F00
7F00
7F00
7F00
7F00
7F00
7F00
7F00
7F00
7F00
7F00
7F00
7F00
7F00
7F00
7F00
7F00
7F00
7F00
7F00
7F00
7F00
7F00
7F00
7F00
7F00
7F00
7F00
7F00
7F00
7F00
7F00
7F00
7F00
7F00
7F00
7F00
7F00
7F00
7F00
7F00
7F00
7F00
7F00
7F00
7F00
7F00
7F00
7F00
7F00
7F00
ENDCHAR
STARTCHAR 00CE
ENCODING 206
SWIDTH 280 0
DWIDTH 21 0
BBX 21 71 0 0
BITMAP
01FC00
03FE00
03FF00
07FF00
0FDF80
0FCFC0
1F87C0
3F07E0
3E03F0
7C01F0
7800F8
800000
000000
000000
000000
000000
01FC00
01FC00
01FC00
01FC00
01FC00
01FC00
01FC00
01FC00
01FC00
01FC00
01FC00
01FC00
01FC00
01FC00
01FC00
01FC00
01FC00
01FC00
01FC00
01FC00
01FC00
01FC00
01FC00
01FC00
01FC00
01FC00
01FC00
01FC00
01FC00
01FC00
01FC00
01FC00
01FC00
01FC00
01FC00
01FC00
01FC00
01FC00
01FC00
01FC00
01FC00
01FC00
01FC00
01FC00
01FC00
01FC00
01FC00
01FC00
01FC00
01FC00
01FC00
01FC00
01FC00
01FC00
01FC00
ENDCHAR
STARTCHAR 00CF
ENCODING 207
SWIDTH 280 0
DWIDTH 21 0
BBX 20 68 1 0
BITMAP
FE0FF0
FE0FF0
FE0FF0
FE0FF0
FE0FF0
FE0FF0
FE0FF0
FE0FF0
000000
000000
000000
000000
000000
03F800
03F800
03F800
03F800
03F800
03F800
03F800
03F800
03F800
03F800
03F800
03F800
03F800
03F800
03F800
03F800
03F800
03F800
03F800
03F800
03F800
03F800
03F800
03F800
03F800
03F800
03F800
03F800
03F800
03F800
03F800
03F800
03F800
03F800
03F800
03F800
03F800
03F800
03F800
03F800
03F800
03F800
03F800
03F800
03F800
03F800
03F800
03F800
03F800
03F800
03F800
03F800
03F800
03F800
03F800
ENDCHAR
STARTCHAR 00D0
ENCODING 208
SWIDTH 720 0
DWIDTH 54 0
BBX 49 55 1 0
BITMAP
03FFFFFF000000
03FFFFFFE00000
03FFFFFFF80000
03FFFFFFFE0000
03FFFFFFFF0000
03FFFFFFFFC000
03F80007FFE000
03F800007FE000
03F800003FF000
03F800000FF800
03F8000007F800
03F8000003FC00
03F8000001FC00
03F8000001FE00
03F8000000FE00
03F8000000FE00
03F80000007F00
03F80000007F00
03F80000007F00
03F80000007F00
03F80000003F80
03F80000003F80
03F80000003F80
03F80000003F80
FFFFFF80003F80
FFFFFF80003F80
FFFFFF80003F80
FFFFFF80003F80
FFFFFF80003F80
03F80000003F80
03F80000003F80
03F80000003F80
03F80000003F80
03F80000003F80
03F80000007F00
03F80000007F00
03F80000007F00
03F80000007F00
03F8000000FF00
03F8000000FE00
03F8000000FE00
03F8000001FE00
03F8000003FC00
03F8000003FC00
03F8000007F800
03F800000FF800
03F800001FF000
03F800007FE000
03F80003FFC000
03FFFFFFFF8000
03FFFFFFFF0000
03FFFFFFFE0000
03FFFFFFF80000
03FFFFFFE00000
03FFFFFF000000
ENDCHAR
STARTCHAR 00D1
ENCODING 209
SWIDTH 720 0
DWIDTH 54 0
BBX 42 69 6 0
BITMAP
0003E0078000
0007F80F8000
000FFF0F8000
001FFFFF0000
001FFFFF0000
003E1FFE0000
003E07FC0000
003C00F80000
000000000000
000000000000
000000000000
000000000000
000000000000
000000000000
FF0000000FC0
FF0000000FC0
FF8000000FC0
FF8000000FC0
FFC000000FC0
FFE000000FC0
FFE000000FC0
FFF000000FC0
FFF800000FC0
FFF800000FC0
FFFC00000FC0
FDFE00000FC0
FCFE00000FC0
FCFF00000FC0
FC7F00000FC0
FC7F80000FC0
FC3FC0000FC0
FC1FC0000FC0
FC1FE0000FC0
FC0FF0000FC0
FC07F0000FC0
FC07F8000FC0
FC03FC000FC0
FC01FC000FC0
FC01FE000FC0
FC00FE000FC0
FC00FF000FC0
FC007F800FC0
FC003F800FC0
FC003FC00FC0
FC001FE00FC0
FC000FE00FC0
FC000FF00FC0
FC0007F80FC0
FC0003F80FC0
FC0003FC0FC0
FC0001FC0FC0
FC0001FE0FC0
FC0000FF0FC0
FC00007F0FC0
FC00007F8FC0
FC00003FCFC0
FC00001FCFC0
FC00001FEFC0
FC00000FFFC0
FC00000FFFC0
FC000007FFC0
FC000003FFC0
FC000003FFC0
FC000001FFC0
FC000000FFC0
FC000000FFC0
FC0000007FC0
FC0000003FC0
FC0000003FC0
ENDCHAR
STARTCHAR 00D2
ENCODING 210
SWIDTH 773 0
DWIDTH 58 0
BBX 53 73 3 -2
BITMAP
0000FF00000000
00007F80000000
00003F80000000
00001FC0000000
00000FE0000000
000007E0000000
000003F0000000
000001F8000000
000000F8000000
0000007C000000
0000003E000000
00000000000000
00000000000000
00000000000000
00000000000000
000007FF000000
00007FFFF00000
0001FFFFFC0000
0007FFFFFF0000
001FFFFFFFC000
003FFFFFFFE000
007FFE03FFF000
00FFE0007FF800
01FF80000FFC00
03FE000007FE00
07FC000003FE00
07F8000001FF00
0FF0000000FF80
1FE00000007F80
1FE00000003FC0
3FC00000003FC0
3FC00000001FE0
3F800000001FE0
7F800000000FE0
7F000000000FE0
7F0000000007F0
7F0000000007F0
FF0000000007F0
FE0000000007F0
FE0000000007F0
FE0000000007F8
FE0000000003F8
FE0000000003F8
FE0000000003F8
FE0000000003F8
FE0000000003F8
FE0000000003F8
FE0000000003F8
FE0000000007F0
FE0000000007F0
FF0000000007F0
7F0000000007F0
7F0000000007F0
7F000000000FE0
7F800000000FE0
3F800000000FE0
3FC00000001FC0
3FC00000001FC0
1FE00000003FC0
1FE00000007F80
0FF0000000FF80
0FF8000000FF00
07FC000001FE00
03FE000007FE00
01FF80000FFC00
00FFE0003FF800
007FFE03FFF000
003FFFFFFFE000
001FFFFFFFC000
0007FFFFFF0000
0003FFFFFC0000
00007FFFF00000
000007FF000000
ENDCHAR
STARTCHAR 00D3
ENCODING 211
SWIDTH 773 0
DWIDTH 58 0
BBX 53 73 3 -2
BITMAP
0000000FF00000
0000000FE00000
0000001FC00000
0000003F800000
0000003F000000
0000007E000000
000000FC000000
000000F8000000
000001F0000000
000003E0000000
000003C0000000
00000000000000
00000000000000
00000000000000
00000000000000
000007FF000000
00007FFFF00000
0001FFFFFC0000
0007FFFFFF0000
001FFFFFFFC000
003FFFFFFFE000
007FFE03FFF000
00FFE0007FF800
01FF80000FFC00
03FE000007FE00
07FC000003FE00
07F8000001FF00
0FF0000000FF80
1FE00000007F80
1FE00000003FC0
3FC00000003FC0
3FC00000001FE0
3F800000001FE0
7F800000000FE0
7F000000000FE0
7F0000000007F0
7F0000000007F0
FF0000000007F0
FE0000000007F0
FE0000000007F0
FE0000000007F8
FE0000000003F8
FE0000000003F8
FE0000000003F8
FE0000000003F8
FE0000000003F8
FE0000000003F8
FE0000000003F8
FE0000000007F0
FE0000000007F0
FF0000000007F0
7F0000000007F0
7F0000000007F0
7F000000000FE0
7F800000000FE0
3F800000000FE0
3FC00000001FC0
3FC00000001FC0
1FE00000003FC0
1FE00000007F80
0FF0000000FF80
0FF8000000FF00
07FC000001FE00
03FE000007FE00
01FF80000FFC00
00FFE0003FF800
007FFE03FFF000
003FFFFFFFE000
001FFFFFFFC000
0007FFFFFF0000
0003FFFFFC0000
00007FFFF00000
000007FF000000
ENDCHAR
STARTCHAR 00D4
ENCODING 212
SWIDTH 773 0
DWIDTH 58 0
BBX 53 73 3 -2
BITMAP
000003FC000000
000003FE000000
000007FE000000
000007FF000000
00000FDF800000
00001F9F800000
00001F0FC00000
00003E07E00000
00007E03E00000
00007C01F00000
0000F800F80000
00000000000000
00000000000000
00000000000000
00000000000000
000007FF000000
00007FFFF00000
0001FFFFFC0000
0007FFFFFF0000
001FFFFFFFC000
003FFFFFFFE000
007FFE03FFF000
00FFE0007FF800
01FF80000FFC00
03FE000007FE00
07FC000003FE00
07F8000001FF00
0FF0000000FF80
1FE00000007F80
1FE00000003FC0
3FC00000003FC0
3FC00000001FE0
3F800000001FE0
7F800000000FE0
7F000000000FE0
7F0000000007F0
7F0000000007F0
FF0000000007F0
FE0000000007F0
FE0000000007F0
FE0000000007F8
FE0000000003F8
FE0000000003F8
FE0000000003F8
FE0000000003F8
FE0000000003F8
FE0000000003F8
FE0000000003F8
FE0000000007F0
FE0000000007F0
FF0000000007F0
7F0000000007F0
7F0000000007F0
7F000000000FE0
7F800000000FE0
3F800000000FE0
3FC00000001FC0
3FC00000001FC0
1FE00000003FC0
1FE00000007F80
0FF0000000FF80
0FF8000000FF00
07FC000001FE00
03FE000007FE00
01FF80000FFC00
00FFE0003FF800
007FFE03FFF000
003FFFFFFFE000
001FFFFFFFC000
0007FFFFFF0000
0003FFFFFC0000
00007FFFF00000
000007FF000000
ENDCHAR
STARTCHAR 00D5
ENCODING 213
SWIDTH 773 0
DWIDTH 58 0
BBX 53 71 3 -2
BITMAP
00001F003C0000
00003FC07C0000
00007FF87C0000
0000FFFFF80000
0000FFFFF80000
0001F0FFF00000
0001E03FE00000
0001E007C00000
00000000000000
00000000000000
00000000000000
00000000000000
00000000000000
000007FF000000
00007FFFF00000
0001FFFFFC0000
0007FFFFFF0000
001FFFFFFFC000
003FFFFFFFE000
007FFE03FFF000
00FFE0007FF800
01FF80000FFC00
03FE000007FE00
07FC000003FE00
07F8000001FF00
0FF0000000FF80
1FE00000007F80
1FE00000003FC0
3FC00000003FC0
3FC00000001FE0
3F800000001FE0
7F800000000FE0
7F000000000FE0
7F0000000007F0
7F0000000007F0
FF0000000007F0
FE0000000007F0
FE0000000007F0
FE0000000007F8
FE0000000003F8
FE0000000003F8
FE0000000003F8
FE0000000003F8
FE0000000003F8
FE0000000003F8
FE0000000003F8
FE0000000007F0
FE0000000007F0
FF0000000007F0
7F0000000007F0
7F0000000007F0
7F000000000FE0
7F800000000FE0
3F800000000FE0
3FC00000001FC0
3FC00000001FC0
1FE00000003FC0
1FE00000007F80
0FF0000000FF80
0FF8000000FF00
07FC000001FE00
03FE000007FE00
01FF80000FFC00
00FFE0003FF800
007FFE03FFF000
003FFFFFFFE000
001FFFFFFFC000
0007FFFFFF0000
0003FFFFFC0000
00007FFFF00000
000007FF000000
ENDCHAR
STARTCHAR 00D6
ENCODING 214
SWIDTH 773 0
DWIDTH 58 0
BBX 53 71 3 -2
BITMAP
0000FF0FF00000
0000FF0FF00000
0000FF0FF00000
0000FF0FF00000
0000FF0FF00000
0000FF0FF00000
0000FF0FF00000
0000FF0FF00000
00000000000000
00000000000000
00000000000000
00000000000000
00000000000000
000007FF000000
00007FFFF00000
0001FFFFFC0000
0007FFFFFF0000
001FFFFFFFC000
003FFFFFFFE000
007FFE03FFF000
00FFE0007FF800
01FF80000FFC00
03FE000007FE00
07FC000003FE00
07F8000001FF00
0FF0000000FF80
1FE00000007F80
1FE00000003FC0
3FC00000003FC0
3FC00000001FE0
3F800000001FE0
7F800000000FE0
7F000000000FE0
7F0000000007F0
7F0000000007F0
FF0000000007F0
FE0000000007F0
FE0000000007F0
FE0000000007F8
FE0000000003F8
FE0000000003F8
FE0000000003F8
FE0000000003F8
FE0000000003F8
FE0000000003F8
FE0000000003F8
FE0000000007F0
FE0000000007F0
FF0000000007F0
7F0000000007F0
7F0000000007F0
7F000000000FE0
7F800000000FE0
3F800000000FE0
3FC00000001FC0
3FC00000001FC0
1FE00000003FC0
1FE00000007F80
0FF0000000FF80
0FF8000000FF00
07FC000001FE00
03FE000007FE00
01FF80000FFC00
00FFE0003FF800
007FFE03FFF000
003FFFFFFFE000
001FFFFFFFC000
0007FFFFFF0000
0003FFFFFC0000
00007FFFF00000
000007FF000000
ENDCHAR
STARTCHAR 00D7
ENCODING 215
SWIDTH 586 0
DWIDTH 44 0
BBX 29 29 7 3
BITMAP
10000040
380000E0
7C0001F0
FE0003F8
7F0007F8
3F800FF0
1FC01FE0
0FE03FC0
07F07F80
03F8FF00
01FDFE00
00FFFC00
007FF800
003FF000
001FE000
003FE000
007FF000
00FFF800
01FFFC00
03FCFE00
07F87F00
0FF03F80
1FE01FC0
3FC00FE0
7F8007F0
FF0003F8
7E0001F8
3C0000F0
18000060
ENDCHAR
STARTCHAR 00D8
ENCODING 216
SWIDTH 773 0
DWIDTH 58 0
BBX 53 59 3 -2
BITMAP
00000000000040
000007FF0000F0
00007FFFE001F8
0003FFFFFC01F0
0007FFFFFF03E0
001FFFFFFF87C0
003FFFFFFFEF80
00FFFC03FFFF00
01FFE0007FFE00
03FF80001FFE00
03FE000007FE00
07FC000003FE00
0FF8000003FF00
0FF0000003FF80
1FE0000007FF80
1FC000000FBFC0
3FC000001F3FC0
3F8000003E1FC0
7F8000007C1FE0
7F000000FC0FE0
7F000001F80FE0
7F000003F00FE0
FF000007E007F0
FE00000FC007F0
FE00000F8007F0
FE00001F0007F0
FE00003E0007F0
FE00007C0007F0
FE0000F80007F0
FE0001F00007F0
FE0003F00007F0
FE0007E00007F0
FE000FC00007F0
FE001F800007F0
FE001F000007F0
FE003E000007F0
FE007C000007F0
FE00F8000007F0
7F01F000000FF0
7F03E000000FE0
7F07E000000FE0
7F8FC000001FE0
3F9F8000001FC0
3FFF0000003FC0
1FFE0000003F80
1FFC0000007F80
0FF8000000FF00
0FF8000001FF00
07FC000003FE00
07FE000007FC00
0FFF80001FFC00
1FFFE0007FF800
3FFFFC03FFF000
7E7FFFFFFFE000
FC1FFFFFFF8000
F80FFFFFFF0000
F003FFFFFC0000
6000FFFFE00000
00000FFE000000
ENDCHAR
STARTCHAR 00D9
ENCODING 217
SWIDTH 720 0
DWIDTH 54 0
BBX 42 73 6 -2
BITMAP
001FE0000000
000FF0000000
0007F0000000
0003F8000000
0001FC000000
0000FC000000
00007E000000
00003F000000
00001F000000
00000F800000
000007C00000
000000000000
000000000000
000000000000
000000000000
000000000000
FE0000001FC0
FE0000001FC0
FE0000001FC0
FE0000001FC0
FE0000001FC0
FE0000001FC0
FE0000001FC0
FE0000001FC0
FE0000001FC0
FE0000001FC0
FE0000001FC0
FE0000001FC0
FE0000001FC0
FE0000001FC0
FE0000001FC0
FE0000001FC0
FE0000001FC0
FE0000001FC0
FE0000001FC0
FE0000001FC0
FE0000001FC0
FE0000001FC0
FE0000001FC0
FE0000001FC0
FE0000001FC0
FE0000001FC0
FE0000001FC0
FE0000001FC0
FE0000001FC0
FE0000001FC0
FE0000001FC0
FE0000001FC0
FE0000001FC0
FE0000001FC0
FE0000001FC0
FE0000001FC0
FE0000001FC0
FE0000001FC0
FE0000001FC0
FE0000001FC0
FE0000001FC0
7F0000001FC0
7F0000001FC0
7F0000001FC0
7F8000003FC0
7F8000003F80
3FC000007F80
3FE00000FF00
1FF00001FF00
0FFC0007FE00
0FFFC07FFC00
07FFFFFFF800
01FFFFFFF000
00FFFFFFE000
003FFFFF8000
000FFFFE0000
0000FFE00000
ENDCHAR
STARTCHAR 00DA
ENCODING 218
SWIDTH 720 0
DWIDTH 54 0
BBX 42 73 6 -2
BITMAP
000001FE0000
000003FC0000
000003F80000
000007F00000
00000FE00000
00000FC00000
00001F800000
00003F000000
00003E000000
00007C000000
0000F8000000
000000000000
000000000000
000000000000
000000000000
000000000000
FE0000001FC0
FE0000001FC0
FE0000001FC0
FE0000001FC0
FE0000001FC0
FE0000001FC0
FE0000001FC0
FE0000001FC0
FE0000001FC0
FE0000001FC0
FE0000001FC0
FE0000001FC0
FE0000001FC0
FE0000001FC0
FE0000001FC0
FE0000001FC0
FE0000001FC0
FE0000001FC0
FE0000001FC0
FE0000001FC0
FE0000001FC0
FE0000001FC0
FE0000001FC0
FE0000001FC0
FE0000001FC0
FE0000001FC0
FE0000001FC0
FE0000001FC0
FE0000001FC0
FE0000001FC0
FE0000001FC0
FE0000001FC0
FE0000001FC0
FE0000001FC0
FE0000001FC0
FE0000001FC0
FE0000001FC0
FE0000001FC0
FE0000001FC0
FE0000001FC0
FE0000001FC0
7F0000001FC0
7F0000001FC0
7F0000001FC0
7F8000003FC0
7F8000003F80
3FC000007F80
3FE00000FF00
1FF00001FF00
0FFC0007FE00
0FFFC07FFC00
07FFFFFFF800
01FFFFFFF000
00FFFFFFE000
003FFFFF8000
000FFFFE0000
0000FFE00000
ENDCHAR
STARTCHAR 00DB
ENCODING 219
SWIDTH 720 0
DWIDTH 54 0
BBX 42 73 6 -2
BITMAP
00003F800000
00007FC00000
0000FFC00000
0000FFE00000
0001FBF00000
0003F3F00000
0003E1F80000
0007E0FC0000
0007C07C0000
000F803E0000
001F001F0000
000000000000
000000000000
000000000000
000000000000
000000000000
FE0000001FC0
FE0000001FC0
FE0000001FC0
FE0000001FC0
FE0000001FC0
FE0000001FC0
FE0000001FC0
FE0000001FC0
FE0000001FC0
FE0000001FC0
FE0000001FC0
FE0000001FC0
FE0000001FC0
FE0000001FC0
FE0000001FC0
FE0000001FC0
FE0000001FC0
FE0000001FC0
FE0000001FC0
FE0000001FC0
FE0000001FC0
FE0000001FC0
FE0000001FC0
FE0000001FC0
FE0000001FC0
FE0000001FC0
FE0000001FC0
FE0000001FC0
FE0000001FC0
FE0000001FC0
FE0000001FC0
FE0000001FC0
FE0000001FC0
FE0000001FC0
FE0000001FC0
FE0000001FC0
FE0000001FC0
FE0000001FC0
FE0000001FC0
FE0000001FC0
FE0000001FC0
7F0000001FC0
7F0000001FC0
7F0000001FC0
7F8000003FC0
7F8000003F80
3FC000007F80
3FE00000FF00
1FF00001FF00
0FFC0007FE00
0FFFC07FFC00
07FFFFFFF800
01FFFFFFF000
00FFFFFFE000
003FFFFF8000
000FFFFE0000
0000FFE00000
ENDCHAR
STARTCHAR 00DC
ENCODING 220
SWIDTH 720 0
DWIDTH 54 0
BBX 42 71 6 -2
BITMAP
001FE0FE0000
001FE0FE0000
001FE0FE0000
001FE0FE0000
001FE0FE0000
001FE0FE0000
001FE0FE0000
001FE0FE0000
000000000000
000000000000
000000000000
000000000000
000000000000
000000000000
FE0000001FC0
FE0000001FC0
FE0000001FC0
FE0000001FC0
FE0000001FC0
FE0000001FC0
FE0000001FC0
FE0000001FC0
FE0000001FC0
FE0000001FC0
FE0000001FC0
FE0000001FC0
FE0000001FC0
FE0000001FC0
FE0000001FC0
FE0000001FC0
FE0000001FC0
FE0000001FC0
FE0000001FC0
FE0000001FC0
FE0000001FC0
FE0000001FC0
FE0000001FC0
FE0000001FC0
FE0000001FC0
FE0000001FC0
FE0000001FC0
FE0000001FC0
FE0000001FC0
FE0000001FC0
FE0000001FC0
FE0000001FC0
FE0000001FC0
FE0000001FC0
FE0000001FC0
FE0000001FC0
FE0000001FC0
FE0000001FC0
FE0000001FC0
FE0000001FC0
FE0000001FC0
7F0000001FC0
7F0000001FC0
7F0000001FC0
7F8000003FC0
7F8000003F80
3FC000007F80
3FE00000FF00
1FF00001FF00
0FFC0007FE00
0FFFC07FFC00
07FFFFFFF800
01FFFFFFF000
00FFFFFFE000
003FFFFF8000
000FFFFE0000
0000FFE00000
ENDCHAR
STARTCHAR 00DD
ENCODING 221
SWIDTH 666 0
DWIDTH 50 0
BBX 48 71 1 0
BITMAP
0000003FE000
0000003FC000
0000007F8000
000000FF0000
000000FE0000
000001FC0000
000003F80000
000003F00000
000007E00000
00000FC00000
00000F800000
000000000000
000000000000
000000000000
000000000000
000000000000
FF80000000FF
7FC0000001FF
3FC0000001FE
3FE0000003FC
1FE0000003FC
1FF0000007F8
0FF000000FF0
07F800000FF0
07FC00001FE0
03FC00001FE0
01FE00003FC0
01FE00007F80
00FF00007F80
00FF8000FF00
007F8000FF00
003FC001FE00
003FC001FC00
001FE003FC00
000FF007F800
000FF007F800
0007F80FF000
0007F80FE000
0003FC1FE000
0001FE3FC000
0001FE3F8000
0000FF7F8000
00007F7F0000
00007FFF0000
00003FFE0000
00003FFC0000
00001FFC0000
00000FF80000
00000FF80000
000007F00000
000007F00000
000007F00000
000007F00000
000007F00000
000007F00000
000007F00000
000007F00000
000007F00000
000007F00000
000007F00000
000007F00000
000007F00000
000007F00000
000007F00000
000007F00000
000007F00000
000007F00000
000007F00000
000007F00000
000007F00000
000007F00000
ENDCHAR
STARTCHAR 00DE
ENCODING 222
SWIDTH 666 0
DWIDTH 50 0
BBX 39 55 7 0
BITMAP
FE00000000
FE00000000
FE00000000
FE00000000
FE00000000
FE00000000
FE00000000
FE00000000
FE00000000
FFFFFFE000
FFFFFFFE00
FFFFFFFF00
FFFFFFFFC0
FFFFFFFFE0
FFFFFFFFF0
FE0000FFF8
FE00001FF8
FE000007FC
FE000003FC
FE000003FC
FE000001FE
FE000001FE
FE000001FE
FE000000FE
FE000000FE
FE000000FE
FE000000FE
FE000001FE
FE000001FE
FE000001FE
FE000003FC
FE000003FC
FE000007FC
FE00001FF8
FE00007FF8
FFFFFFFFF0
FFFFFFFFE0
FFFFFFFFC0
FFFFFFFF80
FFFFFFFE00
FFFFFFF000
FE00000000
FE00000000
FE00000000
FE00000000
FE00000000
FE00000000
FE00000000
FE00000000
FE00000000
FE00000000
FE00000000
FE00000000
FE00000000
FE00000000
ENDCHAR
STARTCHAR 00DF
ENCODING 223
SWIDTH 613 0
DWIDTH 46 0
BBX 37 56 5 -1
BITMAP
0007FE0000
007FFFC000
01FFFFF000
07FFFFF800
0FFFFFFC00
1FFFFFFE00
3FF807FF00
3FC000FF80
7F80007F80
7F00003F80
7E00001FC0
FE00001FC0
FE00001FC0
FE00001FC0
FC00001FC0
FC00001FC0
FC00001FC0
FC00001F80
FC00003F80
FC00007F00
FC0000FF00
FC0003FE00
FC01FFF800
FC01FFE000
FC01FF8000
FC01FFF000
FC01FFFC00
FC01FFFE00
FC003FFF80
FC0000FFC0
FC00003FC0
FC00001FE0
FC00000FF0
FC000007F0
FC000007F0
FC000003F0
FC000003F8
FC000003F8
FC000003F8
FC000003F8
FC000003F8
FC000003F0
FC000007F0
FC000007F0
FC000007F0
FC00000FE0
FC00001FE0
FC00003FC0
FC0000FFC0
FC0007FF80
FC03FFFF00
FC03FFFE00
FC03FFFC00
FC03FFF000
FC03FFC000
0003FE0000
ENDCHAR
STARTCHAR 00E0
ENCODING 224
SWIDTH 560 0
DWIDTH 42 0
BBX 37 58 3 -2
BITMAP
00FF000000
007F800000
003F800000
001FC00000
000FE00000
000FE00000
0007F00000
0003F00000
0001F80000
0000FC0000
00007C0000
00003E0000
0000000000
0000000000
0000000000
0000000000
0007FE0000
007FFFE000
01FFFFF000
03FFFFFC00
07FFFFFE00
0FFFFFFE00
1FF803FF00
1FE000FF00
3FC0007F00
3F80003F00
3F80003F00
3F00003F00
3F00003F00
0000003F00
0000003F00
0000003F00
000000FF00
00000FFF00
0007FFFF00
00FFFFFF00
03FFFFFF00
0FFFFFBF00
1FFFF03F00
3FFC003F00
3FE0003F00
7F80003F00
7F00003F00
FE00003F00
FE00003F00
FE00003F00
FE00003F00
FE00007F00
FE0000FF00
FF0001FF00
7F0003FF80
7FC00FFF80
3FFDFFFFC0
3FFFFF9FF8
1FFFFF1FF8
0FFFFC1FF8
03FFF00FF8
007F8003F0
ENDCHAR
STARTCHAR 00E1
ENCODING 225
SWIDTH 560 0
DWIDTH 42 0
BBX 37 58 3 -2
BITMAP
00001FF000
00001FE000
00003FC000
00003F8000
00007F0000
0000FE0000
0000FC0000
0001F80000
0001F00000
0003E00000
0007C00000
0007800000
0000000000
0000000000
0000000000
0000000000
0007FE0000
007FFFE000
01FFFFF000
03FFFFFC00
07FFFFFE00
0FFFFFFE00
1FF803FF00
1FE000FF00
3FC0007F00
3F80003F00
3F80003F00
3F00003F00
3F00003F00
0000003F00
0000003F00
0000003F00
000000FF00
00000FFF00
0007FFFF00
00FFFFFF00
03FFFFFF00
0FFFFFBF00
1FFFF03F00
3FFC003F00
3FE0003F00
7F80003F00
7F00003F00
FE00003F00
FE00003F00
FE00003F00
FE00003F00
FE00007F00
FE0000FF00
FF0001FF00
7F0003FF80
7FC00FFF80
3FFDFFFFC0
3FFFFF9FF8
1FFFFF1FF8
0FFFFC1FF8
03FFF00FF8
007F8003F0
ENDCHAR
STARTCHAR 00E2
ENCODING 226
SWIDTH 560 0
DWIDTH 42 0
BBX 37 58 3 -2
BITMAP
0003F80000
0007FC0000
0007FE0000
000FFE0000
001FBF0000
001F9F8000
003F1F8000
003E0FC000
007C07C000
00FC03E000
00F801F000
01F001F000
0000000000
0000000000
0000000000
0000000000
0007FE0000
007FFFE000
01FFFFF000
03FFFFFC00
07FFFFFE00
0FFFFFFE00
1FF803FF00
1FE000FF00
3FC0007F00
3F80003F00
3F80003F00
3F00003F00
3F00003F00
0000003F00
0000003F00
0000003F00
000000FF00
00000FFF00
0007FFFF00
00FFFFFF00
03FFFFFF00
0FFFFFBF00
1FFFF03F00
3FFC003F00
3FE0003F00
7F80003F00
7F00003F00
FE00003F00
FE00003F00
FE00003F00
FE00003F00
FE00007F00
FE0000FF00
FF0001FF00
7F0003FF80
7FC00FFF80
3FFDFFFFC0
3FFFFF9FF8
1FFFFF1FF8
0FFFFC1FF8
03FFF00FF8
007F8003F0
ENDCHAR
STARTCHAR 00E3
ENCODING 227
SWIDTH 560 0
DWIDTH 42 0
BBX 37 56 3 -2
BITMAP
003E007800
007F807800
00FFF0F800
01FFFFF800
01FFFFF000
03E1FFE000
03E07FE000
03C00F8000
0000000000
0000000000
0000000000
0000000000
0000000000
0000000000
0007FE0000
007FFFE000
01FFFFF000
03FFFFFC00
07FFFFFE00
0FFFFFFE00
1FF803FF00
1FE000FF00
3FC0007F00
3F80003F00
3F80003F00
3F00003F00
3F00003F00
0000003F00
0000003F00
0000003F00
000000FF00
00000FFF00
0007FFFF00
00FFFFFF00
03FFFFFF00
0FFFFFBF00
1FFFF03F00
3FFC003F00
3FE0003F00
7F80003F00
7F00003F00
FE00003F00
FE00003F00
FE00003F00
FE00003F00
FE00007F00
FE0000FF00
FF0001FF00
7F0003FF80
7FC00FFF80
3FFDFFFFC0
3FFFFF9FF8
1FFFFF1FF8
0FFFFC1FF8
03FFF00FF8
007F8003F0
ENDCHAR
STARTCHAR 00E4
ENCODING 228
SWIDTH 560 0
DWIDTH 42 0
BBX 37 56 3 -2
BITMAP
01FE0FE000
01FE0FE000
01FE0FE000
01FE0FE000
01FE0FE000
01FE0FE000
01FE0FE000
01FE0FE000
0000000000
0000000000
0000000000
0000000000
0000000000
0000000000
0007FE0000
007FFFE000
01FFFFF000
03FFFFFC00
07FFFFFE00
0FFFFFFE00
1FF803FF00
1FE000FF00
3FC0007F00
3F80003F00
3F80003F00
3F00003F00
3F00003F00
0000003F00
0000003F00
0000003F00
000000FF00
00000FFF00
0007FFFF00
00FFFFFF00
03FFFFFF00
0FFFFFBF00
1FFFF03F00
3FFC003F00
3FE0003F00
7F80003F00
7F00003F00
FE00003F00
FE00003F00
FE00003F00
FE00003F00
FE00007F00
FE0000FF00
FF0001FF00
7F0003FF80
7FC00FFF80
3FFDFFFFC0
3FFFFF9FF8
1FFFFF1FF8
0FFFFC1FF8
03FFF00FF8
007F8003F0
ENDCHAR
STARTCHAR 00E5
ENCODING 229
SWIDTH 560 0
DWIDTH 42 0
BBX 37 58 3 -2
BITMAP
0001F00000
0007FC0000
000FFE0000
000F9F0000
001E0F0000
001E070000
001C070000
001E070000
001E0F0000
000F9E0000
000FFE0000
0007FC0000
0001F00000
0000000000
0000000000
0000000000
0007FE0000
007FFFE000
01FFFFF000
03FFFFFC00
07FFFFFE00
0FFFFFFE00
1FF803FF00
1FE000FF00
3FC0007F00
3F80003F00
3F80003F00
3F00003F00
3F00003F00
0000003F00
0000003F00
0000003F00
000000FF00
00000FFF00
0007FFFF00
00FFFFFF00
03FFFFFF00
0FFFFFBF00
1FFFF03F00
3FFC003F00
3FE0003F00
7F80003F00
7F00003F00
FE00003F00
FE00003F00
FE00003F00
FE00003F00
FE00007F00
FE0000FF00
FF0001FF00
7F0003FF80
7FC00FFF80
3FFDFFFFC0
3FFFFF9FF8
1FFFFF1FF8
0FFFFC1FF8
03FFF00FF8
007F8003F0
ENDCHAR
STARTCHAR 00E6
ENCODING 230
SWIDTH 893 0
DWIDTH 67 0
BBX 60 42 3 -2
BITMAP
000FFC0001FE0000
007FFF800FFFC000
01FFFFE03FFFF000
07FFFFF0FFFFFC00
0FFFFFF9FFFFFE00
1FFFFFFDFFFFFF00
1FF003FFFE01FF80
3FC000FFF8007F80
3F80007FF0003FC0
3F80007FE0001FC0
7F00007FC0000FE0
7F00003F80000FE0
7F00003F800007F0
0000003F000007F0
0000007F000007F0
0000007F000007F0
000000FF000003F0
000007FF000003F0
0007FFFFFFFFFFF0
00FFFFFFFFFFFFF0
03FFFFFFFFFFFFF0
0FFFFFBFFFFFFFF0
1FFFF83FFFFFFFF0
3FFE003E00000000
7FE0003F00000000
7F80003F00000000
FE00003F00000000
FE00003F00000000
FC00003F000003F0
FC00007F800007E0
FC00007F800007E0
FC0000FFC0000FE0
FC0001FFE0001FC0
FE0003FFF0003FC0
FF0007F7F8007F80
7F801FE7FE01FF80
7FFBFF83FFFFFF00
3FFFFF01FFFFFE00
1FFFFE00FFFFFC00
0FFFF8007FFFF000
07FFE0001FFFC000
00FF000003FE0000
ENDCHAR
STARTCHAR 00E7
ENCODING 231
SWIDTH 506 0
DWIDTH 38 0
BBX 34 56 2 -16
BITMAP
0003FC0000
001FFF8000
007FFFE000
01FFFFF000
03FFFFFC00
07FFFFFC00
07FC03FE00
0FF001FF00
1FE0007F00
1FC0007F80
3F80003F80
3F80003F80
3F00001F80
7F00001F80
7F00000000
7E00000000
7E00000000
7E00000000
FE00000000
FE00000000
FE00000000
FE00000000
FE00000000
FE00000000
FE00000000
7E00000000
7E00000000
7F00001FC0
7F00001FC0
7F00001F80
3F80003F80
3F80003F80
1FC0007F80
1FE000FF00
0FF001FF00
0FFE07FE00
07FFFFFC00
03FFFFF800
01FFFFF000
007FFFE000
001FFF0000
0001F00000
0003800000
0003800000
0003FC0000
0007FF0000
0007FF0000
00003F8000
00001F8000
00001F8000
00001F8000
01C01F0000
01F07F0000
03FFFE0000
00FFFC0000
001FF00000
ENDCHAR
STARTCHAR 00E8
ENCODING 232
SWIDTH 560 0
DWIDTH 42 0
BBX 35 58 3 -2
BITMAP
00FF000000
007F800000
003F800000
001FC00000
000FE00000
0007E00000
0003F00000
0001F00000
0001F80000
0000FC0000
00007C0000
00003E0000
0000000000
0000000000
0000000000
0000000000
0003FC0000
001FFF8000
007FFFE000
01FFFFF800
03FFFFFC00
07FFFFFE00
0FFC03FF00
0FF000FF00
1FE0007F80
1FC0003FC0
3F80001FC0
3F00001FC0
7F00000FE0
7F00000FE0
7E00000FE0
7E000007E0
FE000007E0
FE000007E0
FFFFFFFFE0
FFFFFFFFE0
FFFFFFFFE0
FFFFFFFFE0
FFFFFFFFE0
FE00000000
FE00000000
FE00000000
FE00000000
7E00000000
7E00000000
7F00000FC0
7F00000FC0
3F80001FC0
3FC0003F80
1FE0007F80
1FF000FF00
0FFC03FF00
07FFFFFE00
03FFFFFC00
01FFFFF800
00FFFFE000
003FFFC000
0007FC0000
ENDCHAR
STARTCHAR 00E9
ENCODING 233
SWIDTH 560 0
DWIDTH 42 0
BBX 35 58 3 -2
BITMAP
00000FF000
00001FE000
00001FC000
00003F8000
00007F0000
00007E0000
0000FC0000
0001F80000
0001F00000
0003F00000
0003E00000
0007C00000
0000000000
0000000000
0000000000
0000000000
0003FC0000
001FFF8000
007FFFE000
01FFFFF800
03FFFFFC00
07FFFFFE00
0FFC03FF00
0FF000FF00
1FE0007F80
1FC0003FC0
3F80001FC0
3F00001FC0
7F00000FE0
7F00000FE0
7E00000FE0
7E000007E0
FE000007E0
FE000007E0
FFFFFFFFE0
FFFFFFFFE0
FFFFFFFFE0
FFFFFFFFE0
FFFFFFFFE0
FE00000000
FE00000000
FE00000000
FE00000000
7E00000000
7E00000000
7F00000FC0
7F00000FC0
3F80001FC0
3FC0003F80
1FE0007F80
1FF000FF00
0FFC03FF00
07FFFFFE00
03FFFFFC00
01FFFFF800
00FFFFE000
003FFFC000
0007FC0000
ENDCHAR
STARTCHAR 00EA
ENCODING 234
SWIDTH 560 0
DWIDTH 42 0
BBX 35 58 3 -2
BITMAP
0001FC0000
0003FE0000
0007FF0000
0007FF0000
000FDF8000
000F9F8000
001F8FC000
003F07E000
003E03E000
007C01F000
007C01F000
00F800F800
0000000000
0000000000
0000000000
0000000000
0003FC0000
001FFF8000
007FFFE000
01FFFFF800
03FFFFFC00
07FFFFFE00
0FFC03FF00
0FF000FF00
1FE0007F80
1FC0003FC0
3F80001FC0
3F00001FC0
7F00000FE0
7F00000FE0
7E00000FE0
7E000007E0
FE000007E0
FE000007E0
FFFFFFFFE0
FFFFFFFFE0
FFFFFFFFE0
FFFFFFFFE0
FFFFFFFFE0
FE00000000
FE00000000
FE00000000
FE00000000
7E00000000
7E00000000
7F00000FC0
7F00000FC0
3F80001FC0
3FC0003F80
1FE0007F80
1FF000FF00
0FFC03FF00
07FFFFFE00
03FFFFFC00
01FFFFF800
00FFFFE000
003FFFC000
0007FC0000
ENDCHAR
STARTCHAR 00EB
ENCODING 235
SWIDTH 560 0
DWIDTH 42 0
BBX 35 56 3 -2
BITMAP
00FF07F000
00FF07F000
00FF07F000
00FF07F000
00FF07F000
00FF07F000
00FF07F000
00FF07F000
0000000000
0000000000
0000000000
0000000000
0000000000
0000000000
0003FC0000
001FFF8000
007FFFE000
01FFFFF800
03FFFFFC00
07FFFFFE00
0FFC03FF00
0FF000FF00
1FE0007F80
1FC0003FC0
3F80001FC0
3F00001FC0
7F00000FE0
7F00000FE0
7E00000FE0
7E000007E0
FE000007E0
FE000007E0
FFFFFFFFE0
FFFFFFFFE0
FFFFFFFFE0
FFFFFFFFE0
FFFFFFFFE0
FE00000000
FE00000000
FE00000000
FE00000000
7E00000000
7E00000000
7F00000FC0
7F00000FC0
3F80001FC0
3FC0003F80
1FE0007F80
1FF000FF00
0FFC03FF00
07FFFFFE00
03FFFFFC00
01FFFFF800
00FFFFE000
003FFFC000
0007FC0000
ENDCHAR
STARTCHAR 00EC
ENCODING 236
SWIDTH 280 0
DWIDTH 21 0
BBX 15 56 0 0
BITMAP
FF00
7F80
3FC0
1FC0
0FE0
07F0
03F0
01F8
00F8
007C
003E
001E
0000
0000
0000
0000
0000
01F8
01F8
01F8
01F8
01F8
01F8
01F8
01F8
01F8
01F8
01F8
01F8
01F8
01F8
01F8
01F8
01F8
01F8
01F8
01F8
01F8
01F8
01F8
01F8
01F8
01F8
01F8
01F8
01F8
01F8
01F8
01F8
01F8
01F8
01F8
01F8
01F8
01F8
01F8
ENDCHAR
STARTCHAR 00ED
ENCODING 237
SWIDTH 280 0
DWIDTH 21 0
BBX 15 56 5 0
BITMAP
01FE
03FC
03F8
07F0
0FE0
0FC0
1F80
3F00
3E00
7C00
7800
F000
0000
0000
0000
0000
0000
3F00
3F00
3F00
3F00
3F00
3F00
3F00
3F00
3F00
3F00
3F00
3F00
3F00
3F00
3F00
3F00
3F00
3F00
3F00
3F00
3F00
3F00
3F00
3F00
3F00
3F00
3F00
3F00
3F00
3F00
3F00
3F00
3F00
3F00
3F00
3F00
3F00
3F00
3F00
ENDCHAR
STARTCHAR 00EE
ENCODING 238
SWIDTH 280 0
DWIDTH 21 0
BBX 21 56 0 0
BITMAP
03FC00
03FE00
07FE00
07FF00
0FFF80
1F9F80
1F0FC0
3F07C0
7E03E0
7C03F0
F801F0
F000F8
000000
000000
000000
000000
000000
01F800
01F800
01F800
01F800
01F800
01F800
01F800
01F800
01F800
01F800
01F800
01F800
01F800
01F800
01F800
01F800
01F800
01F800
01F800
01F800
01F800
01F800
01F800
01F800
01F800
01F800
01F800
01F800
01F800
01F800
01F800
01F800
01F800
01F800
01F800
01F800
01F800
01F800
01F800
ENDCHAR
STARTCHAR 00EF
ENCODING 239
SWIDTH 280 0
DWIDTH 21 0
BBX 20 53 0 0
BITMAP
FF0FF0
FF0FF0
FF0FF0
FF0FF0
FF0FF0
FF0FF0
FF0FF0
FF0FF0
000000
000000
000000
000000
000000
000000
01F800
01F800
01F800
01F800
01F800
01F800
01F800
01F800
01F800
01F800
01F800
01F800
01F800
01F800
01F800
01F800
01F800
01F800
01F800
01F800
01F800
01F800
01F800
01F800
01F800
01F800
01F800
01F800
01F800
01F800
01F800
01F800
01F800
01F800
01F800
01F800
01F800
01F800
01F800
ENDCHAR
STARTCHAR 00F0
ENCODING 240
SWIDTH 560 0
DWIDTH 42 0
BBX 35 57 3 -2
BITMAP
0380000000
07E0060000
0FF81F0000
07FC7F8000
01FFFF0000
00FFFC0000
007FE00000
00FFF00000
03FFF80000
0FFBFC0000
0FE1FE0000
0780FF8000
02007F8000
00003FC000
00001FE000
000FEFF000
007FFFF800
00FFFFFC00
03FFFFFC00
07FFFFFE00
0FFFFFFE00
1FF803FF00
1FE001FF00
3FC0007F80
3F80003F80
7F80003FC0
7F00001FC0
7F00001FC0
FE00000FE0
FE00000FE0
FE00000FE0
FE00000FE0
FC00000FE0
FC000007E0
FC000007E0
FC000007E0
FC000007E0
FC000007E0
FC000007E0
FC000007E0
FE00000FE0
FE00000FE0
FE00000FE0
7E00000FC0
7F00001FC0
7F00001FC0
7F80003FC0
3FC0007F80
3FC0007F80
1FF001FF00
0FFC07FE00
0FFFFFFE00
07FFFFFC00
03FFFFF800
00FFFFE000
003FFF8000
0007FC0000
ENDCHAR
STARTCHAR 00F1
ENCODING 241
SWIDTH 560 0
DWIDTH 42 0
BBX 32 54 5 0
BITMAP
00F801F0
01FF01E0
03FFC3E0
03FFFFE0
07FFFFC0
07C7FFC0
0F80FF80
0F803E00
00000000
00000000
00000000
00000000
00000000
00000000
0003FE00
FC0FFFC0
FC3FFFF0
FC7FFFF8
FCFFFFFC
FCFFFFFC
FDF803FE
FFE001FE
FFC000FE
FF80007E
FF00007F
FF00007F
FF00007F
FE00007F
FE00007F
FE00007F
FE00007F
FE00007F
FE00007F
FE00007F
FE00007F
FE00007F
FE00007F
FE00007F
FE00007F
FE00007F
FE00007F
FE00007F
FE00007F
FE00007F
FE00007F
FE00007F
FE00007F
FE00007F
FE00007F
FE00007F
FE00007F
FE00007F
FE00007F
FE00007F
ENDCHAR
STARTCHAR 00F2
ENCODING 242
SWIDTH 560 0
DWIDTH 42 0
BBX 35 58 3 -2
BITMAP
01FF000000
00FF000000
007F800000
003FC00000
001FC00000
000FE00000
0007E00000
0003F00000
0001F80000
0000F80000
00007C0000
00003C0000
0000000000
0000000000
0000000000
0000000000
0007FC0000
003FFF8000
00FFFFE000
01FFFFF800
07FFFFFC00
0FFFFFFE00
0FFC07FE00
1FF001FF00
3FC0007F80
3FC0007F80
3F80003FC0
7F00001FC0
7F00001FC0
7E00000FC0
FE00000FE0
FE00000FE0
FE00000FE0
FC00000FE0
FC000007E0
FC000007E0
FC000007E0
FC000007E0
FC000007E0
FC000007E0
FC000007E0
FE00000FE0
FE00000FE0
FE00000FE0
7E00000FC0
7F00001FC0
7F00001FC0
7F80003F80
3FC0007F80
3FC0007F80
1FF001FF00
0FFC07FE00
0FFFFFFC00
07FFFFFC00
03FFFFF000
00FFFFE000
003FFF8000
0007FC0000
ENDCHAR
STARTCHAR 00F3
ENCODING 243
SWIDTH 560 0
DWIDTH 42 0
BBX 35 58 3 -2
BITMAP
00001FE000
00003FC000
00003F8000
00007F0000
00007F0000
0000FE0000
0001FC0000
0001F80000
0003F00000
0003E00000
0007C00000
000F800000
0000000000
0000000000
0000000000
0000000000
0007FC0000
003FFF8000
00FFFFE000
01FFFFF800
07FFFFFC00
0FFFFFFE00
0FFC07FE00
1FF001FF00
3FC0007F80
3FC0007F80
3F80003FC0
7F00001FC0
7F00001FC0
7E00000FC0
FE00000FE0
FE00000FE0
FE00000FE0
FC00000FE0
FC000007E0
FC000007E0
FC000007E0
FC000007E0
FC000007E0
FC000007E0
FC000007E0
FE00000FE0
FE00000FE0
FE00000FE0
7E00000FC0
7F00001FC0
7F00001FC0
7F80003F80
3FC0007F80
3FC0007F80
1FF001FF00
0FFC07FE00
0FFFFFFC00
07FFFFFC00
03FFFFF000
00FFFFE000
003FFF8000
0007FC0000
ENDCHAR
STARTCHAR 00F4
ENCODING 244
SWIDTH 560 0
DWIDTH 42 0
BBX 35 58 3 -2
BITMAP
0003F80000
0007FC0000
000FFE0000
000FFE0000
001FBF0000
001F3F0000
003F1F8000
007E0FC000
007C07C000
00F803E000
00F803E000
01F001F000
0000000000
0000000000
0000000000
0000000000
0007FC0000
003FFF8000
00FFFFE000
01FFFFF800
07FFFFFC00
0FFFFFFE00
0FFC07FE00
1FF001FF00
3FC0007F80
3FC0007F80
3F80003FC0
7F00001FC0
7F00001FC0
7E00000FC0
FE00000FE0
FE00000FE0
FE00000FE0
FC00000FE0
FC000007E0
FC000007E0
FC000007E0
FC000007E0
FC000007E0
FC000007E0
FC000007E0
FE00000FE0
FE00000FE0
FE00000FE0
7E00000FC0
7F00001FC0
7F00001FC0
7F80003F80
3FC0007F80
3FC0007F80
1FF001FF00
0FFC07FE00
0FFFFFFC00
07FFFFFC00
03FFFFF000
00FFFFE000
003FFF8000
0007FC0000
ENDCHAR
STARTCHAR 00F5
ENCODING 245
SWIDTH 560 0
DWIDTH 42 0
BBX 35 56 3 -2
BITMAP
003E007800
007F807800
00FFF0F800
01FFFFF800
01FFFFF000
03E1FFF000
03E03FE000
03C00F8000
0000000000
0000000000
0000000000
0000000000
0000000000
0000000000
0007FC0000
003FFF8000
00FFFFE000
01FFFFF800
07FFFFFC00
0FFFFFFE00
0FFC07FE00
1FF001FF00
3FC0007F80
3FC0007F80
3F80003FC0
7F00001FC0
7F00001FC0
7E00000FC0
FE00000FE0
FE00000FE0
FE00000FE0
FC00000FE0
FC000007E0
FC000007E0
FC000007E0
FC000007E0
FC000007E0
FC000007E0
FC000007E0
FE00000FE0
FE00000FE0
FE00000FE0
7E00000FC0
7F00001FC0
7F00001FC0
7F80003F80
3FC0007F80
3FC0007F80
1FF001FF00
0FFC07FE00
0FFFFFFC00
07FFFFFC00
03FFFFF000
00FFFFE000
003FFF8000
0007FC0000
ENDCHAR
STARTCHAR 00F6
ENCODING 246
SWIDTH 560 0
DWIDTH 42 0
BBX 35 56 3 -2
BITMAP
01FE0FE000
01FE0FE000
01FE0FE000
01FE0FE000
01FE0FE000
01FE0FE000
01FE0FE000
01FE0FE000
0000000000
0000000000
0000000000
0000000000
0000000000
0000000000
0007FC0000
003FFF8000
00FFFFE000
01FFFFF800
07FFFFFC00
0FFFFFFE00
0FFC07FE00
1FF001FF00
3FC0007F80
3FC0007F80
3F80003FC0
7F00001FC0
7F00001FC0
7E00000FC0
FE00000FE0
FE00000FE0
FE00000FE0
FC00000FE0
FC000007E0
FC000007E0
FC000007E0
FC000007E0
FC000007E0
FC000007E0
FC000007E0
FE00000FE0
FE00000FE0
FE00000FE0
7E00000FC0
7F00001FC0
7F00001FC0
7F80003F80
3FC0007F80
3FC0007F80
1FF001FF00
0FFC07FE00
0FFFFFFC00
07FFFFFC00
03FFFFF000
00FFFFE000
003FFF8000
0007FC0000
ENDCHAR
STARTCHAR 00F7
ENCODING 247
SWIDTH 586 0
DWIDTH 44 0
BBX 36 35 4 0
BITMAP
0003FC0000
0003FC0000
0003FC0000
0003FC0000
0003FC0000
0003FC0000
0003FC0000
0003FC0000
0000000000
0000000000
0000000000
0000000000
0000000000
0000000000
0000000000
FFFFFFFFF0
FFFFFFFFF0
FFFFFFFFF0
FFFFFFFFF0
FFFFFFFFF0
0000000000
0000000000
0000000000
0000000000
0000000000
0000000000
0000000000
0003FC0000
0003FC0000
0003FC0000
0003FC0000
0003FC0000
0003FC0000
0003FC0000
0003FC0000
ENDCHAR
STARTCHAR 00F8
ENCODING 248
SWIDTH 613 0
DWIDTH 46 0
BBX 38 42 1 -3
BITMAP
0001FF0008
000FFFE01C
003FFFF83C
007FFFFC78
01FFFFFFF8
03FFFFFFF0
03FF01FFE0
07FC007FC0
0FF0001FE0
0FF0000FE0
0FE0001FF0
1FC0003FF0
1FC0007FF0
1F8000FBF0
3F8001F3F8
3F8001E3F8
3F8003C3F8
3F000781F8
3F000F01F8
3F001E01F8
3F003C01F8
3F007801F8
3F00F801F8
3F01F001F8
3F03E001F8
3F83C003F8
3F878003F8
3F8F0003F8
3F9E0003F0
1FFC0007F0
1FF80007F0
1FF8000FE0
0FF0001FE0
0FF0001FE0
07FC007FC0
07FF00FF80
0FFFFFFF00
1FFFFFFF00
3C7FFFFC00
783FFFF800
F80FFFE000
3001FF0000
ENDCHAR
STARTCHAR 00F9
ENCODING 249
SWIDTH 560 0
DWIDTH 42 0
BBX 31 58 5 -2
BITMAP
07FC0000
03FC0000
01FE0000
00FE0000
007F0000
003F8000
001F8000
000FC000
0007E000
0003E000
0001F000
00000000
00000000
00000000
00000000
00000000
00000000
FC00007E
FC00007E
FC00007E
FC00007E
FC00007E
FC00007E
FC00007E
FC00007E
FC00007E
FC00007E
FC00007E
FC00007E
FC00007E
FC00007E
FC00007E
FC00007E
FC00007E
FC00007E
FC00007E
FC00007E
FC00007E
FC00007E
FC00007E
FC00007E
FC00007E
FC00007E
FC00007E
FC0000FE
FC0000FE
FC0000FE
FE0001FE
FE0003FE
FF0003FE
FF000FFE
7FC01FBE
7FFDFF3E
3FFFFE3E
1FFFFC3E
0FFFF83E
07FFE000
00FF0000
ENDCHAR
STARTCHAR 00FA
ENCODING 250
SWIDTH 560 0
DWIDTH 42 0
BBX 31 58 5 -2
BITMAP
00007F80
0000FF00
0000FE00
0001FC00
0003F800
0003F000
0007E000
000FC000
000F8000
001F0000
003E0000
00000000
00000000
00000000
00000000
00000000
00000000
FC00007E
FC00007E
FC00007E
FC00007E
FC00007E
FC00007E
FC00007E
FC00007E
FC00007E
FC00007E
FC00007E
FC00007E
FC00007E
FC00007E
FC00007E
FC00007E
FC00007E
FC00007E
FC00007E
FC00007E
FC00007E
FC00007E
FC00007E
FC00007E
FC00007E
FC00007E
FC00007E
FC0000FE
FC0000FE
FC0000FE
FE0001FE
FE0003FE
FF0003FE
FF000FFE
7FC01FBE
7FFDFF3E
3FFFFE3E
1FFFFC3E
0FFFF83E
07FFE000
00FF0000
ENDCHAR
STARTCHAR 00FB
ENCODING 251
SWIDTH 560 0
DWIDTH 42 0
BBX 31 58 5 -2
BITMAP
000FE000
001FF000
003FF800
003FF800
007EFC00
007C7E00
00FC3E00
01F83F00
01F01F80
03E00F80
07C007C0
00000000
00000000
00000000
00000000
00000000
00000000
FC00007E
FC00007E
FC00007E
FC00007E
FC00007E
FC00007E
FC00007E
FC00007E
FC00007E
FC00007E
FC00007E
FC00007E
FC00007E
FC00007E
FC00007E
FC00007E
FC00007E
FC00007E
FC00007E
FC00007E
FC00007E
FC00007E
FC00007E
FC00007E
FC00007E
FC00007E
FC00007E
FC0000FE
FC0000FE
FC0000FE
FE0001FE
FE0003FE
FF0003FE
FF000FFE
7FC01FBE
7FFDFF3E
3FFFFE3E
1FFFFC3E
0FFFF83E
07FFE000
00FF0000
ENDCHAR
STARTCHAR 00FC
ENCODING 252
SWIDTH 560 0
DWIDTH 42 0
BBX 31 56 5 -2
BITMAP
03F83FC0
03F83FC0
03F83FC0
03F83FC0
03F83FC0
03F83FC0
03F83FC0
03F83FC0
00000000
00000000
00000000
00000000
00000000
00000000
00000000
FC00007E
FC00007E
FC00007E
FC00007E
FC00007E
FC00007E
FC00007E
FC00007E
FC00007E
FC00007E
FC00007E
FC00007E
FC00007E
FC00007E
FC00007E
FC00007E
FC00007E
FC00007E
FC00007E
FC00007E
FC00007E
FC00007E
FC00007E
FC00007E
FC00007E
FC00007E
FC00007E
FC0000FE
FC0000FE
FC0000FE
FE0001FE
FE0003FE
FF0003FE
FF000FFE
7FC01FBE
7FFDFF3E
3FFFFE3E
1FFFFC3E
0FFFF83E
07FFE000
00FF0000
ENDCHAR
STARTCHAR 00FD
ENCODING 253
SWIDTH 506 0
DWIDTH 38 0
BBX 34 72 2 -16
BITMAP
00003FC000
00007F8000
00007F0000
0000FE0000
0000FC0000
0001FC0000
0003F80000
0003F00000
0007E00000
000FC00000
000F800000
001F000000
0000000000
0000000000
0000000000
0000000000
0000000000
FC00001FC0
FE00001F80
FE00003F80
7E00003F80
7F00007F00
7F00007F00
3F00007E00
3F8000FE00
3F8000FE00
1F8000FC00
1FC001FC00
1FC001FC00
0FC001F800
0FE003F800
0FE003F000
07E003F000
07F007F000
07F007E000
03F00FE000
03F80FE000
03F80FC000
01F81FC000
01FC1F8000
01FC1F8000
00FC3F8000
00FE3F0000
00FE3F0000
007E7F0000
007F7E0000
003F7E0000
003FFE0000
003FFC0000
001FFC0000
001FF80000
001FF80000
000FF80000
000FF00000
000FF00000
0007F00000
0007E00000
000FE00000
000FC00000
001FC00000
001FC00000
001F800000
003F800000
003F800000
007F000000
00FF000000
3FFE000000
3FFE000000
3FFC000000
3FF8000000
3FF0000000
1FC0000000
ENDCHAR
STARTCHAR 00FE
ENCODING 254
SWIDTH 560 0
DWIDTH 42 0
BBX 35 70 4 -17
BITMAP
FC00000000
FC00000000
FC00000000
FC00000000
FC00000000
FC00000000
FC00000000
FC00000000
FC00000000
FC00000000
FC00000000
FC00000000
FC00000000
FC03FC0000
FC0FFF8000
FC3FFFE000
FC7FFFF000
FCFFFFF800
FDFFFFFC00
FFFC07FE00
FFF001FF00
FFE000FF00
FFC0007F80
FF80003F80
FF00003FC0
FF00001FC0
FE00001FC0
FE00000FE0
FE00000FE0
FE00000FE0
FE00000FE0
FC00000FE0
FC000007E0
FC000007E0
FC000007E0
FC000007E0
FC000007E0
FE00000FE0
FE00000FE0
FE00000FE0
FE00000FE0
FE00001FC0
FF00001FC0
FF00001FC0
FF80003F80
FFC0007F80
FFE000FF00
FFF001FF00
FFFC07FE00
FDFFFFFC00
FDFFFFFC00
FCFFFFF000
FC3FFFE000
FC1FFF8000
FC03FC0000
FC00000000
FC00000000
FC00000000
FC00000000
FC00000000
FC00000000
FC00000000
FC00000000
FC00000000
FC00000000
FC00000000
FC00000000
FC00000000
FC00000000
FC00000000
ENDCHAR
STARTCHAR 00FF
ENCODING 255
SWIDTH 506 0
DWIDTH 38 0
BBX 34 70 2 -16
BITMAP
03FC1FC000
03FC1FC000
03FC1FC000
03FC1FC000
03FC1FC000
03FC1FC000
03FC1FC000
03FC1FC000
0000000000
0000000000
0000000000
0000000000
0000000000
0000000000
0000000000
FC00001FC0
FE00001F80
FE00003F80
7E00003F80
7F00007F00
7F00007F00
3F00007E00
3F8000FE00
3F8000FE00
1F8000FC00
1FC001FC00
1FC001FC00
0FC001F800
0FE003F800
0FE003F000
07E003F000
07F007F000
07F007E000
03F00FE000
03F80FE000
03F80FC000
01F81FC000
01FC1F8000
01FC1F8000
00FC3F8000
00FE3F0000
00FE3F0000
007E7F0000
007F7E0000
003F7E0000
003FFE0000
003FFC0000
001FFC0000
001FF80000
001FF80000
000FF80000
000FF00000
000FF00000
0007F00000
0007E00000
000FE00000
000FC00000
001FC00000
001FC00000
001F800000
003F800000
003F800000
007F000000
00FF000000
3FFE000000
3FFE000000
3FFC000000
3FF8000000
3FF0000000
1FC0000000
ENDCHAR
STARTCHAR 0100
ENCODING 256
SWIDTH 666 0
DWIDTH 50 0
BBX 48 68 1 0
BITMAP
0003FFFFC000
0003FFFFC000
0003FFFFC000
0003FFFFC000
0003FFFFC000
000000000000
000000000000
000000000000
000000000000
000000000000
000000000000
000000000000
000000000000
00000FF80000
00001FF80000
00001FFC0000
00001FFC0000
00003FFC0000
00003FFE0000
00007FFE0000
00007FFE0000
00007FFF0000
0000FF7F0000
0000FE7F0000
0000FE7F8000
0001FC3F8000
0001FC3F8000
0001FC3FC000
0003F81FC000
0003F81FE000
0003F81FE000
0007F00FE000
0007F00FF000
0007F00FF000
000FE007F000
000FE007F800
001FE007F800
001FC003F800
001FC003FC00
003F8003FC00
003F8001FC00
003F8001FE00
007F0001FE00
007F0000FE00
007F0000FF00
00FE0000FF00
00FFFFFFFF00
00FFFFFFFF80
01FFFFFFFF80
01FFFFFFFFC0
03FFFFFFFFC0
03FFFFFFFFC0
03F800001FE0
07F800001FE0
07F800001FE0
07F000000FF0
0FF000000FF0
0FE000000FF0
0FE0000007F8
1FE0000007F8
1FC0000003F8
1FC0000003FC
3FC0000003FC
3F80000001FC
3F80000001FE
7F80000001FE
7F00000000FE
FF00000000FF
ENDCHAR
STARTCHAR 0101
ENCODING 257
SWIDTH 560 0
DWIDTH 42 0
BBX 37 54 3 -2
BITMAP
01FFFFF000
01FFFFF000
01FFFFF000
01FFFFF000
01FFFFF000
0000000000
0000000000
0000000000
0000000000
0000000000
0000000000
0000000000
0007FE0000
007FFFE000
01FFFFF000
03FFFFFC00
07FFFFFE00
0FFFFFFE00
1FF803FF00
1FE000FF00
3FC0007F00
3F80003F00
3F80003F00
3F00003F00
3F00003F00
0000003F00
0000003F00
0000003F00
000000FF00
00000FFF00
0007FFFF00
00FFFFFF00
03FFFFFF00
0FFFFFBF00
1FFFF03F00
3FFC003F00
3FE0003F00
7F80003F00
7F00003F00
FE00003F00
FE00003F00
FE00003F00
FE00003F00
FE00007F00
FE0000FF00
FF0001FF00
7F0003FF80
7FC00FFF80
3FFDFFFFC0
3FFFFF9FF8
1FFFFF1FF8
0FFFFC1FF8
03FFF00FF8
007F8003F0
ENDCHAR
STARTCHAR 0102
ENCODING 258
SWIDTH 666 0
DWIDTH 50 0
BBX 48 70 1 0
BITMAP
00078001E000
0007C001E000
0007C003E000
0007E007E000
0003F81FC000
0003FFFFC000
0001FFFF8000
0000FFFF0000
00003FFE0000
00000FF00000
000000000000
000000000000
000000000000
000000000000
000000000000
00000FF80000
00001FF80000
00001FFC0000
00001FFC0000
00003FFC0000
00003FFE0000
00007FFE0000
00007FFE0000
00007FFF0000
0000FF7F0000
0000FE7F0000
0000FE7F8000
0001FC3F8000
0001FC3F8000
0001FC3FC000
0003F81FC000
0003F81FE000
0003F81FE000
0007F00FE000
0007F00FF000
0007F00FF000
000FE007F000
000FE007F800
001FE007F800
001FC003F800
001FC003FC00
003F8003FC00
003F8001FC00
003F8001FE00
007F0001FE00
007F0000FE00
007F0000FF00
00FE0000FF00
00FFFFFFFF00
00FFFFFFFF80
01FFFFFFFF80
01FFFFFFFFC0
03FFFFFFFFC0
03FFFFFFFFC0
03F800001FE0
07F800001FE0
07F800001FE0
07F000000FF0
0FF000000FF0
0FE000000FF0
0FE0000007F8
1FE0000007F8
1FC0000003F8
1FC0000003FC
3FC0000003FC
3F80000001FC
3F80000001FE
7F80000001FE
7F00000000FE
FF00000000FF
ENDCHAR
STARTCHAR 0103
ENCODING 259
SWIDTH 560 0
DWIDTH 42 0
BBX 37 57 3 -2
BITMAP
03E000F800
03E000F800
01F000F800
01F801F000
01FC07F000
00FFFFE000
00FFFFE000
007FFFC000
001FFF0000
0007FC0000
0000000000
0000000000
0000000000
0000000000
0000000000
0007FE0000
007FFFE000
01FFFFF000
03FFFFFC00
07FFFFFE00
0FFFFFFE00
1FF803FF00
1FE000FF00
3FC0007F00
3F80003F00
3F80003F00
3F00003F00
3F00003F00
0000003F00
0000003F00
0000003F00
000000FF00
00000FFF00
0007FFFF00
00FFFFFF00
03FFFFFF00
0FFFFFBF00
1FFFF03F00
3FFC003F00
3FE0003F00
7F80003F00
7F00003F00
FE00003F00
FE00003F00
FE00003F00
FE00003F00
FE00007F00
FE0000FF00
FF0001FF00
7F0003FF80
7FC00FFF80
3FFDFFFFC0
3FFFFF9FF8
1FFFFF1FF8
0FFFFC1FF8
03FFF00FF8
007F8003F0
ENDCHAR
STARTCHAR 0104
ENCODING 260
SWIDTH 666 0
DWIDTH 50 0
BBX 51 70 1 -15
BITMAP
00000FF8000000
00001FF8000000
00001FFC000000
00001FFC000000
00003FFC000000
00003FFE000000
00007FFE000000
00007FFE000000
00007FFF000000
0000FF7F000000
0000FE7F000000
0000FE7F800000
0001FC3F800000
0001FC3F800000
0001FC3FC00000
0003F81FC00000
0003F81FE00000
0003F81FE00000
0007F00FE00000
0007F00FF00000
0007F00FF00000
000FE007F00000
000FE007F80000
001FE007F80000
001FC003F80000
001FC003FC0000
003F8003FC0000
003F8001FC0000
003F8001FE0000
007F0001FE0000
007F0000FE0000
007F0000FF0000
00FE0000FF0000
00FFFFFFFF0000
00FFFFFFFF8000
01FFFFFFFF8000
01FFFFFFFFC000
03FFFFFFFFC000
03FFFFFFFFC000
03F800001FE000
07F800001FE000
07F800001FE000
07F000000FF000
0FF000000FF000
0FE000000FF000
0FE0000007F800
1FE0000007F800
1FC0000003F800
1FC0000003FC00
3FC0000003FC00
3F80000001FC00
3F80000001FE00
7F80000001FE00
7F00000000FE00
FF00000000FF00
00000000003E00
0000000000F800
0000000003F000
0000000007E000
0000000007C000
000000000F8000
000000000F8000
000000001F8000
000000001F8000
000000001F8000
000000000FC000
000000000FE020
0000000007FFE0
0000000003FFE0
0000000000FFE0
ENDCHAR
STARTCHAR 0105
ENCODING 261
SWIDTH 560 0
DWIDTH 42 0
BBX 42 55 3 -15
BITMAP
0007FE000000
007FFFE00000
01FFFFF00000
03FFFFFC0000
07FFFFFE0000
0FFFFFFE0000
1FF803FF0000
1FE000FF0000
1FC0007F0000
3F80003F0000
3F80003F0000
3F80003F0000
3F00003F0000
0000003F0000
0000003F0000
0000003F0000
000000FF0000
00000FFF0000
0007FFFF0000
00FFFFFF0000
03FFFFFF0000
0FFFFFBF0000
1FFFF03F0000
3FFC003F0000
3FE0003F0000
7F80003F0000
7F00003F0000
7E00003F0000
FE00003F0000
FE00003F0000
FE00003F0000
FE00007F0000
FE0000FF0000
7F0001FF0000
7F0003FF8000
7FC00FFF8000
3FFDFFFFC000
3FFFFF9FF800
1FFFFF1FF800
0FFFFC1FF800
03FFF00FF800
007F8003F800
00000003E000
00000007C000
0000000F8000
0000001F0000
0000003F0000
0000003F0000
0000003F0000
0000003F0000
0000003F0000
0000001FC040
0000000FFFC0
00000007FFC0
00000001FFC0
ENDCHAR
STARTCHAR 0106
ENCODING 262
SWIDTH 720 0
DWIDTH 54 0
BBX 47 73 4 -2
BITMAP
0000003FE000
0000003FC000
0000007F8000
000000FF0000
000000FE0000
000001FC0000
000003F80000
000003F00000
000007E00000
00000FC00000
00000F800000
000000000000
000000000000
000000000000
000000000000
00001FFC0000
0001FFFFC000
0007FFFFF000
001FFFFFFC00
003FFFFFFE00
007FFFFFFF00
00FFF01FFF80
01FF8001FFC0
03FE00007FC0
07FC00003FE0
07F800001FE0
0FF000000FF0
1FE0000007F0
1FC0000007F8
3FC0000003F8
3F80000003F8
3F80000003F8
7F00000003FC
7F0000000000
7F0000000000
7F0000000000
FE0000000000
FE0000000000
FE0000000000
FE0000000000
FE0000000000
FE0000000000
FE0000000000
FE0000000000
FE0000000000
FE0000000000
FE0000000000
FE0000000000
FE0000000000
FE0000000000
FE0000000000
FE00000000FE
FF00000001FE
7F00000001FC
7F00000001FC
7F80000001FC
3F80000003FC
3F80000003FC
3FC0000003F8
1FE0000007F8
1FE0000007F8
0FF000000FF0
0FF800001FF0
07FC00003FE0
03FF00007FC0
03FFC001FFC0
01FFF80FFF80
00FFFFFFFF00
003FFFFFFE00
001FFFFFF800
0007FFFFF000
0001FFFFC000
00001FFC0000
ENDCHAR
STARTCHAR 0107
ENCODING 263
SWIDTH 506 0
DWIDTH 38 0
BBX 34 58 2 -2
BITMAP
00000FF000
00001FE000
00001FC000
00003F8000
00003F8000
00007F0000
0000FE0000
0000FC0000
0001F80000
0001F00000
0003E00000
0007C00000
0000000000
0000000000
0000000000
0000000000
0003FC0000
001FFF8000
007FFFE000
01FFFFF000
03FFFFFC00
07FFFFFC00
07FC03FE00
0FF001FF00
1FE0007F00
1FC0007F80
3F80003F80
3F80003F80
3F00001F80
7F00001F80
7F00000000
7E00000000
7E00000000
7E00000000
FE00000000
FE00000000
FE00000000
FE00000000
FE00000000
FE00000000
FE00000000
7E00000000
7E00000000
7F00001FC0
7F00001FC0
7F00001F80
3F80001F80
3F80003F80
1FC0007F80
1FE0007F00
0FF000FF00
0FFC03FE00
07FFFFFC00
03FFFFF800
01FFFFF000
007FFFE000
003FFF8000
0007FC0000
ENDCHAR
STARTCHAR 0108
ENCODING 264
SWIDTH 720 0
DWIDTH 54 0
BBX 47 73 4 -2
BITMAP
00000FF00000
00000FF00000
00001FF80000
00003FFC0000
00003FFC0000
00007E7E0000
0000FC3F0000
0000F81F0000
0001F00F8000
0003F00FC000
0003E007C000
000000000000
000000000000
000000000000
000000000000
00001FFC0000
0001FFFFC000
0007FFFFF000
001FFFFFFC00
003FFFFFFE00
007FFFFFFF00
00FFF01FFF80
01FF8001FFC0
03FE00007FC0
07FC00003FE0
07F800001FE0
0FF000000FF0
1FE0000007F0
1FC0000007F8
3FC0000003F8
3F80000003F8
3F80000003F8
7F00000003FC
7F0000000000
7F0000000000
7F0000000000
FE0000000000
FE0000000000
FE0000000000
FE0000000000
FE0000000000
FE0000000000
FE0000000000
FE0000000000
FE0000000000
FE0000000000
FE0000000000
FE0000000000
FE0000000000
FE0000000000
FE0000000000
FE00000000FE
FF00000001FE
7F00000001FC
7F00000001FC
7F80000001FC
3F80000003FC
3F80000003FC
3FC0000003F8
1FE0000007F8
1FE0000007F8
0FF000000FF0
0FF800001FF0
07FC00003FE0
03FF00007FC0
03FFC001FFC0
01FFF80FFF80
00FFFFFFFF00
003FFFFFFE00
001FFFFFF800
0007FFFFF000
0001FFFFC000
00001FFC0000
ENDCHAR
STARTCHAR 0109
ENCODING 265
SWIDTH 506 0
DWIDTH 38 0
BBX 34 58 2 -2
BITMAP
0003FC0000
0003FC0000
0007FE0000
000FFF0000
000FFF0000
001F9F8000
001F0FC000
003E07C000
007E07E000
007C03E000
00F801F000
00F000F800
0000000000
0000000000
0000000000
0000000000
0003FC0000
001FFF8000
007FFFE000
01FFFFF000
03FFFFFC00
07FFFFFC00
07FC03FE00
0FF001FF00
1FE0007F00
1FC0007F80
3F80003F80
3F80003F80
3F00001F80
7F00001F80
7F00000000
7E00000000
7E00000000
7E00000000
FE00000000
FE00000000
FE00000000
FE00000000
FE00000000
FE00000000
FE00000000
7E00000000
7E00000000
7F00001FC0
7F00001FC0
7F00001F80
3F80001F80
3F80003F80
1FC0007F80
1FE0007F00
0FF000FF00
0FFC03FE00
07FFFFFC00
03FFFFF800
01FFFFF000
007FFFE000
003FFF8000
0007FC0000
ENDCHAR
STARTCHAR 010A
ENCODING 266
SWIDTH 720 0
DWIDTH 54 0
BBX 47 71 4 -2
BITMAP
000007F80000
000007F80000
000007F80000
000007F80000
000007F80000
000007F80000
000007F80000
000007F80000
000000000000
000000000000
000000000000
000000000000
000000000000
00001FFC0000
0001FFFFC000
0007FFFFF000
001FFFFFFC00
003FFFFFFE00
007FFFFFFF00
00FFF01FFF80
01FF8001FFC0
03FE00007FC0
07FC00003FE0
07F800001FE0
0FF000000FF0
1FE0000007F0
1FC0000007F8
3FC0000003F8
3F80000003F8
3F80000003F8
7F00000003FC
7F0000000000
7F0000000000
7F0000000000
FE0000000000
FE0000000000
FE0000000000
FE0000000000
FE0000000000
FE0000000000
FE0000000000
FE0000000000
FE0000000000
FE0000000000
FE0000000000
FE0000000000
FE0000000000
FE0000000000
FE0000000000
FE00000000FE
FF00000001FE
7F00000001FC
7F00000001FC
7F80000001FC
3F80000003FC
3F80000003FC
3FC0000003F8
1FE0000007F8
1FE0000007F8
0FF000000FF0
0FF800001FF0
07FC00003FE0
03FF00007FC0
03FFC001FFC0
01FFF80FFF80
00FFFFFFFF00
003FFFFFFE00
001FFFFFF800
0007FFFFF000
0001FFFFC000
00001FFC0000
ENDCHAR
STARTCHAR 010B
ENCODING 267
SWIDTH 506 0
DWIDTH 38 0
BBX 34 56 2 -2
BITMAP
0003FC0000
0003FC0000
0003FC0000
0003FC0000
0003FC0000
0003FC0000
0003FC0000
0003FC0000
0000000000
0000000000
0000000000
0000000000
0000000000
0000000000
0003FC0000
001FFF8000
007FFFE000
01FFFFF000
03FFFFFC00
07FFFFFC00
07FC03FE00
0FF001FF00
1FE0007F00
1FC0007F80
3F80003F80
3F80003F80
3F00001F80
7F00001F80
7F00000000
7E00000000
7E00000000
7E00000000
FE00000000
FE00000000
FE00000000
FE00000000
FE00000000
FE00000000
FE00000000
7E00000000
7E00000000
7F00001FC0
7F00001FC0
7F00001F80
3F80001F80
3F80003F80
1FC0007F80
1FE0007F00
0FF000FF00
0FFC03FE00
07FFFFFC00
03FFFFF800
01FFFFF000
007FFFE000
003FFF8000
0007FC0000
ENDCHAR
STARTCHAR 010C
ENCODING 268
SWIDTH 720 0
DWIDTH 54 0
BBX 47 73 4 -2
BITMAP
0003E003E000
0001F007C000
0001F80FC000
0000F80F8000
00007C1F0000
00007E3F0000
00003F7E0000
00001FFE0000
00001FFC0000
00000FF80000
00000FF80000
000000000000
000000000000
000000000000
000000000000
00001FFC0000
0001FFFFC000
0007FFFFF000
001FFFFFFC00
003FFFFFFE00
007FFFFFFF00
00FFF01FFF80
01FF8001FFC0
03FE00007FC0
07FC00003FE0
07F800001FE0
0FF000000FF0
1FE0000007F0
1FC0000007F8
3FC0000003F8
3F80000003F8
3F80000003F8
7F00000003FC
7F0000000000
7F0000000000
7F0000000000
FE0000000000
FE0000000000
FE0000000000
FE0000000000
FE0000000000
FE0000000000
FE0000000000
FE0000000000
FE0000000000
FE0000000000
FE0000000000
FE0000000000
FE0000000000
FE0000000000
FE0000000000
FE00000000FE
FF00000001FE
7F00000001FC
7F00000001FC
7F80000001FC
3F80000003FC
3F80000003FC
3FC0000003F8
1FE0000007F8
1FE0000007F8
0FF000000FF0
0FF800001FF0
07FC00003FE0
03FF00007FC0
03FFC001FFC0
01FFF80FFF80
00FFFFFFFF00
003FFFFFFE00
001FFFFFF800
0007FFFFF000
0001FFFFC000
00001FFC0000
ENDCHAR
STARTCHAR 010D
ENCODING 269
SWIDTH 506 0
DWIDTH 38 0
BBX 34 58 2 -2
BITMAP
01F001F000
00F801F000
007C03E000
007E07E000
003F0FC000
001F0F8000
001F9F8000
000FFF0000
000FFF0000
0007FE0000
0003FC0000
0003FC0000
0000000000
0000000000
0000000000
0000000000
0003FC0000
001FFF8000
007FFFE000
01FFFFF000
03FFFFFC00
07FFFFFC00
07FC03FE00
0FF001FF00
1FE0007F00
1FC0007F80
3F80003F80
3F80003F80
3F00001F80
7F00001F80
7F00000000
7E00000000
7E00000000
7E00000000
FE00000000
FE00000000
FE00000000
FE00000000
FE00000000
FE00000000
FE00000000
7E00000000
7E00000000
7F00001FC0
7F00001FC0
7F00001F80
3F80001F80
3F80003F80
1FC0007F80
1FE0007F00
0FF000FF00
0FFC03FE00
07FFFFFC00
03FFFFF800
01FFFFF000
007FFFE000
003FFF8000
0007FC0000
ENDCHAR
STARTCHAR 010E
ENCODING 270
SWIDTH 720 0
DWIDTH 54 0
BBX 43 71 7 0
BITMAP
00F800F80000
00F801F00000
007C03F00000
003E03E00000
003F07C00000
001F8FC00000
000FDF800000
000FFF000000
0007FF000000
0003FE000000
0003FE000000
000000000000
000000000000
000000000000
000000000000
000000000000
FFFFFFC00000
FFFFFFF80000
FFFFFFFE0000
FFFFFFFF8000
FFFFFFFFC000
FFFFFFFFE000
FE0001FFF000
FE00001FF800
FE00000FFC00
FE000003FE00
FE000001FE00
FE000000FF00
FE000000FF00
FE0000007F80
FE0000003F80
FE0000003F80
FE0000003FC0
FE0000001FC0
FE0000001FC0
FE0000001FC0
FE0000001FE0
FE0000000FE0
FE0000000FE0
FE0000000FE0
FE0000000FE0
FE0000000FE0
FE0000000FE0
FE0000000FE0
FE0000000FE0
FE0000000FE0
FE0000000FE0
FE0000000FE0
FE0000000FE0
FE0000000FE0
FE0000000FE0
FE0000001FC0
FE0000001FC0
FE0000001FC0
FE0000001FC0
FE0000003F80
FE0000003F80
FE0000007F80
FE0000007F00
FE000000FF00
FE000001FE00
FE000003FE00
FE000007FC00
FE00001FF800
FE0000FFF000
FFFFFFFFE000
FFFFFFFFC000
FFFFFFFF8000
FFFFFFFE0000
FFFFFFF80000
FFFFFFC00000
ENDCHAR
STARTCHAR 010F
ENCODING 271
SWIDTH 640 0
DWIDTH 48 0
BBX 47 57 2 -2
BITMAP
00000007E1FE
00000007E1FE
00000007E1FE
00000007E1FE
00000007E1FE
00000007E1FE
00000007E1FE
00000007E01E
00000007E01E
00000007E01E
00000007E01C
00000007E01C
00000007E03C
00000007E038
00000007E0F8
0007F807E1F0
003FFF07E1E0
00FFFFC7E100
01FFFFE7E000
03FFFFF7E000
07FFFFFFE000
0FFC07FFE000
1FF001FFE000
1FE0007FE000
3FC0003FE000
3F80003FE000
7F80001FE000
7F00001FE000
7F00000FE000
7E00000FE000
FE00000FE000
FE000007E000
FE000007E000
FE000007E000
FE000007E000
FE000007E000
FE000007E000
FE000007E000
FE000007E000
FE000007E000
FE000007E000
FE00000FE000
7E00000FE000
7F00000FE000
7F00001FE000
7F80001FE000
3F80003FE000
3FC0003FE000
1FE0007FE000
1FF001FFE000
0FFC03FBE000
07FFFFFBE000
03FFFFF3E000
01FFFFE3E000
00FFFF83E000
003FFF000000
0007F8000000
ENDCHAR
STARTCHAR 0110
ENCODING 272
SWIDTH 720 0
DWIDTH 54 0
BBX 49 55 1 0
BITMAP
03FFFFFF000000
03FFFFFFE00000
03FFFFFFF80000
03FFFFFFFE0000
03FFFFFFFF0000
03FFFFFFFFC000
03F80007FFE000
03F800007FE000
03F800003FF000
03F800000FF800
03F8000007F800
03F8000003FC00
03F8000001FC00
03F8000001FE00
03F8000000FE00
03F8000000FE00
03F80000007F00
03F80000007F00
03F80000007F00
03F80000007F00
03F80000003F80
03F80000003F80
03F80000003F80
03F80000003F80
FFFFFF80003F80
FFFFFF80003F80
FFFFFF80003F80
FFFFFF80003F80
FFFFFF80003F80
03F80000003F80
03F80000003F80
03F80000003F80
03F80000003F80
03F80000003F80
03F80000007F00
03F80000007F00
03F80000007F00
03F80000007F00
03F8000000FF00
03F8000000FE00
03F8000000FE00
03F8000001FE00
03F8000003FC00
03F8000003FC00
03F8000007F800
03F800000FF800
03F800001FF000
03F800007FE000
03F80003FFC000
03FFFFFFFF8000
03FFFFFFFF0000
03FFFFFFFE0000
03FFFFFFF80000
03FFFFFFE00000
03FFFFFF000000
ENDCHAR
STARTCHAR 0111
ENCODING 273
SWIDTH 560 0
DWIDTH 42 0
BBX 40 57 2 -2
BITMAP
00000007E0
00000007E0
00000007E0
00000007E0
00000007E0
00000007E0
00003FFFFF
00003FFFFF
00003FFFFF
00003FFFFF
00000007E0
00000007E0
00000007E0
00000007E0
00000007E0
0007F807E0
003FFF07E0
00FFFF87E0
01FFFFE7E0
03FFFFF7E0
07FFFFFFE0
0FFE0FFFE0
1FF801FFE0
1FE000FFE0
3FC0007FE0
3F80003FE0
7F80001FE0
7F00001FE0
7F00000FE0
7E00000FE0
FE00000FE0
FE00000FE0
FE000007E0
FE000007E0
FE000007E0
FE000007E0
FE000007E0
FE000007E0
FE000007E0
FE000007E0
FE00000FE0
FE00000FE0
7E00000FE0
7F00000FE0
7F00001FE0
3F80001FE0
3F80003FE0
3FC0007FE0
1FE000FFE0
1FF801FFE0
0FFE07FFE0
07FFFFFFE0
03FFFFF7E0
01FFFFE7E0
00FFFF87E0
003FFF0000
0007F80000
ENDCHAR
STARTCHAR 0112
ENCODING 274
SWIDTH 666 0
DWIDTH 50 0
BBX 39 68 7 0
BITMAP
007FFFF800
007FFFF800
007FFFF800
007FFFF800
007FFFF800
0000000000
0000000000
0000000000
0000000000
0000000000
0000000000
0000000000
0000000000
FFFFFFFFFC
FFFFFFFFFC
FFFFFFFFFC
FFFFFFFFFC
FFFFFFFFFC
FFFFFFFFFC
FE00000000
FE00000000
FE00000000
FE00000000
FE00000000
FE00000000
FE00000000
FE00000000
FE00000000
FE00000000
FE00000000
FE00000000
FE00000000
FE00000000
FE00000000
FE00000000
FE00000000
FE00000000
FFFFFFFFF0
FFFFFFFFF0
FFFFFFFFF0
FFFFFFFFF0
FFFFFFFFF0
FFFFFFFFF0
FE00000000
FE00000000
FE00000000
FE00000000
FE00000000
FE00000000
FE00000000
FE00000000
FE00000000
FE00000000
FE00000000
FE00000000
FE00000000
FE00000000
FE00000000
FE00000000
FE00000000
FE00000000
FE00000000
FFFFFFFFFE
FFFFFFFFFE
FFFFFFFFFE
FFFFFFFFFE
FFFFFFFFFE
FFFFFFFFFE
ENDCHAR
STARTCHAR 0113
ENCODING 275
SWIDTH 560 0
DWIDTH 42 0
BBX 35 54 3 -2
BITMAP
00FFFFF800
00FFFFF800
00FFFFF800
00FFFFF800
00FFFFF800
0000000000
0000000000
0000000000
0000000000
0000000000
0000000000
0000000000
0003FC0000
001FFF8000
007FFFE000
01FFFFF800
03FFFFFC00
07FFFFFE00
0FFC03FF00
0FF000FF00
1FE0007F80
1FC0003FC0
3F80001FC0
3F00001FC0
7F00000FE0
7F00000FE0
7E00000FE0
7E000007E0
FE000007E0
FE000007E0
FFFFFFFFE0
FFFFFFFFE0
FFFFFFFFE0
FFFFFFFFE0
FFFFFFFFE0
FE00000000
FE00000000
FE00000000
FE00000000
7E00000000
7E00000000
7F00000FC0
7F00000FC0
3F80001FC0
3FC0003F80
1FE0007F80
1FF000FF00
0FFC03FF00
07FFFFFE00
03FFFFFC00
01FFFFF800
00FFFFE000
003FFFC000
0007FC0000
ENDCHAR
STARTCHAR 0114
ENCODING 276
SWIDTH 666 0
DWIDTH 50 0
BBX 39 70 7 0
BITMAP
00F0003C00
00F0007C00
00F8007C00
00FC00F800
00FF03F800
007FFFF000
003FFFF000
001FFFE000
000FFF8000
0001FE0000
0000000000
0000000000
0000000000
0000000000
0000000000
FFFFFFFFFC
FFFFFFFFFC
FFFFFFFFFC
FFFFFFFFFC
FFFFFFFFFC
FFFFFFFFFC
FE00000000
FE00000000
FE00000000
FE00000000
FE00000000
FE00000000
FE00000000
FE00000000
FE00000000
FE00000000
FE00000000
FE00000000
FE00000000
FE00000000
FE00000000
FE00000000
FE00000000
FE00000000
FFFFFFFFF0
FFFFFFFFF0
FFFFFFFFF0
FFFFFFFFF0
FFFFFFFFF0
FFFFFFFFF0
FE00000000
FE00000000
FE00000000
FE00000000
FE00000000
FE00000000
FE00000000
FE00000000
FE00000000
FE00000000
FE00000000
FE00000000
FE00000000
FE00000000
FE00000000
FE00000000
FE00000000
FE00000000
FE00000000
FFFFFFFFFE
FFFFFFFFFE
FFFFFFFFFE
FFFFFFFFFE
FFFFFFFFFE
FFFFFFFFFE
ENDCHAR
STARTCHAR 0115
ENCODING 277
SWIDTH 560 0
DWIDTH 42 0
BBX 35 57 3 -2
BITMAP
01F0007C00
01F0007C00
01F0007800
00F800F800
00FE03F800
007FFFF000
007FFFF000
003FFFE000
000FFF8000
0003FE0000
0000000000
0000000000
0000000000
0000000000
0000000000
0003FC0000
001FFF8000
007FFFE000
01FFFFF800
03FFFFFC00
07FFFFFE00
0FFC03FF00
0FF000FF00
1FE0007F80
1FC0003FC0
3F80001FC0
3F00001FC0
7F00000FE0
7F00000FE0
7E00000FE0
7E000007E0
FE000007E0
FE000007E0
FFFFFFFFE0
FFFFFFFFE0
FFFFFFFFE0
FFFFFFFFE0
FFFFFFFFE0
FE00000000
FE00000000
FE00000000
FE00000000
7E00000000
7E00000000
7F00000FC0
7F00000FC0
3F80001FC0
3FC0003F80
1FE0007F80
1FF000FF00
0FFC03FF00
07FFFFFE00
03FFFFFC00
01FFFFF800
00FFFFE000
003FFFC000
0007FC0000
ENDCHAR
STARTCHAR 0116
ENCODING 278
SWIDTH 666 0
DWIDTH 50 0
BBX 39 69 7 0
BITMAP
0001FE0000
0001FE0000
0001FE0000
0001FE0000
0001FE0000
0001FE0000
0001FE0000
0001FE0000
0000000000
0000000000
0000000000
0000000000
0000000000
0000000000
FFFFFFFFFC
FFFFFFFFFC
FFFFFFFFFC
FFFFFFFFFC
FFFFFFFFFC
FFFFFFFFFC
FE00000000
FE00000000
FE00000000
FE00000000
FE00000000
FE00000000
FE00000000
FE00000000
FE00000000
FE00000000
FE00000000
FE00000000
FE00000000
FE00000000
FE00000000
FE00000000
FE00000000
FE00000000
FFFFFFFFF0
FFFFFFFFF0
FFFFFFFFF0
FFFFFFFFF0
FFFFFFFFF0
FFFFFFFFF0
FE00000000
FE00000000
FE00000000
FE00000000
FE00000000
FE00000000
FE00000000
FE00000000
FE00000000
FE00000000
FE00000000
FE00000000
FE00000000
FE00000000
FE00000000
FE00000000
FE00000000
FE00000000
FE00000000
FFFFFFFFFE
FFFFFFFFFE
FFFFFFFFFE
FFFFFFFFFE
FFFFFFFFFE
FFFFFFFFFE
ENDCHAR
STARTCHAR 0117
ENCODING 279
SWIDTH 560 0
DWIDTH 42 0
BBX 35 56 3 -2
BITMAP
0003FC0000
0003FC0000
0003FC0000
0003FC0000
0003FC0000
0003FC0000
0003FC0000
0003FC0000
0000000000
0000000000
0000000000
0000000000
0000000000
0000000000
0003FC0000
001FFF8000
007FFFE000
01FFFFF800
03FFFFFC00
07FFFFFE00
0FFC03FF00
0FF000FF00
1FE0007F80
1FC0003FC0
3F80001FC0
3F00001FC0
7F00000FE0
7F00000FE0
7E00000FE0
7E000007E0
FE000007E0
FE000007E0
FFFFFFFFE0
FFFFFFFFE0
FFFFFFFFE0
FFFFFFFFE0
FFFFFFFFE0
FE00000000
FE00000000
FE00000000
FE00000000
7E00000000
7E00000000
7F00000FC0
7F00000FC0
3F80001FC0
3FC0003F80
1FE0007F80
1FF000FF00
0FFC03FF00
07FFFFFE00
03FFFFFC00
01FFFFF800
00FFFFE000
003FFFC000
0007FC0000
ENDCHAR
STARTCHAR 0118
ENCODING 280
SWIDTH 666 0
DWIDTH 50 0
BBX 42 70 7 -15
BITMAP
FFFFFFFFFC00
FFFFFFFFFC00
FFFFFFFFFC00
FFFFFFFFFC00
FFFFFFFFFC00
FFFFFFFFFC00
FE0000000000
FE0000000000
FE0000000000
FE0000000000
FE0000000000
FE0000000000
FE0000000000
FE0000000000
FE0000000000
FE0000000000
FE0000000000
FE0000000000
FE0000000000
FE0000000000
FE0000000000
FE0000000000
FE0000000000
FE0000000000
FFFFFFFFF000
FFFFFFFFF000
FFFFFFFFF000
FFFFFFFFF000
FFFFFFFFF000
FFFFFFFFF000
FE0000000000
FE0000000000
FE0000000000
FE0000000000
FE0000000000
FE0000000000
FE0000000000
FE0000000000
FE0000000000
FE0000000000
FE0000000000
FE0000000000
FE0000000000
FE0000000000
FE0000000000
FE0000000000
FE0000000000
FE0000000000
FE0000000000
FFFFFFFFFE00
FFFFFFFFFE00
FFFFFFFFFE00
FFFFFFFFFE00
FFFFFFFFFE00
FFFFFFFFFE00
000000007C00
00000001F000
00000007E000
0000000FC000
0000001F8000
0000001F0000
0000001F0000
0000003F0000
0000003F0000
0000003F0000
0000001F8000
0000001FC040
0000000FFFC0
00000007FFC0
00000001FFC0
ENDCHAR
STARTCHAR 0119
ENCODING 281
SWIDTH 560 0
DWIDTH 42 0
BBX 36 55 3 -15
BITMAP
0003FC0000
001FFF8000
007FFFE000
01FFFFF800
03FFFFFC00
07FFFFFE00
0FFC03FF00
0FF000FF80
1FE0007F80
1FC0003FC0
3F80001FC0
3F00001FC0
7F00000FE0
7F00000FE0
7E00000FE0
7E000007E0
FE000007E0
FE000007E0
FFFFFFFFE0
FFFFFFFFE0
FFFFFFFFF0
FFFFFFFFF0
FFFFFFFFF0
FE00000000
FE00000000
FE00000000
FE00000000
7E00000000
7E00000000
7F00000FE0
7F00000FC0
3F80001FC0
3FC0003F80
1FE0007F80
1FF000FF00
0FFC01FF00
07FFFFFE00
03FFFFFC00
01FFFFF800
00FFFFF000
003FFFE000
0007FDE000
000003C000
00000F8000
00000F0000
00001F0000
00003F0000
00003E0000
00003E0000
00003F0000
00003F0000
00001FC040
00001FFFC0
000007FFC0
000001FFC0
ENDCHAR
STARTCHAR 011A
ENCODING 282
SWIDTH 666 0
DWIDTH 50 0
BBX 39 71 7 0
BITMAP
00F8007800
007C00F800
003E01F000
003F03E000
001F07E000
001F8FC000
000FCFC000
0007FF8000
0007FF0000
0003FF0000
0001FE0000
0000000000
0000000000
0000000000
0000000000
0000000000
FFFFFFFFFC
FFFFFFFFFC
FFFFFFFFFC
FFFFFFFFFC
FFFFFFFFFC
FFFFFFFFFC
FE00000000
FE00000000
FE00000000
FE00000000
FE00000000
FE00000000
FE00000000
FE00000000
FE00000000
FE00000000
FE00000000
FE00000000
FE00000000
FE00000000
FE00000000
FE00000000
FE00000000
FE00000000
FFFFFFFFF0
FFFFFFFFF0
FFFFFFFFF0
FFFFFFFFF0
FFFFFFFFF0
FFFFFFFFF0
FE00000000
FE00000000
FE00000000
FE00000000
FE00000000
FE00000000
FE00000000
FE00000000
FE00000000
FE00000000
FE00000000
FE00000000
FE00000000
FE00000000
FE00000000
FE00000000
FE00000000
FE00000000
FE00000000
FFFFFFFFFE
FFFFFFFFFE
FFFFFFFFFE
FFFFFFFFFE
FFFFFFFFFE
FFFFFFFFFE
ENDCHAR
STARTCHAR 011B
ENCODING 283
SWIDTH 560 0
DWIDTH 42 0
BBX 35 58 3 -2
BITMAP
00F800F800
007C01F000
007C03F000
003E03E000
003F07E000
001F8FC000
000FDF8000
000FDF8000
0007FF0000
0007FE0000
0003FE0000
0001FC0000
0000000000
0000000000
0000000000
0000000000
0003FC0000
001FFF8000
007FFFE000
01FFFFF800
03FFFFFC00
07FFFFFE00
0FFC03FF00
0FF000FF00
1FE0007F80
1FC0003FC0
3F80001FC0
3F00001FC0
7F00000FE0
7F00000FE0
7E00000FE0
7E000007E0
FE000007E0
FE000007E0
FFFFFFFFE0
FFFFFFFFE0
FFFFFFFFE0
FFFFFFFFE0
FFFFFFFFE0
FE00000000
FE00000000
FE00000000
FE00000000
7E00000000
7E00000000
7F00000FC0
7F00000FC0
3F80001FC0
3FC0003F80
1FE0007F80
1FF000FF00
0FFC03FF00
07FFFFFE00
03FFFFFC00
01FFFFF800
00FFFFE000
003FFFC000
0007FC0000
ENDCHAR
STARTCHAR 011C
ENCODING 284
SWIDTH 773 0
DWIDTH 58 0
BBX 50 73 3 -2
BITMAP
000003FC000000
000007FC000000
000007FE000000
00000FFF000000
00000FFF000000
00001F9F800000
00003F0FC00000
00003E07C00000
00007C03E00000
0000FC03F00000
0000F801F00000
00000000000000
00000000000000
00000000000000
00000000000000
000007FF000000
00007FFFF00000
0001FFFFFE0000
0007FFFFFF0000
001FFFFFFFC000
003FFFFFFFE000
007FFE03FFF000
00FFE0003FF800
01FF80000FFC00
03FF000007FC00
03FC000003FE00
07F8000001FF00
0FF0000000FF00
0FF00000007F00
1FE00000007F80
1FC00000003F80
3FC00000003F80
3F800000003F80
3F800000000000
3F800000000000
7F000000000000
7F000000000000
7F000000000000
7F000000000000
7F000000000000
FE000000000000
FE000000000000
FE00001FFFFFC0
FE00001FFFFFC0
FE00001FFFFFC0
FE00001FFFFFC0
FE00001FFFFFC0
FF00001FFFFFC0
7F000000000FC0
7F000000000FC0
7F000000000FC0
7F000000000FC0
7F800000000FC0
7F800000000FC0
3F800000001FC0
3FC00000001FC0
3FC00000001FC0
1FE00000003FC0
1FE00000003FC0
0FF00000007FC0
0FF80000007FC0
07F8000000FFC0
07FC000001FFC0
03FF000003FFC0
01FF80000FFFC0
00FFE0003FEFC0
007FFE01FFC7C0
003FFFFFFF87C0
001FFFFFFE07C0
0007FFFFFC07C0
0003FFFFF007C0
00007FFFC003C0
00000FFC000000
ENDCHAR
STARTCHAR 011D
ENCODING 285
SWIDTH 560 0
DWIDTH 42 0
BBX 33 72 3 -16
BITMAP
0003F80000
0007FC0000
000FFC0000
000FFE0000
001FBF0000
003F3F0000
003F1F8000
007E0FC000
007C07C000
00F803E000
01F003E000
01F001F000
0000000000
0000000000
0000000000
0000000000
000FF00000
007FFC1F80
00FFFF1F80
03FFFF9F80
07FFFFDF80
07FFFFFF80
0FF80FFF80
1FE003FF80
1FC001FF80
3F8000FF80
3F0000FF80
7F00007F80
7E00007F80
7E00003F80
FE00003F80
FE00003F80
FC00003F80
FC00003F80
FC00001F80
FC00001F80
FC00001F80
FC00001F80
FC00001F80
FC00001F80
FC00001F80
FE00003F80
FE00003F80
FE00003F80
FE00003F80
7F00007F80
7F00007F80
7F00007F80
3F8000FF80
3FC001FF80
1FE003FF80
0FF80FDF80
0FFFFFDF80
07FFFF9F80
03FFFF1F80
00FFFE1F80
007FF81F80
000FE03F80
0000003F80
0000003F00
0000003F00
7E00003F00
7F00007F00
7F00007E00
3F8000FE00
3FC001FC00
1FF00FFC00
0FFFFFF800
07FFFFF000
03FFFFC000
00FFFF8000
003FFC0000
ENDCHAR
STARTCHAR 011E
ENCODING 286
SWIDTH 773 0
DWIDTH 58 0
BBX 50 72 3 -2
BITMAP
0000F0003C0000
0000F8003C0000
0000F8007C0000
0000FC00FC0000
00007F03F80000
00007FFFF80000
00003FFFF00000
00001FFFE00000
00000FFF800000
000001FE000000
00000000000000
00000000000000
00000000000000
00000000000000
000007FF000000
00007FFFF00000
0001FFFFFE0000
0007FFFFFF0000
001FFFFFFFC000
003FFFFFFFE000
007FFE03FFF000
00FFE0003FF800
01FF80000FFC00
03FF000007FC00
03FC000003FE00
07F8000001FF00
0FF0000000FF00
0FF00000007F00
1FE00000007F80
1FC00000003F80
3FC00000003F80
3F800000003F80
3F800000000000
3F800000000000
7F000000000000
7F000000000000
7F000000000000
7F000000000000
7F000000000000
FE000000000000
FE000000000000
FE00001FFFFFC0
FE00001FFFFFC0
FE00001FFFFFC0
FE00001FFFFFC0
FE00001FFFFFC0
FF00001FFFFFC0
7F000000000FC0
7F000000000FC0
7F000000000FC0
7F000000000FC0
7F800000000FC0
7F800000000FC0
3F800000001FC0
3FC00000001FC0
3FC00000001FC0
1FE00000003FC0
1FE00000003FC0
0FF00000007FC0
0FF80000007FC0
07F8000000FFC0
07FC000001FFC0
03FF000003FFC0
01FF80000FFFC0
00FFE0003FEFC0
007FFE01FFC7C0
003FFFFFFF87C0
001FFFFFFE07C0
0007FFFFFC07C0
0003FFFFF007C0
00007FFFC003C0
00000FFC000000
ENDCHAR
STARTCHAR 011F
ENCODING 287
SWIDTH 560 0
DWIDTH 42 0
BBX 33 71 3 -16
BITMAP
03C000F000
03E000F000
03E001F000
03F003F000
01FC07E000
01FFFFE000
00FFFFC000
007FFF8000
003FFF0000
0007FC0000
0000000000
0000000000
0000000000
0000000000
0000000000
000FF00000
007FFC1F80
00FFFF1F80
03FFFF9F80
07FFFFDF80
07FFFFFF80
0FF80FFF80
1FE003FF80
1FC001FF80
3F8000FF80
3F0000FF80
7F00007F80
7E00007F80
7E00003F80
FE00003F80
FE00003F80
FC00003F80
FC00003F80
FC00001F80
FC00001F80
FC00001F80
FC00001F80
FC00001F80
FC00001F80
FC00001F80
FE00003F80
FE00003F80
FE00003F80
FE00003F80
7F00007F80
7F00007F80
7F00007F80
3F8000FF80
3FC001FF80
1FE003FF80
0FF80FDF80
0FFFFFDF80
07FFFF9F80
03FFFF1F80
00FFFE1F80
007FF81F80
000FE03F80
0000003F80
0000003F00
0000003F00
7E00003F00
7F00007F00
7F00007E00
3F8000FE00
3FC001FC00
1FF00FFC00
0FFFFFF800
07FFFFF000
03FFFFC000
00FFFF8000
003FFC0000
ENDCHAR
STARTCHAR 0120
ENCODING 288
SWIDTH 773 0
DWIDTH 58 0
BBX 50 71 3 -2
BITMAP
000003FC000000
000003FC000000
000003FC000000
000003FC000000
000003FC000000
000003FC000000
000003FC000000
000003FC000000
00000000000000
00000000000000
00000000000000
00000000000000
00000000000000
000007FF000000
00007FFFF00000
0001FFFFFE0000
0007FFFFFF0000
001FFFFFFFC000
003FFFFFFFE000
007FFE03FFF000
00FFE0003FF800
01FF80000FFC00
03FF000007FC00
03FC000003FE00
07F8000001FF00
0FF0000000FF00
0FF00000007F00
1FE00000007F80
1FC00000003F80
3FC00000003F80
3F800000003F80
3F800000000000
3F800000000000
7F000000000000
7F000000000000
7F000000000000
7F000000000000
7F000000000000
FE000000000000
FE000000000000
FE00001FFFFFC0
FE00001FFFFFC0
FE00001FFFFFC0
FE00001FFFFFC0
FE00001FFFFFC0
FF00001FFFFFC0
7F000000000FC0
7F000000000FC0
7F000000000FC0
7F000000000FC0
7F800000000FC0
7F800000000FC0
3F800000001FC0
3FC00000001FC0
3FC00000001FC0
1FE00000003FC0
1FE00000003FC0
0FF00000007FC0
0FF80000007FC0
07F8000000FFC0
07FC000001FFC0
03FF000003FFC0
01FF80000FFFC0
00FFE0003FEFC0
007FFE01FFC7C0
003FFFFFFF87C0
001FFFFFFE07C0
0007FFFFFC07C0
0003FFFFF007C0
00007FFFC003C0
00000FFC000000
ENDCHAR
STARTCHAR 0121
ENCODING 289
SWIDTH 560 0
DWIDTH 42 0
BBX 33 70 3 -16
BITMAP
0007F80000
0007F80000
0007F80000
0007F80000
0007F80000
0007F80000
0007F80000
0007F80000
0000000000
0000000000
0000000000
0000000000
0000000000
0000000000
000FF00000
007FFC1F80
00FFFF1F80
03FFFF9F80
07FFFFDF80
07FFFFFF80
0FF80FFF80
1FE003FF80
1FC001FF80
3F8000FF80
3F0000FF80
7F00007F80
7E00007F80
7E00003F80
FE00003F80
FE00003F80
FC00003F80
FC00003F80
FC00001F80
FC00001F80
FC00001F80
FC00001F80
FC00001F80
FC00001F80
FC00001F80
FE00003F80
FE00003F80
FE00003F80
FE00003F80
7F00007F80
7F00007F80
7F00007F80
3F8000FF80
3FC001FF80
1FE003FF80
0FF80FDF80
0FFFFFDF80
07FFFF9F80
03FFFF1F80
00FFFE1F80
007FF81F80
000FE03F80
0000003F80
0000003F00
0000003F00
7E00003F00
7F00007F00
7F00007E00
3F8000FE00
3FC001FC00
1FF00FFC00
0FFFFFF800
07FFFFF000
03FFFFC000
00FFFF8000
003FFC0000
ENDCHAR
STARTCHAR 0122
ENCODING 290
SWIDTH 773 0
DWIDTH 58 0
BBX 50 78 3 -22
BITMAP
000007FF000000
00007FFFF00000
0001FFFFFE0000
0007FFFFFF0000
001FFFFFFFC000
003FFFFFFFE000
007FFE03FFF000
00FFE0003FF800
01FF80000FFC00
03FF000007FC00
03FC000003FE00
07F8000001FF00
0FF0000000FF00
0FF00000007F00
1FE00000007F80
1FC00000003F80
3FC00000003F80
3F800000003F80
3F800000000000
3F800000000000
7F000000000000
7F000000000000
7F000000000000
7F000000000000
7F000000000000
FE000000000000
FE000000000000
FE00001FFFFFC0
FE00001FFFFFC0
FE00001FFFFFC0
FE00001FFFFFC0
FE00001FFFFFC0
FF00001FFFFFC0
7F000000000FC0
7F000000000FC0
7F000000000FC0
7F000000000FC0
7F800000000FC0
7F800000000FC0
3F800000001FC0
3FC00000001FC0
3FC00000001FC0
1FE00000003FC0
1FE00000003FC0
0FF00000007FC0
0FF80000007FC0
07F8000000FFC0
07FC000001FFC0
03FF000003FFC0
01FF80000FFFC0
00FFE0003FEFC0
007FFE01FFC7C0
003FFFFFFF87C0
001FFFFFFE07C0
0007FFFFFC07C0
0003FFFFF007C0
00007FFFC003C0
00000FFC000000
00000000000000
00000000000000
00000000000000
000003FC000000
000003FC000000
000003FC000000
000003FC000000
000003FC000000
000003FC000000
000003FC000000
0000003C000000
0000003C000000
0000003C000000
0000003C000000
00000038000000
00000078000000
000000F0000000
000003F0000000
000003E0000000
00000300000000
ENDCHAR
STARTCHAR 0123
ENCODING 291
SWIDTH 560 0
DWIDTH 42 0
BBX 33 77 3 -16
BITMAP
0000380000
0000F80000
0001F80000
0001E00000
0003C00000
0003800000
0007800000
0007800000
0007800000
0007000000
0007F80000
0007F80000
0007F80000
0007F80000
0007F80000
0007F80000
0007F80000
0000000000
0000000000
0000000000
0000000000
000FF00000
007FFC1F80
00FFFF1F80
03FFFF9F80
07FFFFDF80
07FFFFFF80
0FF80FFF80
1FE003FF80
1FC001FF80
3F8000FF80
3F0000FF80
7F00007F80
7E00007F80
7E00003F80
FE00003F80
FE00003F80
FC00003F80
FC00003F80
FC00001F80
FC00001F80
FC00001F80
FC00001F80
FC00001F80
FC00001F80
FC00001F80
FE00003F80
FE00003F80
FE00003F80
FE00003F80
7F00007F80
7F00007F80
7F00007F80
3F8000FF80
3FC001FF80
1FE003FF80
0FF80FDF80
0FFFFFDF80
07FFFF9F80
03FFFF1F80
00FFFE1F80
007FF81F80
000FE03F80
0000003F80
0000003F00
0000003F00
7E00003F00
7F00007F00
7F00007E00
3F8000FE00
3FC001FC00
1FF00FFC00
0FFFFFF800
07FFFFF000
03FFFFC000
00FFFF8000
003FFC0000
ENDCHAR
STARTCHAR 0124
ENCODING 292
SWIDTH 720 0
DWIDTH 54 0
BBX 42 71 6 0
BITMAP
00003FC00000
00007FC00000
00007FE00000
0000FFF00000
0000FFF00000
0001F9F80000
0003F0F80000
0003E07C0000
0007C07E0000
000F803E0000
000F801F0000
000000000000
000000000000
000000000000
000000000000
000000000000
FE0000001FC0
FE0000001FC0
FE0000001FC0
FE0000001FC0
FE0000001FC0
FE0000001FC0
FE0000001FC0
FE0000001FC0
FE0000001FC0
FE0000001FC0
FE0000001FC0
FE0000001FC0
FE0000001FC0
FE0000001FC0
FE0000001FC0
FE0000001FC0
FE0000001FC0
FE0000001FC0
FE0000001FC0
FE0000001FC0
FE0000001FC0
FE0000001FC0
FE0000001FC0
FE0000001FC0
FFFFFFFFFFC0
FFFFFFFFFFC0
FFFFFFFFFFC0
FFFFFFFFFFC0
FFFFFFFFFFC0
FFFFFFFFFFC0
FE0000001FC0
FE0000001FC0
FE0000001FC0
FE0000001FC0
FE0000001FC0
FE0000001FC0
FE0000001FC0
FE0000001FC0
FE0000001FC0
FE0000001FC0
FE0000001FC0
FE0000001FC0
FE0000001FC0
FE0000001FC0
FE0000001FC0
FE0000001FC0
FE0000001FC0
FE0000001FC0
FE0000001FC0
FE0000001FC0
FE0000001FC0
FE0000001FC0
FE0000001FC0
FE0000001FC0
FE0000001FC0
ENDCHAR
STARTCHAR 0125
ENCODING 293
SWIDTH 560 0
DWIDTH 42 0
BBX 38 71 -2 0
BITMAP
01FC000000
03FE000000
07FF000000
07FF000000
0FDF800000
0F8F800000
1F8FC00000
3F07E00000
3E03E00000
7C01F00000
F800F80000
0000000000
0000000000
0000000000
0000000000
0000000000
01F8000000
01F8000000
01F8000000
01F8000000
01F8000000
01F8000000
01F8000000
01F8000000
01F8000000
01F8000000
01F8000000
01F8000000
01F8000000
01F8000000
01F8000000
01F803FC00
01F81FFF80
01F87FFFE0
01F8FFFFF0
01F9FFFFF8
01FBFFFFF8
01FFF00FFC
01FFC003FC
01FF8001FC
01FF0000FC
01FE0000FC
01FE0000FC
01FC0000FC
01FC0000FC
01FC0000FC
01FC0000FC
01FC0000FC
01FC0000FC
01F80000FC
01F80000FC
01F80000FC
01F80000FC
01F80000FC
01F80000FC
01F80000FC
01F80000FC
01F80000FC
01F80000FC
01F80000FC
01F80000FC
01F80000FC
01F80000FC
01F80000FC
01F80000FC
01F80000FC
01F80000FC
01F80000FC
01F80000FC
01F80000FC
01F80000FC
ENDCHAR
STARTCHAR 0126
ENCODING 294
SWIDTH 720 0
DWIDTH 54 0
BBX 53 55 1 0
BITMAP
07F0000000FE00
07F0000000FE00
07F0000000FE00
07F0000000FE00
07F0000000FE00
07F0000000FE00
07F0000000FE00
07F0000000FE00
07F0000000FE00
07F0000000FE00
07F0000000FE00
07F0000000FE00
FFFFFFFFFFFFF8
FFFFFFFFFFFFF8
FFFFFFFFFFFFF8
FFFFFFFFFFFFF8
FFFFFFFFFFFFF8
07F0000000FE00
07F0000000FE00
07F0000000FE00
07F0000000FE00
07F0000000FE00
07F0000000FE00
07F0000000FE00
07FFFFFFFFFE00
07FFFFFFFFFE00
07FFFFFFFFFE00
07FFFFFFFFFE00
07FFFFFFFFFE00
07FFFFFFFFFE00
07F0000000FE00
07F0000000FE00
07F0000000FE00
07F0000000FE00
07F0000000FE00
07F0000000FE00
07F0000000FE00
07F0000000FE00
07F0000000FE00
07F0000000FE00
07F0000000FE00
07F0000000FE00
07F0000000FE00
07F0000000FE00
07F0000000FE00
07F0000000FE00
07F0000000FE00
07F0000000FE00
07F0000000FE00
07F0000000FE00
07F0000000FE00
07F0000000FE00
07F0000000FE00
07F0000000FE00
07F0000000FE00
ENDCHAR
STARTCHAR 0127
ENCODING 295
SWIDTH 560 0
DWIDTH 42 0
BBX 35 55 1 0
BITMAP
0FC0000000
0FC0000000
0FC0000000
0FC0000000
0FC0000000
0FC0000000
FFFFFFC000
FFFFFFC000
FFFFFFC000
FFFFFFC000
0FC0000000
0FC0000000
0FC0000000
0FC0000000
0FC0000000
0FC01FE000
0FC0FFFC00
0FC3FFFF00
0FC7FFFF80
0FCFFFFFC0
0FDFFFFFC0
0FFF807FE0
0FFE001FE0
0FFC000FE0
0FF80007E0
0FF00007E0
0FF00007E0
0FE00007E0
0FE00007E0
0FE00007E0
0FE00007E0
0FE00007E0
0FE00007E0
0FC00007E0
0FC00007E0
0FC00007E0
0FC00007E0
0FC00007E0
0FC00007E0
0FC00007E0
0FC00007E0
0FC00007E0
0FC00007E0
0FC00007E0
0FC00007E0
0FC00007E0
0FC00007E0
0FC00007E0
0FC00007E0
0FC00007E0
0FC00007E0
0FC00007E0
0FC00007E0
0FC00007E0
0FC00007E0
ENDCHAR
STARTCHAR 0128
ENCODING 296
SWIDTH 280 0
DWIDTH 21 0
BBX 24 69 -2 0
BITMAP
0FC01F
1FF01F
3FFE3E
3FFFFE
7FFFFC
7C7FFC
780FF8
F803E0
000000
000000
000000
000000
000000
000000
007F80
007F80
007F80
007F80
007F80
007F80
007F80
007F80
007F80
007F80
007F80
007F80
007F80
007F80
007F80
007F80
007F80
007F80
007F80
007F80
007F80
007F80
007F80
007F80
007F80
007F80
007F80
007F80
007F80
007F80
007F80
007F80
007F80
007F80
007F80
007F80
007F80
007F80
007F80
007F80
007F80
007F80
007F80
007F80
007F80
007F80
007F80
007F80
007F80
007F80
007F80
007F80
007F80
007F80
007F80
ENDCHAR
STARTCHAR 0129
ENCODING 297
SWIDTH 280 0
DWIDTH 21 0
BBX 24 54 -2 0
BITMAP
07801F
1FF01F
3FFE3E
3FFFFE
7FFFFC
7C7FFC
780FF8
F803E0
000000
000000
000000
000000
000000
000000
000000
007E00
007E00
007E00
007E00
007E00
007E00
007E00
007E00
007E00
007E00
007E00
007E00
007E00
007E00
007E00
007E00
007E00
007E00
007E00
007E00
007E00
007E00
007E00
007E00
007E00
007E00
007E00
007E00
007E00
007E00
007E00
007E00
007E00
007E00
007E00
007E00
007E00
007E00
007E00
ENDCHAR
STARTCHAR 012A
ENCODING 298
SWIDTH 280 0
DWIDTH 21 0
BBX 20 68 1 0
BITMAP
FFFFF0
FFFFF0
FFFFF0
FFFFF0
FFFFF0
000000
000000
000000
000000
000000
000000
000000
000000
03FC00
03FC00
03FC00
03FC00
03FC00
03FC00
03FC00
03FC00
03FC00
03FC00
03FC00
03FC00
03FC00
03FC00
03FC00
03FC00
03FC00
03FC00
03FC00
03FC00
03FC00
03FC00
03FC00
03FC00
03FC00
03FC00
03FC00
03FC00
03FC00
03FC00
03FC00
03FC00
03FC00
03FC00
03FC00
03FC00
03FC00
03FC00
03FC00
03FC00
03FC00
03FC00
03FC00
03FC00
03FC00
03FC00
03FC00
03FC00
03FC00
03FC00
03FC00
03FC00
03FC00
03FC00
03FC00
ENDCHAR
STARTCHAR 012B
ENCODING 299
SWIDTH 280 0
DWIDTH 21 0
BBX 19 52 1 0
BITMAP
FFFFE0
FFFFE0
FFFFE0
FFFFE0
FFFFE0
000000
000000
000000
000000
000000
000000
000000
000000
03F000
03F000
03F000
03F000
03F000
03F000
03F000
03F000
03F000
03F000
03F000
03F000
03F000
03F000
03F000
03F000
03F000
03F000
03F000
03F000
03F000
03F000
03F000
03F000
03F000
03F000
03F000
03F000
03F000
03F000
03F000
03F000
03F000
03F000
03F000
03F000
03F000
03F000
03F000
ENDCHAR
STARTCHAR 012C
ENCODING 300
SWIDTH 280 0
DWIDTH 21 0
BBX 23 70 -1 0
BITMAP
F8003E
F8003C
F8007C
7C00FC
7F83FC
7FFFF8
3FFFF0
1FFFE0
07FFC0
01FE00
000000
000000
000000
000000
000000
00FE00
00FE00
00FE00
00FE00
00FE00
00FE00
00FE00
00FE00
00FE00
00FE00
00FE00
00FE00
00FE00
00FE00
00FE00
00FE00
00FE00
00FE00
00FE00
00FE00
00FE00
00FE00
00FE00
00FE00
00FE00
00FE00
00FE00
00FE00
00FE00
00FE00
00FE00
00FE00
00FE00
00FE00
00FE00
00FE00
00FE00
00FE00
00FE00
00FE00
00FE00
00FE00
00FE00
00FE00
00FE00
00FE00
00FE00
00FE00
00FE00
00FE00
00FE00
00FE00
00FE00
00FE00
00FE00
ENDCHAR
STARTCHAR 012D
ENCODING 301
SWIDTH 280 0
DWIDTH 21 0
BBX 23 55 -1 0
BITMAP
F8003E
F8003E
F8007C
7C007C
7F01FC
7FFFF8
3FFFF0
1FFFF0
0FFFC0
01FF00
000000
000000
000000
000000
000000
000000
00FC00
00FC00
00FC00
00FC00
00FC00
00FC00
00FC00
00FC00
00FC00
00FC00
00FC00
00FC00
00FC00
00FC00
00FC00
00FC00
00FC00
00FC00
00FC00
00FC00
00FC00
00FC00
00FC00
00FC00
00FC00
00FC00
00FC00
00FC00
00FC00
00FC00
00FC00
00FC00
00FC00
00FC00
00FC00
00FC00
00FC00
00FC00
00FC00
ENDCHAR
STARTCHAR 012E
ENCODING 302
SWIDTH 280 0
DWIDTH 21 0
BBX 13 70 5 -15
BITMAP
3FC0
3FC0
3FC0
3FC0
3FC0
3FC0
3FC0
3FC0
3FC0
3FC0
3FC0
3FC0
3FC0
3FC0
3FC0
3FC0
3FC0
3FC0
3FC0
3FC0
3FC0
3FC0
3FC0
3FC0
3FC0
3FC0
3FC0
3FC0
3FC0
3FC0
3FC0
3FC0
3FC0
3FC0
3FC0
3FC0
3FC0
3FC0
3FC0
3FC0
3FC0
3FC0
3FC0
3FC0
3FC0
3FC0
3FC0
3FC0
3FC0
3FC0
3FC0
3FC0
3FC0
3FC0
3FC0
0780
0F00
1E00
3E00
7C00
7C00
FC00
F800
F800
FC00
FC00
7E08
7FF8
3FF8
0FF8
ENDCHAR
STARTCHAR 012F
ENCODING 303
SWIDTH 226 0
DWIDTH 17 0
BBX 12 70 2 -15
BITMAP
1F80
1F80
1F80
1F80
1F80
1F80
1F80
1F80
0000
0000
0000
0000
0000
0000
0000
0000
1F80
1F80
1F80
1F80
1F80
1F80
1F80
1F80
1F80
1F80
1F80
1F80
1F80
1F80
1F80
1F80
1F80
1F80
1F80
1F80
1F80
1F80
1F80
1F80
1F80
1F80
1F80
1F80
1F80
1F80
1F80
1F80
1F80
1F80
1F80
1F80
1F80
1F80
1F80
0780
0F00
1E00
3E00
7C00
7C00
F800
F800
F800
FC00
FC00
FE00
7FF0
3FF0
0FF0
ENDCHAR
STARTCHAR 0130
ENCODING 304
SWIDTH 280 0
DWIDTH 21 0
BBX 8 69 7 0
BITMAP
FF
FF
FF
FF
FF
FF
FF
FF
00
00
00
00
00
00
7F
7F
7F
7F
7F
7F
7F
7F
7F
7F
7F
7F
7F
7F
7F
7F
7F
7F
7F
7F
7F
7F
7F
7F
7F
7F
7F
7F
7F
7F
7F
7F
7F
7F
7F
7F
7F
7F
7F
7F
7F
7F
7F
7F
7F
7F
7F
7F
7F
7F
7F
7F
7F
7F
7F
ENDCHAR
STARTCHAR 0131
ENCODING 305
SWIDTH 280 0
DWIDTH 21 0
BBX 6 39 7 0
BITMAP
FC
FC
FC
FC
FC
FC
FC
FC
FC
FC
FC
FC
FC
FC
FC
FC
FC
FC
FC
FC
FC
FC
FC
FC
FC
FC
FC
FC
FC
FC
FC
FC
FC
FC
FC
FC
FC
FC
FC
ENDCHAR
STARTCHAR 0132
ENCODING 306
SWIDTH 733 0
DWIDTH 55 0
BBX 41 57 8 -2
BITMAP
FE0000003F80
FE0000003F80
FE0000003F80
FE0000003F80
FE0000003F80
FE0000003F80
FE0000003F80
FE0000003F80
FE0000003F80
FE0000003F80
FE0000003F80
FE0000003F80
FE0000003F80
FE0000003F80
FE0000003F80
FE0000003F80
FE0000003F80
FE0000003F80
FE0000003F80
FE0000003F80
FE0000003F80
FE0000003F80
FE0000003F80
FE0000003F80
FE0000003F80
FE0000003F80
FE0000003F80
FE0000003F80
FE0000003F80
FE0000003F80
FE0000003F80
FE0000003F80
FE0000003F80
FE0000003F80
FE0000003F80
FE0000003F80
FE0000003F80
FE0000003F80
FE1FC0003F80
FE1FC0003F80
FE1FC0003F80
FE1FC0003F80
FE1FC0003F80
FE1FC0003F80
FE1FC0003F80
FE1FC0007F80
FE1FE0007F80
FE1FE000FF00
FE0FF000FF00
FE0FF801FE00
FE07FC07FE00
FE07FFFFFC00
FE03FFFFF800
FE01FFFFF000
FE00FFFFE000
00003FFF8000
000007FC0000
ENDCHAR
STARTCHAR 0133
ENCODING 307
SWIDTH 440 0
DWIDTH 33 0
BBX 20 71 7 -16
BITMAP
FC03F0
FC03F0
FC03F0
FC03F0
FC03F0
FC03F0
FC03F0
FC03F0
000000
000000
000000
000000
000000
000000
000000
000000
FC03F0
FC03F0
FC03F0
FC03F0
FC03F0
FC03F0
FC03F0
FC03F0
FC03F0
FC03F0
FC03F0
FC03F0
FC03F0
FC03F0
FC03F0
FC03F0
FC03F0
FC03F0
FC03F0
FC03F0
FC03F0
FC03F0
FC03F0
FC03F0
FC03F0
FC03F0
FC03F0
FC03F0
FC03F0
FC03F0
FC03F0
FC03F0
FC03F0
FC03F0
FC03F0
FC03F0
FC03F0
FC03F0
FC03F0
0003F0
0003F0
0003F0
0003F0
0003F0
0003F0
0003F0
0003F0
0003F0
0007F0
000FF0
01FFF0
01FFE0
01FFC0
01FF80
01FF00
ENDCHAR
STARTCHAR 0134
ENCODING 308
SWIDTH 506 0
DWIDTH 38 0
BBX 37 73 1 -2
BITMAP
000001FC00
000003FE00
000007FE00
000007FF00
00000FDF80
00000F9F80
00001F8FC0
00003F07E0
00003E03E0
00007C01F0
0000F800F8
0000000000
0000000000
0000000000
0000000000
0000000000
000000FE00
000000FE00
000000FE00
000000FE00
000000FE00
000000FE00
000000FE00
000000FE00
000000FE00
000000FE00
000000FE00
000000FE00
000000FE00
000000FE00
000000FE00
000000FE00
000000FE00
000000FE00
000000FE00
000000FE00
000000FE00
000000FE00
000000FE00
000000FE00
000000FE00
000000FE00
000000FE00
000000FE00
000000FE00
000000FE00
000000FE00
000000FE00
000000FE00
000000FE00
000000FE00
000000FE00
000000FE00
000000FE00
FE0000FE00
FE0000FE00
FE0000FE00
FE0000FE00
FE0000FE00
FF0000FE00
FF0000FE00
7F0001FE00
7F0001FC00
7F8003FC00
7F8003FC00
3FE007F800
3FF01FF800
1FFFFFF000
0FFFFFE000
07FFFFC000
03FFFF8000
00FFFE0000
001FF00000
ENDCHAR
STARTCHAR 0135
ENCODING 309
SWIDTH 226 0
DWIDTH 17 0
BBX 22 72 -3 -16
BITMAP
01FE00
01FF00
03FF00
07FF80
07FF80
0FCFC0
1F87E0
1F03E0
3F03F0
3E01F0
7C00F8
F8007C
000000
000000
000000
000000
000000
00FC00
00FC00
00FC00
00FC00
00FC00
00FC00
00FC00
00FC00
00FC00
00FC00
00FC00
00FC00
00FC00
00FC00
00FC00
00FC00
00FC00
00FC00
00FC00
00FC00
00FC00
00FC00
00FC00
00FC00
00FC00
00FC00
00FC00
00FC00
00FC00
00FC00
00FC00
00FC00
00FC00
00FC00
00FC00
00FC00
00FC00
00FC00
00FC00
00FC00
00FC00
00FC00
00FC00
00FC00
00FC00
00FC00
00FC00
00FC00
00FC00
03FC00
3FFC00
3FF800
3FF800
3FF000
3FC000
ENDCHAR
STARTCHAR 0136
ENCODING 310
SWIDTH 666 0
DWIDTH 50 0
BBX 43 76 6 -21
BITMAP
FE0000003FE0
FE0000007FC0
FE000000FF80
FE000001FF00
FE000003FE00
FE000007FC00
FE00000FF800
FE00001FF000
FE00003FE000
FE00007FC000
FE0000FF8000
FE0001FF0000
FE0003FE0000
FE0007FC0000
FE000FF80000
FE001FF00000
FE003FE00000
FE007FC00000
FE00FF800000
FE01FF000000
FE03FE000000
FE07FC000000
FE0FF8000000
FE1FFC000000
FE3FFC000000
FE7FFE000000
FEFFFF000000
FFFEFF000000
FFFC7F800000
FFF83FC00000
FFF03FC00000
FFE01FE00000
FFC00FF00000
FF800FF80000
FF0007F80000
FE0003FC0000
FE0003FE0000
FE0001FE0000
FE0000FF0000
FE0000FF8000
FE00007F8000
FE00003FC000
FE00001FE000
FE00001FE000
FE00000FF000
FE000007F800
FE000007F800
FE000003FC00
FE000001FE00
FE000001FF00
FE000000FF00
FE0000007F80
FE0000007FC0
FE0000003FC0
FE0000001FE0
000000000000
000000000000
000000000000
000000000000
000000000000
0000FF000000
0000FF000000
0000FF000000
0000FF000000
0000FF000000
0000FF000000
0000FF000000
000007000000
000007000000
00000F000000
00000F000000
00000E000000
00001E000000
0000FC000000
0000F8000000
0000F0000000
ENDCHAR
STARTCHAR 0137
ENCODING 311
SWIDTH 506 0
DWIDTH 38 0
BBX 33 76 4 -21
BITMAP
FE00000000
FE00000000
FE00000000
FE00000000
FE00000000
FE00000000
FE00000000
FE00000000
FE00000000
FE00000000
FE00000000
FE00000000
FE00000000
FE00000000
FE00000000
FE00000000
FE0001FE00
FE0003FC00
FE0007F800
FE000FF000
FE001FE000
FE003FC000
FE007F8000
FE00FF0000
FE01FE0000
FE03FC0000
FE07F80000
FE0FF00000
FE1FE00000
FE3FC00000
FE7FC00000
FEFFE00000
FFFFF00000
FFFFF00000
FFF7F80000
FFE3F80000
FFC3FC0000
FF81FE0000
FF00FE0000
FE00FF0000
FE007F8000
FE007F8000
FE003FC000
FE001FC000
FE001FE000
FE000FF000
FE0007F000
FE0007F800
FE0003FC00
FE0003FC00
FE0001FE00
FE0000FE00
FE0000FF00
FE00007F80
FE00003F80
0000000000
0000000000
0000000000
0000000000
0000000000
000FF00000
000FF00000
000FF00000
000FF00000
000FF00000
000FF00000
000FF00000
0000F00000
0000F00000
0000F00000
0000E00000
0000E00000
0001E00000
000FC00000
000F800000
000F000000
ENDCHAR
STARTCHAR 0138
ENCODING 312
SWIDTH 506 0
DWIDTH 38 0
BBX 30 38 3 0
BITMAP
F80001FC
F80003F8
F80007F0
F8000FE0
F8001FC0
F8003F80
F8007F00
F800FE00
F801FC00
F803F800
F807F000
F80FE000
F81FC000
F83F8000
F87F0000
F8FE0000
F8FF0000
F9FF0000
FBFF8000
FFCFC000
FF87C000
FF07E000
FE03F000
FC01F000
F801F800
F800FC00
F8007C00
F8007E00
F8003F00
F8001F80
F8001F80
F8000FC0
F80007E0
F80003E0
F80003F0
F80001F8
F80000F8
F80000FC
ENDCHAR
STARTCHAR 0139
ENCODING 313
SWIDTH 560 0
DWIDTH 42 0
BBX 34 71 6 0
BITMAP
03FE000000
03FC000000
07F8000000
0FF0000000
0FE0000000
1FC0000000
3F80000000
3F00000000
7E00000000
FC00000000
F800000000
0000000000
0000000000
0000000000
0000000000
0000000000
FE00000000
FE00000000
FE00000000
FE00000000
FE00000000
FE00000000
FE00000000
FE00000000
FE00000000
FE00000000
FE00000000
FE00000000
FE00000000
FE00000000
FE00000000
FE00000000
FE00000000
FE00000000
FE00000000
FE00000000
FE00000000
FE00000000
FE00000000
FE00000000
FE00000000
FE00000000
FE00000000
FE00000000
FE00000000
FE00000000
FE00000000
FE00000000
FE00000000
FE00000000
FE00000000
FE00000000
FE00000000
FE00000000
FE00000000
FE00000000
FE00000000
FE00000000
FE00000000
FE00000000
FE00000000
FE00000000
FE00000000
FE00000000
FE00000000
FFFFFFFFC0
FFFFFFFFC0
FFFFFFFFC0
FFFFFFFFC0
FFFFFFFFC0
FFFFFFFFC0
ENDCHAR
STARTCHAR 013A
ENCODING 314
SWIDTH 226 0
DWIDTH 17 0
BBX 15 71 5 0
BITMAP
01FE
03FC
07F8
07F0
0FE0
0FC0
1F80
3F00
3E00
7C00
F800
0000
0000
0000
0000
0000
FC00
FC00
FC00
FC00
FC00
FC00
FC00
FC00
FC00
FC00
FC00
FC00
FC00
FC00
FC00
FC00
FC00
FC00
FC00
FC00
FC00
FC00
FC00
FC00
FC00
FC00
FC00
FC00
FC00
FC00
FC00
FC00
FC00
FC00
FC00
FC00
FC00
FC00
FC00
FC00
FC00
FC00
FC00
FC00
FC00
FC00
FC00
FC00
FC00
FC00
FC00
FC00
FC00
FC00
FC00
ENDCHAR
STARTCHAR 013B
ENCODING 315
SWIDTH 560 0
DWIDTH 42 0
BBX 34 76 6 -21
BITMAP
FE00000000
FE00000000
FE00000000
FE00000000
FE00000000
FE00000000
FE00000000
FE00000000
FE00000000
FE00000000
FE00000000
FE00000000
FE00000000
FE00000000
FE00000000
FE00000000
FE00000000
FE00000000
FE00000000
FE00000000
FE00000000
FE00000000
FE00000000
FE00000000
FE00000000
FE00000000
FE00000000
FE00000000
FE00000000
FE00000000
FE00000000
FE00000000
FE00000000
FE00000000
FE00000000
FE00000000
FE00000000
FE00000000
FE00000000
FE00000000
FE00000000
FE00000000
FE00000000
FE00000000
FE00000000
FE00000000
FE00000000
FE00000000
FE00000000
FFFFFFFFC0
FFFFFFFFC0
FFFFFFFFC0
FFFFFFFFC0
FFFFFFFFC0
FFFFFFFFC0
0000000000
0000000000
0000000000
0000000000
0000000000
0007F80000
0007F80000
0007F80000
0007F80000
0007F80000
0007F80000
0007F80000
0000780000
0000780000
0000780000
0000700000
0000700000
0000F00000
0007E00000
0007C00000
0007800000
ENDCHAR
STARTCHAR 013C
ENCODING 316
SWIDTH 226 0
DWIDTH 17 0
BBX 7 76 5 -21
BITMAP
FC
FC
FC
FC
FC
FC
FC
FC
FC
FC
FC
FC
FC
FC
FC
FC
FC
FC
FC
FC
FC
FC
FC
FC
FC
FC
FC
FC
FC
FC
FC
FC
FC
FC
FC
FC
FC
FC
FC
FC
FC
FC
FC
FC
FC
FC
FC
FC
FC
FC
FC
FC
FC
FC
FC
00
00
00
00
00
FE
FE
FE
FE
FE
FE
FE
0E
0E
0E
0E
1E
3C
F8
F8
E0
ENDCHAR
STARTCHAR 013D
ENCODING 317
SWIDTH 560 0
DWIDTH 42 0
BBX 34 55 6 0
BITMAP
FE03FC0000
FE03FC0000
FE03FC0000
FE03FC0000
FE03FC0000
FE03FC0000
FE03FC0000
FE001C0000
FE001C0000
FE001C0000
FE003C0000
FE00380000
FE00380000
FE00780000
FE03F00000
FE03E00000
FE03800000
FE00000000
FE00000000
FE00000000
FE00000000
FE00000000
FE00000000
FE00000000
FE00000000
FE00000000
FE00000000
FE00000000
FE00000000
FE00000000
FE00000000
FE00000000
FE00000000
FE00000000
FE00000000
FE00000000
FE00000000
FE00000000
FE00000000
FE00000000
FE00000000
FE00000000
FE00000000
FE00000000
FE00000000
FE00000000
FE00000000
FE00000000
FE00000000
FFFFFFFFC0
FFFFFFFFC0
FFFFFFFFC0
FFFFFFFFC0
FFFFFFFFC0
FFFFFFFFC0
ENDCHAR
STARTCHAR 013E
ENCODING 318
SWIDTH 293 0
DWIDTH 22 0
BBX 18 55 5 0
BITMAP
FC3FC0
FC3FC0
FC3FC0
FC3FC0
FC3FC0
FC3FC0
FC3FC0
FC03C0
FC01C0
FC03C0
FC03C0
FC0380
FC0780
FC0F00
FC3F00
FC3E00
FC3800
FC0000
FC0000
FC0000
FC0000
FC0000
FC0000
FC0000
FC0000
FC0000
FC0000
FC0000
FC0000
FC0000
FC0000
FC0000
FC0000
FC0000
FC0000
FC0000
FC0000
FC0000
FC0000
FC0000
FC0000
FC0000
FC0000
FC0000
FC0000
FC0000
FC0000
FC0000
FC0000
FC0000
FC0000
FC0000
FC0000
FC0000
FC0000
ENDCHAR
STARTCHAR 013F
ENCODING 319
SWIDTH 560 0
DWIDTH 42 0
BBX 34 55 6 0
BITMAP
FE00000000
FE00000000
FE00000000
FE00000000
FE00000000
FE00000000
FE00000000
FE00000000
FE00000000
FE00000000
FE00000000
FE00000000
FE00000000
FE00000000
FE00000000
FE00000000
FE00000000
FE00000000
FE00000000
FE00000000
FE00000000
FE00000000
FE00000000
FE00000000
FE000FE000
FE000FE000
FE000FE000
FE000FE000
FE000FE000
FE000FE000
FE000FE000
FE000FE000
FE00000000
FE00000000
FE00000000
FE00000000
FE00000000
FE00000000
FE00000000
FE00000000
FE00000000
FE00000000
FE00000000
FE00000000
FE00000000
FE00000000
FE00000000
FE00000000
FE00000000
FFFFFFFFC0
FFFFFFFFC0
FFFFFFFFC0
FFFFFFFFC0
FFFFFFFFC0
FFFFFFFFC0
ENDCHAR
STARTCHAR 0140
ENCODING 320
SWIDTH 333 0
DWIDTH 25 0
BBX 19 55 6 0
BITMAP
FC0000
FC0000
FC0000
FC0000
FC0000
FC0000
FC0000
FC0000
FC0000
FC0000
FC0000
FC0000
FC0000
FC0000
FC0000
FC0000
FC0000
FC0000
FC0000
FC0000
FC0000
FC0000
FC0000
FC0000
FC1FE0
FC1FE0
FC1FE0
FC1FE0
FC1FE0
FC1FE0
FC1FE0
FC1FE0
FC0000
FC0000
FC0000
FC0000
FC0000
FC0000
FC0000
FC0000
FC0000
FC0000
FC0000
FC0000
FC0000
FC0000
FC0000
FC0000
FC0000
FC0000
FC0000
FC0000
FC0000
FC0000
FC0000
ENDCHAR
STARTCHAR 0141
ENCODING 321
SWIDTH 560 0
DWIDTH 42 0
BBX 41 55 0 0
BITMAP
03F800000000
03F800000000
03F800000000
03F800000000
03F800000000
03F800000000
03F800000000
03F800000000
03F800000000
03F800000000
03F800000000
03F800000000
03F800000000
03F800000000
03F800000000
03F800400000
03F800C00000
03F801C00000
03F807C00000
03F80FC00000
03F83FC00000
03F87F800000
03F8FF000000
03FBFC000000
03FFF8000000
03FFF0000000
03FFC0000000
03FF80000000
03FE00000000
0FFC00000000
1FF800000000
7FF800000000
FFF800000000
FFF800000000
FBF800000000
F3F800000000
C3F800000000
83F800000000
03F800000000
03F800000000
03F800000000
03F800000000
03F800000000
03F800000000
03F800000000
03F800000000
03F800000000
03F800000000
03F800000000
03FFFFFFFF80
03FFFFFFFF80
03FFFFFFFF80
03FFFFFFFF80
03FFFFFFFF80
03FFFFFFFF80
ENDCHAR
STARTCHAR 0142
ENCODING 322
SWIDTH 226 0
DWIDTH 17 0
BBX 16 55 0 0
BITMAP
07E0
07E0
07E0
07E0
07E0
07E0
07E0
07E0
07E0
07E0
07E0
07E0
07E0
07E0
07E0
07E0
07E0
07E0
07E0
07E0
07E3
07E7
07EF
07FF
07FF
07FC
07F8
0FF0
3FE0
7FE0
FFE0
FFE0
E7E0
C7E0
87E0
07E0
07E0
07E0
07E0
07E0
07E0
07E0
07E0
07E0
07E0
07E0
07E0
07E0
07E0
07E0
07E0
07E0
07E0
07E0
07E0
ENDCHAR
STARTCHAR 0143
ENCODING 323
SWIDTH 720 0
DWIDTH 54 0
BBX 42 71 6 0
BITMAP
000001FE0000
000003FC0000
000003F80000
000007F00000
00000FE00000
00000FC00000
00001F800000
00003F000000
00003E000000
00007C000000
000078000000
000080000000
000000000000
000000000000
000000000000
000000000000
FF0000000FC0
FF0000000FC0
FF8000000FC0
FF8000000FC0
FFC000000FC0
FFE000000FC0
FFE000000FC0
FFF000000FC0
FFF800000FC0
FFF800000FC0
FFFC00000FC0
FDFE00000FC0
FCFE00000FC0
FCFF00000FC0
FC7F00000FC0
FC7F80000FC0
FC3FC0000FC0
FC1FC0000FC0
FC1FE0000FC0
FC0FF0000FC0
FC07F0000FC0
FC07F8000FC0
FC03FC000FC0
FC01FC000FC0
FC01FE000FC0
FC00FE000FC0
FC00FF000FC0
FC007F800FC0
FC003F800FC0
FC003FC00FC0
FC001FE00FC0
FC000FE00FC0
FC000FF00FC0
FC0007F80FC0
FC0003F80FC0
FC0003FC0FC0
FC0001FC0FC0
FC0001FE0FC0
FC0000FF0FC0
FC00007F0FC0
FC00007F8FC0
FC00003FCFC0
FC00001FCFC0
FC00001FEFC0
FC00000FFFC0
FC000007FFC0
FC000007FFC0
FC000003FFC0
FC000003FFC0
FC000001FFC0
FC000000FFC0
FC000000FFC0
FC0000007FC0
FC0000003FC0
FC0000003FC0
ENDCHAR
STARTCHAR 0144
ENCODING 324
SWIDTH 560 0
DWIDTH 42 0
BBX 32 56 5 0
BITMAP
00003FC0
00007F80
00007F00
0000FE00
0001FC00
0001F800
0003F000
0003F000
0007E000
000FC000
000F8000
001F0000
00000000
00000000
00000000
00000000
0003FE00
FC0FFFC0
FC3FFFF0
FC7FFFF8
FCFFFFFC
FCFFFFFC
FDF803FE
FFE001FE
FFC000FE
FF80007E
FF00007F
FF00007F
FF00007F
FE00007F
FE00007F
FE00007F
FE00007F
FE00007F
FE00007F
FE00007F
FE00007F
FE00007F
FE00007F
FE00007F
FE00007F
FE00007F
FE00007F
FE00007F
FE00007F
FE00007F
FE00007F
FE00007F
FE00007F
FE00007F
FE00007F
FE00007F
FE00007F
FE00007F
FE00007F
FE00007F
ENDCHAR
STARTCHAR 0145
ENCODING 325
SWIDTH 720 0
DWIDTH 54 0
BBX 42 76 6 -21
BITMAP
FF0000000FC0
FF0000000FC0
FF8000000FC0
FF8000000FC0
FFC000000FC0
FFE000000FC0
FFE000000FC0
FFF000000FC0
FFF800000FC0
FFF800000FC0
FFFC00000FC0
FDFE00000FC0
FCFE00000FC0
FCFF00000FC0
FC7F00000FC0
FC7F80000FC0
FC3FC0000FC0
FC1FC0000FC0
FC1FE0000FC0
FC0FF0000FC0
FC07F0000FC0
FC07F8000FC0
FC03FC000FC0
FC01FC000FC0
FC01FE000FC0
FC00FE000FC0
FC00FF000FC0
FC007F800FC0
FC003F800FC0
FC003FC00FC0
FC001FE00FC0
FC000FE00FC0
FC000FF00FC0
FC0007F80FC0
FC0003F80FC0
FC0003FC0FC0
FC0001FC0FC0
FC0001FE0FC0
FC0000FF0FC0
FC00007F0FC0
FC00007F8FC0
FC00003FCFC0
FC00001FCFC0
FC00001FEFC0
FC00000FFFC0
FC000007FFC0
FC000007FFC0
FC000003FFC0
FC000003FFC0
FC000001FFC0
FC000000FFC0
FC000000FFC0
FC0000007FC0
FC0000003FC0
FC0000003FC0
000000000000
000000000000
000000000000
000000000000
000000000000
0000FF000000
0000FF000000
0000FF000000
0000FF000000
0000FF000000
0000FF000000
0000FF000000
00000F000000
00000F000000
00000F000000
00000E000000
00000E000000
00001E000000
0000FC000000
0000F8000000
0000F0000000
ENDCHAR
STARTCHAR 0146
ENCODING 326
SWIDTH 560 0
DWIDTH 42 0
BBX 32 61 5 -21
BITMAP
0001FE00
FC0FFFC0
FC1FFFF0
FC7FFFF8
FCFFFFFC
FCFFFFFC
FDF803FE
FFE001FE
FFC000FE
FF80007E
FF00007F
FF00007F
FF00007F
FE00007F
FE00007F
FE00007F
FE00007F
FE00007F
FE00007F
FE00007F
FE00007F
FE00007F
FE00007F
FE00007F
FE00007F
FE00007F
FE00007F
FE00007F
FE00007F
FE00007F
FE00007F
FE00007F
FE00007F
FE00007F
FE00007F
FE00007F
FE00007F
FE00007F
FE00007F
FE00007F
00000000
00000000
00000000
00000000
00000000
000FF000
000FF000
000FF000
000FF000
000FF000
000FF000
000FF000
0000F000
0000F000
0000E000
0000E000
0000E000
0001E000
000FC000
000F8000
000F0000
ENDCHAR
STARTCHAR 0147
ENCODING 327
SWIDTH 720 0
DWIDTH 54 0
BBX 42 71 6 0
BITMAP
001E001F0000
001F003E0000
000F807C0000
000FC0FC0000
0007E1F80000
0003F1F00000
0003F3F00000
0001FFE00000
0000FFE00000
0000FFC00000
00007F800000
000000000000
000000000000
000000000000
000000000000
000000000000
FF0000000FC0
FF0000000FC0
FF8000000FC0
FF8000000FC0
FFC000000FC0
FFE000000FC0
FFE000000FC0
FFF000000FC0
FFF800000FC0
FFF800000FC0
FFFC00000FC0
FDFE00000FC0
FCFE00000FC0
FCFF00000FC0
FC7F00000FC0
FC7F80000FC0
FC3FC0000FC0
FC1FC0000FC0
FC1FE0000FC0
FC0FF0000FC0
FC07F0000FC0
FC07F8000FC0
FC03FC000FC0
FC01FC000FC0
FC01FE000FC0
FC00FE000FC0
FC00FF000FC0
FC007F800FC0
FC003F800FC0
FC003FC00FC0
FC001FE00FC0
FC000FE00FC0
FC000FF00FC0
FC0007F80FC0
FC0003F80FC0
FC0003FC0FC0
FC0001FC0FC0
FC0001FE0FC0
FC0000FF0FC0
FC00007F0FC0
FC00007F8FC0
FC00003FCFC0
FC00001FCFC0
FC00001FEFC0
FC00000FFFC0
FC000007FFC0
FC000007FFC0
FC000003FFC0
FC000003FFC0
FC000001FFC0
FC000000FFC0
FC000000FFC0
FC0000007FC0
FC0000003FC0
FC0000003FC0
ENDCHAR
STARTCHAR 0148
ENCODING 328
SWIDTH 560 0
DWIDTH 42 0
BBX 32 56 5 0
BITMAP
07C007C0
03E007C0
01F00F80
01F81F00
00FC3F00
00FC7E00
007E7E00
003FFC00
003FF800
001FF800
000FF000
000FF000
00000000
00000000
00000000
00000000
0003FE00
FC0FFFC0
FC3FFFF0
FC7FFFF8
FCFFFFFC
FCFFFFFC
FDF803FE
FFE001FE
FFC000FE
FF80007E
FF00007F
FF00007F
FF00007F
FE00007F
FE00007F
FE00007F
FE00007F
FE00007F
FE00007F
FE00007F
FE00007F
FE00007F
FE00007F
FE00007F
FE00007F
FE00007F
FE00007F
FE00007F
FE00007F
FE00007F
FE00007F
FE00007F
FE00007F
FE00007F
FE00007F
FE00007F
FE00007F
FE00007F
FE00007F
FE00007F
ENDCHAR
STARTCHAR 0149
ENCODING 329
SWIDTH 600 0
DWIDTH 45 0
BBX 39 57 1 0
BITMAP
FE00000000
FE00000000
FE00000000
FE00000000
FE00000000
FE00000000
FE00000000
0E00000000
0E00000000
0E00000000
0E00000000
1E00000000
1C00000000
3C00000000
F800000000
F000000000
E000000000
000003FE00
00FC0FFFC0
00FC3FFFE0
00FC7FFFF0
00FCFFFFF8
00FDFFFFFC
00FFF007FC
00FFE001FE
00FFC000FE
00FF8000FE
00FF00007E
00FF00007E
00FE00007E
00FE00007E
00FE00007E
00FC00007E
00FC00007E
00FC00007E
00FC00007E
00FC00007E
00FC00007E
00FC00007E
00FC00007E
00FC00007E
00FC00007E
00FC00007E
00FC00007E
00FC00007E
00FC00007E
00FC00007E
00FC00007E
00FC00007E
00FC00007E
00FC00007E
00FC00007E
00FC00007E
00FC00007E
00FC00007E
00FC00007E
00FC00007E
ENDCHAR
STARTCHAR 014A
ENCODING 330
SWIDTH 720 0
DWIDTH 54 0
BBX 41 78 7 -22
BITMAP
00001FF00000
0000FFFF0000
FC03FFFFC000
FC07FFFFE000
FC0FFFFFF000
FC1FFFFFF800
FC3FE07FFC00
FC7F000FFE00
FCFC0003FE00
FDF80001FF00
FFF00000FF00
FFE00000FF00
FFC000007F00
FF8000007F00
FF8000007F80
FF0000007F80
FF0000003F80
FF0000003F80
FF0000003F80
FE0000003F80
FE0000003F80
FE0000003F80
FE0000003F80
FE0000003F80
FE0000003F80
FE0000003F80
FE0000003F80
FE0000003F80
FE0000003F80
FE0000003F80
FE0000003F80
FE0000003F80
FE0000003F80
FE0000003F80
FE0000003F80
FE0000003F80
FE0000003F80
FE0000003F80
FE0000003F80
FE0000003F80
FE0000003F80
FE0000003F80
FE0000003F80
FE0000003F80
FE0000003F80
FE0000003F80
FE0000003F80
FE0000003F80
FE0000003F80
FE0000003F80
FE0000003F80
FE0000003F80
FE0000003F80
FE0000003F80
FE0000003F80
FE0000003F80
000000003F80
000000003F80
000000003F80
000000003F80
000000003F80
000000003F80
000000003F80
000000003F80
000000003F80
000000003F80
000000003F80
000000007F00
000000007F00
000000007F00
00000000FF00
00000001FF00
000000FFFE00
000000FFFE00
000000FFFC00
000000FFF800
000000FFF000
000000FFC000
ENDCHAR
STARTCHAR 014B
ENCODING 331
SWIDTH 560 0
DWIDTH 42 0
BBX 32 57 5 -17
BITMAP
0001FE00
FC07FFC0
FC1FFFF0
FC3FFFF8
FC7FFFFC
FCFFBFFC
FDF803FE
FFE001FE
FFC000FE
FF80007E
FF80007F
FF00007F
FF00007F
FE00007F
FE00007F
FE00007F
FE00007F
FE00007F
FE00007F
FE00007F
FE00007F
FE00007F
FE00007F
FE00007F
FE00007F
FE00007F
FE00007F
FE00007F
FE00007F
FE00007F
FE00007F
FE00007F
FE00007F
FE00007F
FE00007F
FE00007F
FE00007F
FE00007F
FE00007F
FE00007F
0000007F
0000007F
0000007F
0000007F
0000007F
0000007F
0000007F
0000007F
0000007E
0000007E
000001FE
00001FFE
00001FFE
00001FFC
00001FF8
00001FE0
00000600
ENDCHAR
STARTCHAR 014C
ENCODING 332
SWIDTH 773 0
DWIDTH 58 0
BBX 53 70 3 -2
BITMAP
0000FFFFF80000
0000FFFFF80000
0000FFFFF80000
0000FFFFF80000
0000FFFFF80000
00000000000000
00000000000000
00000000000000
00000000000000
00000000000000
00000000000000
00000000000000
000007FF000000
00007FFFF00000
0001FFFFFC0000
0007FFFFFF0000
001FFFFFFFC000
003FFFFFFFE000
007FFE03FFF000
00FFE0007FF800
01FF80000FFC00
03FE000007FE00
07FC000003FE00
07F8000001FF00
0FF0000000FF80
1FE00000007F80
1FE00000003FC0
3FC00000003FC0
3FC00000001FE0
3F800000001FE0
7F800000000FE0
7F000000000FE0
7F0000000007F0
7F0000000007F0
FF0000000007F0
FE0000000007F0
FE0000000007F0
FE0000000007F8
FE0000000003F8
FE0000000003F8
FE0000000003F8
FE0000000003F8
FE0000000003F8
FE0000000003F8
FE0000000003F8
FE0000000007F0
FE0000000007F0
FF0000000007F0
7F0000000007F0
7F0000000007F0
7F000000000FE0
7F800000000FE0
3F800000000FE0
3FC00000001FC0
3FC00000001FC0
1FE00000003FC0
1FE00000007F80
0FF0000000FF80
0FF8000000FF00
07FC000001FE00
03FE000007FE00
01FF80000FFC00
00FFE0003FF800
007FFE03FFF000
003FFFFFFFE000
001FFFFFFFC000
0007FFFFFF0000
0003FFFFFC0000
00007FFFF00000
000007FF000000
ENDCHAR
STARTCHAR 014D
ENCODING 333
SWIDTH 560 0
DWIDTH 42 0
BBX 35 54 3 -2
BITMAP
01FFFFF000
01FFFFF000
01FFFFF000
01FFFFF000
01FFFFF000
0000000000
0000000000
0000000000
0000000000
0000000000
0000000000
0000000000
0007FC0000
003FFF8000
00FFFFE000
01FFFFF800
07FFFFFC00
0FFFFFFE00
0FFC07FE00
1FF001FF00
3FC0007F80
3FC0007F80
3F80003FC0
7F00001FC0
7F00001FC0
7E00000FC0
FE00000FE0
FE00000FE0
FE00000FE0
FC00000FE0
FC000007E0
FC000007E0
FC000007E0
FC000007E0
FC000007E0
FC000007E0
FC000007E0
FE00000FE0
FE00000FE0
FE00000FE0
7E00000FC0
7F00001FC0
7F00001FC0
7F80003F80
3FC0007F80
3FC0007F80
1FF001FF00
0FFC07FE00
0FFFFFFC00
07FFFFFC00
03FFFFF000
00FFFFE000
003FFF8000
0007FC0000
ENDCHAR
STARTCHAR 014E
ENCODING 334
SWIDTH 773 0
DWIDTH 58 0
BBX 53 72 3 -2
BITMAP
0001E000780000
0001F000780000
0001F000F80000
0001F801F80000
0000FE07F00000
0000FFFFF00000
00007FFFE00000
00003FFFC00000
00001FFF800000
000003FC000000
00000000000000
00000000000000
00000000000000
00000000000000
000007FF000000
00007FFFF00000
0001FFFFFC0000
0007FFFFFF0000
001FFFFFFFC000
003FFFFFFFE000
007FFE03FFF000
00FFE0007FF800
01FF80000FFC00
03FE000007FE00
07FC000003FE00
07F8000001FF00
0FF0000000FF80
1FE00000007F80
1FE00000003FC0
3FC00000003FC0
3FC00000001FE0
3F800000001FE0
7F800000000FE0
7F000000000FE0
7F0000000007F0
7F0000000007F0
FF0000000007F0
FE0000000007F0
FE0000000007F0
FE0000000007F8
FE0000000003F8
FE0000000003F8
FE0000000003F8
FE0000000003F8
FE0000000003F8
FE0000000003F8
FE0000000003F8
FE0000000007F0
FE0000000007F0
FF0000000007F0
7F0000000007F0
7F0000000007F0
7F000000000FE0
7F800000000FE0
3F800000000FE0
3FC00000001FC0
3FC00000001FC0
1FE00000003FC0
1FE00000007F80
0FF0000000FF80
0FF8000000FF00
07FC000001FE00
03FE000007FE00
01FF80000FFC00
00FFE0003FF800
007FFE03FFF000
003FFFFFFFE000
001FFFFFFFC000
0007FFFFFF0000
0003FFFFFC0000
00007FFFF00000
000007FF000000
ENDCHAR
STARTCHAR 014F
ENCODING 335
SWIDTH 560 0
DWIDTH 42 0
BBX 35 57 3 -2
BITMAP
03E000F800
03E000F800
03E001F000
01F001F000
01FC07F000
01FFFFE000
00FFFFC000
007FFFC000
001FFF0000
0007FC0000
0000000000
0000000000
0000000000
0000000000
0000000000
0007FC0000
003FFF8000
00FFFFE000
01FFFFF800
07FFFFFC00
0FFFFFFE00
0FFC07FE00
1FF001FF00
3FC0007F80
3FC0007F80
3F80003FC0
7F00001FC0
7F00001FC0
7E00000FC0
FE00000FE0
FE00000FE0
FE00000FE0
FC00000FE0
FC000007E0
FC000007E0
FC000007E0
FC000007E0
FC000007E0
FC000007E0
FC000007E0
FE00000FE0
FE00000FE0
FE00000FE0
7E00000FC0
7F00001FC0
7F00001FC0
7F80003F80
3FC0007F80
3FC0007F80
1FF001FF00
0FFC07FE00
0FFFFFFC00
07FFFFFC00
03FFFFF000
00FFFFE000
003FFF8000
0007FC0000
ENDCHAR
STARTCHAR 0150
ENCODING 336
SWIDTH 773 0
DWIDTH 58 0
BBX 53 73 3 -2
BITMAP
000000FF07F800
000001FE0FF000
000001FC0FE000
000003F81FC000
000003F01FC000
000007E03F8000
00000FC07F0000
00000F807E0000
00001F00FC0000
00003E01F80000
00003E01F00000
00000000000000
00000000000000
00000000000000
00000000000000
000007FF000000
00007FFFF00000
0001FFFFFC0000
0007FFFFFF0000
001FFFFFFFC000
003FFFFFFFE000
007FFE03FFF000
00FFE0007FF800
01FF80000FFC00
03FE000007FE00
07FC000003FE00
07F8000001FF00
0FF0000000FF80
1FE00000007F80
1FE00000003FC0
3FC00000003FC0
3FC00000001FE0
3F800000001FE0
7F800000000FE0
7F000000000FE0
7F0000000007F0
7F0000000007F0
FF0000000007F0
FE0000000007F0
FE0000000007F0
FE0000000007F8
FE0000000003F8
FE0000000003F8
FE0000000003F8
FE0000000003F8
FE0000000003F8
FE0000000003F8
FE0000000003F8
FE0000000007F0
FE0000000007F0
FF0000000007F0
7F0000000007F0
7F0000000007F0
7F000000000FE0
7F800000000FE0
3F800000000FE0
3FC00000001FC0
3FC00000001FC0
1FE00000003FC0
1FE00000007F80
0FF0000000FF80
0FF8000000FF00
07FC000001FE00
03FE000007FE00
01FF80000FFC00
00FFE0003FF800
007FFE03FFF000
003FFFFFFFE000
001FFFFFFFC000
0007FFFFFF0000
0003FFFFFC0000
00007FFFF00000
000007FF000000
ENDCHAR
STARTCHAR 0151
ENCODING 337
SWIDTH 560 0
DWIDTH 42 0
BBX 36 58 3 -2
BITMAP
0001FE0FF0
0003FC1FE0
0007F81FC0
0007F03F80
000FE07F00
000FC07E00
001F80FC00
003F01F800
003E01F000
007C03F000
007C03E000
00F807C000
0000000000
0000000000
0000000000
0000000000
0007FC0000
003FFF8000
00FFFFE000
01FFFFF800
07FFFFFC00
0FFFFFFE00
0FFC07FE00
1FF001FF00
3FC0007F80
3FC0007F80
3F80003FC0
7F00001FC0
7F00001FC0
7E00000FC0
FE00000FE0
FE00000FE0
FE00000FE0
FC00000FE0
FC000007E0
FC000007E0
FC000007E0
FC000007E0
FC000007E0
FC000007E0
FC000007E0
FE00000FE0
FE00000FE0
FE00000FE0
7E00000FC0
7F00001FC0
7F00001FC0
7F80003F80
3FC0007F80
3FC0007F80
1FF001FF00
0FFC07FE00
0FFFFFFC00
07FFFFFC00
03FFFFF000
00FFFFE000
003FFF8000
0007FC0000
ENDCHAR
STARTCHAR 0152
ENCODING 338
SWIDTH 1000 0
DWIDTH 75 0
BBX 69 57 3 -1
BITMAP
00003FE00000000000
0001FFFC0FFFFFFFF8
0007FFFF0FFFFFFFF8
001FFFFFCFFFFFFFF8
007FFFFFEFFFFFFFF8
00FFFFFFEFFFFFFFF8
01FFE03FFFFFFFFFF8
03FF0007FFE0000000
03FC0001FFE0000000
07F80000FFE0000000
0FF000007FE0000000
0FE000003FE0000000
1FE000001FE0000000
1FC000001FE0000000
1FC000000FE0000000
3F8000000FE0000000
3F8000000FE0000000
3F0000000FE0000000
7F0000000FE0000000
7F0000000FE0000000
7F0000000FE0000000
7F0000000FE0000000
7F0000000FE0000000
7E0000000FE0000000
FE0000000FE0000000
FE0000000FFFFFFFF0
FE0000000FFFFFFFF0
FE0000000FFFFFFFF0
FE0000000FFFFFFFF0
FE0000000FFFFFFFF0
FE0000000FFFFFFFF0
FE0000000FE0000000
FE0000000FE0000000
FE0000000FE0000000
7F0000000FE0000000
7F0000000FE0000000
7F0000000FE0000000
7F0000000FE0000000
7F0000000FE0000000
7F8000000FE0000000
3F8000000FE0000000
3F8000000FE0000000
3FC000000FE0000000
1FC000000FE0000000
1FE000001FE0000000
0FE000003FE0000000
0FF000007FE0000000
07F80000FFE0000000
07FE0001FFE0000000
03FF0007FFE0000000
01FFE03FFFFFFFFFF8
00FFFFFFEFFFFFFFF8
007FFFFFCFFFFFFFF8
001FFFFF8FFFFFFFF8
000FFFFF0FFFFFFFF8
0003FFFC0FFFFFFFF8
00003FE00000000000
ENDCHAR
STARTCHAR 0153
ENCODING 339
SWIDTH 946 0
DWIDTH 71 0
BBX 64 42 3 -2
BITMAP
0007FE00001FE000
003FFFC000FFFC00
00FFFFE003FFFF00
01FFFFF807FFFFC0
03FFFFFC1FFFFFE0
07FFFFFE3FFFFFF0
0FFC03FF3FE01FF8
1FF000FF7F8007F8
1FE0007FFF0003FC
3FC0003FFE0001FE
3F80003FFC0000FE
7F80001FF80000FE
7F00001FF800007F
7F00000FF800007F
7E00000FF000007F
FE00000FF000007F
FE000007F000003F
FE000007F000003F
FE000007FFFFFFFF
FE000007FFFFFFFF
FE000007FFFFFFFF
FE000007FFFFFFFF
FE000007FFFFFFFF
FE000007F0000000
FE000007F0000000
FE000007F0000000
FE000007F0000000
7E00000FF0000000
7F00000FF0000000
7F00000FF800007E
7F80001FF800007E
3F80001FFC0000FE
3FC0003FFE0001FC
1FE0007FFF0003FC
1FF000FFFF8007F8
0FFC03FF7FE01FF8
07FFFFFE3FFFFFF0
07FFFFFC1FFFFFE0
01FFFFF80FFFFFC0
00FFFFE007FFFF00
003FFF8001FFFC00
0007FC00003FE000
ENDCHAR
STARTCHAR 0154
ENCODING 340
SWIDTH 720 0
DWIDTH 54 0
BBX 44 71 7 0
BITMAP
000003FC0000
000007F80000
00000FF00000
00000FE00000
00001FC00000
00003F800000
00003F000000
00007E000000
0000FC000000
0000F8000000
0001F0000000
000000000000
000000000000
000000000000
000000000000
000000000000
FFFFFFFE0000
FFFFFFFFC000
FFFFFFFFF000
FFFFFFFFF800
FFFFFFFFFC00
FFFFFFFFFE00
FE00000FFF00
FE000001FF00
FE000000FF80
FE0000007F80
FE0000007F80
FE0000003FC0
FE0000003FC0
FE0000003FC0
FE0000001FC0
FE0000001FC0
FE0000001FC0
FE0000003FC0
FE0000003F80
FE0000003F80
FE0000003F80
FE0000007F00
FE000000FF00
FE000001FE00
FE00000FFC00
FFFFFFFFF800
FFFFFFFFE000
FFFFFFFFC000
FFFFFFFFE000
FFFFFFFFF800
FFFFFFFFFC00
FE00000FFE00
FE000001FE00
FE000000FF00
FE000000FF00
FE0000007F00
FE0000007F00
FE0000003F00
FE0000003F80
FE0000003F80
FE0000003F80
FE0000003F80
FE0000003F80
FE0000003F80
FE0000003F80
FE0000003F80
FE0000003F80
FE0000003F80
FE0000003F80
FE0000003F80
FE0000003FC0
FE0000003FC0
FE0000001FE0
FE0000001FF0
FE0000001FF0
ENDCHAR
STARTCHAR 0155
ENCODING 341
SWIDTH 333 0
DWIDTH 25 0
BBX 19 56 5 0
BITMAP
001FE0
003FC0
003F80
007F00
007E00
00FE00
01FC00
01F800
03F000
07E000
07C000
0F8000
000000
000000
000000
000000
0003E0
FC0FE0
FC1FE0
FC7FE0
FC7FE0
FCFFE0
FDFF80
FFF000
FFE000
FFC000
FF8000
FF0000
FF0000
FE0000
FE0000
FE0000
FE0000
FE0000
FE0000
FC0000
FC0000
FC0000
FC0000
FC0000
FC0000
FC0000
FC0000
FC0000
FC0000
FC0000
FC0000
FC0000
FC0000
FC0000
FC0000
FC0000
FC0000
FC0000
FC0000
FC0000
ENDCHAR
STARTCHAR 0156
ENCODING 342
SWIDTH 720 0
DWIDTH 54 0
BBX 44 76 7 -21
BITMAP
FFFFFFFE0000
FFFFFFFFC000
FFFFFFFFF000
FFFFFFFFF800
FFFFFFFFFC00
FFFFFFFFFE00
FE00000FFF00
FE000001FF00
FE000000FF80
FE0000007F80
FE0000007F80
FE0000003FC0
FE0000003FC0
FE0000003FC0
FE0000001FC0
FE0000001FC0
FE0000001FC0
FE0000003FC0
FE0000003F80
FE0000003F80
FE0000003F80
FE0000007F00
FE000000FF00
FE000001FE00
FE00000FFC00
FFFFFFFFF800
FFFFFFFFE000
FFFFFFFFC000
FFFFFFFFE000
FFFFFFFFF800
FFFFFFFFFC00
FE00000FFE00
FE000001FE00
FE000000FF00
FE000000FF00
FE0000007F00
FE0000007F00
FE0000003F00
FE0000003F80
FE0000003F80
FE0000003F80
FE0000003F80
FE0000003F80
FE0000003F80
FE0000003F80
FE0000003F80
FE0000003F80
FE0000003F80
FE0000003F80
FE0000003F80
FE0000003FC0
FE0000003FC0
FE0000001FE0
FE0000001FF0
FE0000001FF0
000000000000
000000000000
000000000000
000000000000
000000000000
00007F000000
00007F000000
00007F000000
00007F000000
00007F000000
00007F000000
00007F000000
000007000000
000007000000
000007000000
000007000000
00000F000000
00000E000000
00007E000000
00007C000000
000070000000
ENDCHAR
STARTCHAR 0157
ENCODING 343
SWIDTH 333 0
DWIDTH 25 0
BBX 19 61 5 -21
BITMAP
0003E0
FC0FE0
FC1FE0
FC7FE0
FC7FE0
FCFFE0
FDFF80
FFF000
FFE000
FFC000
FF8000
FF0000
FF0000
FE0000
FE0000
FE0000
FE0000
FE0000
FE0000
FC0000
FC0000
FC0000
FC0000
FC0000
FC0000
FC0000
FC0000
FC0000
FC0000
FC0000
FC0000
FC0000
FC0000
FC0000
FC0000
FC0000
FC0000
FC0000
FC0000
FC0000
000000
000000
000000
000000
000000
FE0000
FE0000
FE0000
FE0000
FE0000
FE0000
FE0000
0E0000
0E0000
0E0000
0E0000
1E0000
3C0000
FC0000
F80000
E00000
ENDCHAR
STARTCHAR 0158
ENCODING 344
SWIDTH 720 0
DWIDTH 54 0
BBX 44 71 7 0
BITMAP
007C007C0000
003E007C0000
003F00F80000
001F01F00000
000F83F00000
000FC7E00000
0007EFC00000
0003FFC00000
0003FF800000
0001FF800000
0000FF000000
000000000000
000000000000
000000000000
000000000000
000000000000
FFFFFFFE0000
FFFFFFFFC000
FFFFFFFFF000
FFFFFFFFF800
FFFFFFFFFC00
FFFFFFFFFE00
FE00000FFF00
FE000001FF00
FE000000FF80
FE0000007F80
FE0000007F80
FE0000003FC0
FE0000003FC0
FE0000003FC0
FE0000001FC0
FE0000001FC0
FE0000001FC0
FE0000003FC0
FE0000003F80
FE0000003F80
FE0000003F80
FE0000007F00
FE000000FF00
FE000001FE00
FE00000FFC00
FFFFFFFFF800
FFFFFFFFE000
FFFFFFFFC000
FFFFFFFFE000
FFFFFFFFF800
FFFFFFFFFC00
FE00000FFE00
FE000001FE00
FE000000FF00
FE000000FF00
FE0000007F00
FE0000007F00
FE0000003F00
FE0000003F80
FE0000003F80
FE0000003F80
FE0000003F80
FE0000003F80
FE0000003F80
FE0000003F80
FE0000003F80
FE0000003F80
FE0000003F80
FE0000003F80
FE0000003F80
FE0000003FC0
FE0000003FC0
FE0000001FE0
FE0000001FF0
FE0000001FF0
ENDCHAR
STARTCHAR 0159
ENCODING 345
SWIDTH 333 0
DWIDTH 25 0
BBX 21 56 4 0
BITMAP
F800F8
7C01F0
7C03F0
3E03E0
3F07C0
1F8FC0
0FDF80
0FFF80
07FF00
07FE00
03FE00
01FC00
000000
000000
000000
000000
0001F0
7E07F0
7E0FF0
7E3FF0
7E3FF0
7E7FF0
7EFFC0
7FF800
7FF000
7FE000
7FC000
7F8000
7F8000
7F0000
7F0000
7F0000
7F0000
7F0000
7F0000
7E0000
7E0000
7E0000
7E0000
7E0000
7E0000
7E0000
7E0000
7E0000
7E0000
7E0000
7E0000
7E0000
7E0000
7E0000
7E0000
7E0000
7E0000
7E0000
7E0000
7E0000
ENDCHAR
STARTCHAR 015A
ENCODING 346
SWIDTH 666 0
DWIDTH 50 0
BBX 43 73 4 -2
BITMAP
000001FE0000
000003FC0000
000003F80000
000007F00000
00000FE00000
00000FC00000
00001F800000
00003F000000
00003E000000
00007C000000
0000F8000000
000000000000
000000000000
000000000000
000000000000
0001FFC00000
000FFFFC0000
007FFFFF0000
00FFFFFFC000
03FFFFFFE000
07FFFFFFF000
0FFF003FF800
0FF80007FC00
1FE00003FE00
1FC00001FE00
3FC00000FF00
3F8000007F00
3F8000007F00
7F0000003F80
7F0000003F80
7F0000003F80
7F0000003F80
7F8000000000
7F8000000000
3FC000000000
3FE000000000
3FF000000000
1FFC00000000
1FFF80000000
0FFFF8000000
07FFFF800000
03FFFFF00000
00FFFFFF0000
003FFFFFE000
0007FFFFF000
00007FFFFC00
000007FFFE00
000000FFFF00
0000000FFF00
00000003FF80
00000000FFC0
000000007FC0
000000003FC0
000000001FC0
FC0000001FE0
FC0000001FE0
FC0000000FE0
FE0000000FE0
FE0000001FC0
FE0000001FC0
7F0000001FC0
7F8000003FC0
7F8000003F80
3FC000007F80
3FF00000FF00
1FFC0003FF00
0FFF803FFE00
07FFFFFFFC00
03FFFFFFF800
01FFFFFFF000
007FFFFFC000
001FFFFE0000
0001FFE00000
ENDCHAR
STARTCHAR 015B
ENCODING 347
SWIDTH 506 0
DWIDTH 38 0
BBX 31 58 3 -2
BITMAP
00007FC0
00007F80
0000FF00
0001FE00
0001FC00
0003F800
0003F000
0007E000
000FC000
000F8000
001F0000
001E0000
00000000
00000000
00000000
00000000
001FF800
00FFFF00
03FFFF80
0FFFFFE0
1FFFFFE0
1FFFFFF0
3FE00FF8
7F8007F8
7F0003F8
7F0001FC
7E0001FC
7E0001FC
7E000000
7E000000
7F000000
7FC00000
7FF00000
3FFE0000
1FFFF000
0FFFFE00
07FFFFC0
01FFFFE0
003FFFF8
0003FFFC
00003FFC
000007FE
000001FE
000000FE
0000007E
FC00007E
FC00007E
FE00007E
FE0000FE
FF0000FE
7F8003FC
7FE007FC
3FFFFFF8
3FFFFFF0
1FFFFFE0
07FFFFC0
01FFFF00
003FF000
ENDCHAR
STARTCHAR 015C
ENCODING 348
SWIDTH 666 0
DWIDTH 50 0
BBX 43 73 4 -2
BITMAP
00007F800000
0000FF800000
0000FFC00000
0001FFE00000
0003F7E00000
0003F3F00000
0007E1F00000
000FC0F80000
000F80FC0000
001F007C0000
001F003E0000
000000000000
000000000000
000000000000
000000000000
0001FFC00000
000FFFFC0000
007FFFFF0000
00FFFFFFC000
03FFFFFFE000
07FFFFFFF000
0FFF003FF800
0FF80007FC00
1FE00003FE00
1FC00001FE00
3FC00000FF00
3F8000007F00
3F8000007F00
7F0000003F80
7F0000003F80
7F0000003F80
7F0000003F80
7F8000000000
7F8000000000
3FC000000000
3FE000000000
3FF000000000
1FFC00000000
1FFF80000000
0FFFF8000000
07FFFF800000
03FFFFF00000
00FFFFFF0000
003FFFFFE000
0007FFFFF000
00007FFFFC00
000007FFFE00
000000FFFF00
0000000FFF00
00000003FF80
00000000FFC0
000000007FC0
000000003FC0
000000001FC0
FC0000001FE0
FC0000001FE0
FC0000000FE0
FE0000000FE0
FE0000001FC0
FE0000001FC0
7F0000001FC0
7F8000003FC0
7F8000003F80
3FC000007F80
3FF00000FF00
1FFC0003FF00
0FFF803FFE00
07FFFFFFFC00
03FFFFFFF800
01FFFFFFF000
007FFFFFC000
001FFFFE0000
0001FFE00000
ENDCHAR
STARTCHAR 015D
ENCODING 349
SWIDTH 506 0
DWIDTH 38 0
BBX 31 58 3 -2
BITMAP
000FF000
001FF000
001FF800
003FF800
007FFC00
007E7E00
00FC3E00
00F83F00
01F01F00
03F00F80
03E007C0
07C007C0
00000000
00000000
00000000
00000000
001FF800
00FFFF00
03FFFF80
0FFFFFE0
1FFFFFE0
1FFFFFF0
3FE00FF8
7F8007F8
7F0003F8
7F0001FC
7E0001FC
7E0001FC
7E000000
7E000000
7F000000
7FC00000
7FF00000
3FFE0000
1FFFF000
0FFFFE00
07FFFFC0
01FFFFE0
003FFFF8
0003FFFC
00003FFC
000007FE
000001FE
000000FE
0000007E
FC00007E
FC00007E
FE00007E
FE0000FE
FF0000FE
7F8003FC
7FE007FC
3FFFFFF8
3FFFFFF0
1FFFFFE0
07FFFFC0
01FFFF00
003FF000
ENDCHAR
STARTCHAR 015E
ENCODING 350
SWIDTH 666 0
DWIDTH 50 0
BBX 43 72 4 -16
BITMAP
0000FFE00000
000FFFFC0000
003FFFFF8000
00FFFFFFC000
01FFFFFFF000
03FFFFFFF800
07FF003FFC00
0FF80007FC00
1FF00003FE00
1FE00000FE00
3FC00000FF00
3F8000007F00
3F8000007F80
3F8000003F80
3F0000003F80
7F0000003F80
7F8000003F80
3F8000000000
3F8000000000
3FC000000000
3FE000000000
3FF000000000
1FFE00000000
1FFFC0000000
0FFFF8000000
07FFFF800000
03FFFFF80000
00FFFFFF0000
003FFFFFE000
0003FFFFF800
00007FFFFC00
000007FFFE00
0000007FFF00
0000000FFF80
00000001FF80
00000000FFC0
000000003FC0
000000003FC0
000000001FE0
FC0000000FE0
FE0000000FE0
FE0000000FE0
FE0000000FE0
FE0000000FE0
7F0000001FC0
7F0000001FC0
7F8000001FC0
3FC000003F80
3FE000007F80
1FF00000FF00
1FFC0003FF00
0FFFC03FFE00
07FFFFFFFC00
03FFFFFFF800
00FFFFFFF000
007FFFFFC000
000FFFFE0000
0000FFE00000
000038000000
000038000000
00007F000000
00007FE00000
0000FFF00000
000007F00000
000003F00000
000001F00000
000001F00000
001803F00000
003F07E00000
003FFFE00000
000FFF800000
0001FE000000
ENDCHAR
STARTCHAR 015F
ENCODING 351
SWIDTH 506 0
DWIDTH 38 0
BBX 31 56 3 -16
BITMAP
001FF800
00FFFF00
03FFFF80
0FFFFFE0
1FFFFFE0
1FFFFFF0
3FE00FF8
7F8007F8
7F0003F8
7F0001FC
7E0001FC
7E0001FC
7E000000
7F000000
7F000000
7FC00000
7FF00000
3FFF0000
1FFFF000
0FFFFF00
07FFFFC0
00FFFFF0
001FFFF8
0001FFFC
00001FFC
000003FE
000001FE
000000FE
FC00007E
FC00007E
FE00007E
FE00007E
FE0000FE
FF0001FE
7F8003FC
7FF00FFC
3FFFFFF8
1FFFFFF0
0FFFFFE0
07FFFF80
01FFFE00
000FE000
000E0000
000E0000
001FE000
001FF800
003FFC00
0000FC00
0000FC00
00007C00
00007C00
0600FC00
0FC1F800
0FFFF800
03FFE000
007F8000
ENDCHAR
STARTCHAR 0160
ENCODING 352
SWIDTH 666 0
DWIDTH 50 0
BBX 43 73 4 -2
BITMAP
003E001E0000
001F003E0000
000F807C0000
000FC0F80000
0007E1F80000
0003E3F00000
0003F3F00000
0001FFE00000
0000FFC00000
0000FFC00000
00007F800000
000000000000
000000000000
000000000000
000000000000
0001FFC00000
000FFFFC0000
007FFFFF0000
00FFFFFFC000
03FFFFFFE000
07FFFFFFF000
0FFF003FF800
0FF80007FC00
1FE00003FE00
1FC00001FE00
3FC00000FF00
3F8000007F00
3F8000007F00
7F0000003F80
7F0000003F80
7F0000003F80
7F0000003F80
7F8000000000
7F8000000000
3FC000000000
3FE000000000
3FF000000000
1FFC00000000
1FFF80000000
0FFFF8000000
07FFFF800000
03FFFFF00000
00FFFFFF0000
003FFFFFE000
0007FFFFF000
00007FFFFC00
000007FFFE00
000000FFFF00
0000000FFF00
00000003FF80
00000000FFC0
000000007FC0
000000003FC0
000000001FC0
FC0000001FE0
FC0000001FE0
FC0000000FE0
FE0000000FE0
FE0000001FC0
FE0000001FC0
7F0000001FC0
7F8000003FC0
7F8000003F80
3FC000007F80
3FF00000FF00
1FFC0003FF00
0FFF803FFE00
07FFFFFFFC00
03FFFFFFF800
01FFFFFFF000
007FFFFFC000
001FFFFE0000
0001FFE00000
ENDCHAR
STARTCHAR 0161
ENCODING 353
SWIDTH 506 0
DWIDTH 38 0
BBX 31 58 3 -2
BITMAP
07C007C0
03E00F80
03E01F80
01F01F00
01F83F00
00FC7E00
007EFC00
007EFC00
003FF800
003FF000
001FF000
000FE000
00000000
00000000
00000000
00000000
001FF800
00FFFF00
03FFFF80
0FFFFFE0
1FFFFFE0
1FFFFFF0
3FE00FF8
7F8007F8
7F0003F8
7F0001FC
7E0001FC
7E0001FC
7E000000
7E000000
7F000000
7FC00000
7FF00000
3FFE0000
1FFFF000
0FFFFE00
07FFFFC0
01FFFFE0
003FFFF8
0003FFFC
00003FFC
000007FE
000001FE
000000FE
0000007E
FC00007E
FC00007E
FE00007E
FE0000FE
FF0000FE
7F8003FC
7FE007FC
3FFFFFF8
3FFFFFF0
1FFFFFE0
07FFFFC0
01FFFF00
003FF000
ENDCHAR
STARTCHAR 0162
ENCODING 354
SWIDTH 613 0
DWIDTH 46 0
BBX 42 71 2 -16
BITMAP
FFFFFFFFFFC0
FFFFFFFFFFC0
FFFFFFFFFFC0
FFFFFFFFFFC0
FFFFFFFFFFC0
FFFFFFFFFFC0
00003F800000
00003F800000
00003F800000
00003F800000
00003F800000
00003F800000
00003F800000
00003F800000
00003F800000
00003F800000
00003F800000
00003F800000
00003F800000
00003F800000
00003F800000
00003F800000
00003F800000
00003F800000
00003F800000
00003F800000
00003F800000
00003F800000
00003F800000
00003F800000
00003F800000
00003F800000
00003F800000
00003F800000
00003F800000
00003F800000
00003F800000
00003F800000
00003F800000
00003F800000
00003F800000
00003F800000
00003F800000
00003F800000
00003F800000
00003F800000
00003F800000
00003F800000
00003F800000
00003F800000
00003F800000
00003F800000
00003F800000
00003F800000
00003F800000
000007000000
00000E000000
00000E000000
00000E000000
00001FE00000
00001FF80000
00003FFC0000
000000FC0000
000000FC0000
0000007C0000
0000007C0000
000600FC0000
000FC1F80000
000FFFF80000
0003FFE00000
00007F800000
ENDCHAR
STARTCHAR 0163
ENCODING 355
SWIDTH 280 0
DWIDTH 21 0
BBX 18 66 1 -16
BITMAP
07F000
07F000
07F000
07F000
07F000
07F000
07F000
07F000
07F000
07F000
07F000
FFFFC0
FFFFC0
FFFFC0
FFFFC0
FFFFC0
07F000
07F000
07F000
07F000
07F000
07F000
07F000
07F000
07F000
07F000
07F000
07F000
07F000
07F000
07F000
07F000
07F000
07F000
07F000
07F000
07F000
07F000
07F000
07F000
07F000
07F000
07F000
07F000
07F000
07F000
07FFC0
03FFC0
03FFC0
03FFC0
01FFC0
007FC0
00E000
00E000
01FC00
01FF80
03FFC0
001FC0
000FC0
0007C0
0007C0
600FC0
FC1F80
FFFF80
3FFE00
07F800
ENDCHAR
ENDFONT
